<?xml version="1.0" encoding="UTF-8"?>
<svg width="637px" height="791px" viewBox="0 0 637 791" version="1.1" xmlns="http://www.w3.org/2000/svg" xmlns:xlink="http://www.w3.org/1999/xlink">
    <!-- Generator: Sketch 52.6 (67491) - http://www.bohemiancoding.com/sketch -->
    <title>demons</title>
    <desc>Created with Sketch.</desc>
    <g id="Page-1" stroke="none" stroke-width="1" fill="none" fill-rule="evenodd">
        <g id="tritri" transform="translate(8.000000, 8.000000)" stroke="#FFFFFF" stroke-width="12">
            <g id="Group" transform="translate(310.709665, 387.400573) scale(-1, 1) rotate(-120.000000) translate(-310.709665, -387.400573) translate(-49.290335, 237.400573)">
                <g transform="translate(-0.000000, -0.000000)">
                    <path d="M40.40145,43.41345 C40.40145,53.9235 35.86155,60 29.25,60 C26.54115,60 23.4846,58.98 20.25,56.8269 C9.1206,49.41885 0.09855,31.40265 0.09855,16.58655 C0.09855,6.0765 4.63845,-8.18545232e-12 11.25,-8.18545232e-12 C13.95885,-8.18545232e-12 17.0154,1.02 20.25,3.1731 C31.3794,10.58115 40.40145,28.59735 40.40145,43.41345 Z" id="Oval"></path>
                    <g id="Oval-link" transform="translate(-0.000000, 120.000000)">
                        <path d="M40.40145,43.41345 C40.40145,53.9235 35.86155,60 29.25,60 C26.54115,60 23.4846,58.98 20.25,56.8269 C9.1206,49.41885 0.09855,31.40265 0.09855,16.58655 C0.09855,6.0765 4.63845,0 11.25,0 C13.95885,0 17.0154,1.02 20.25,3.1731 C31.3794,10.58115 40.40145,28.59735 40.40145,43.41345 Z" id="Oval"></path>
                    </g>
                    <g id="Oval-link" transform="translate(-0.000000, 240.000000)">
                        <path d="M40.40145,43.41345 C40.40145,53.9235 35.86155,60 29.25,60 C26.54115,60 23.4846,58.98 20.25,56.8269 C9.1206,49.41885 0.09855,31.40265 0.09855,16.58655 C0.09855,6.0765 4.63845,0 11.25,0 C13.95885,0 17.0154,1.02 20.25,3.1731 C31.3794,10.58115 40.40145,28.59735 40.40145,43.41345 Z" id="Oval"></path>
                    </g>
                </g>
                <path d="M29.25,300 L719.25,300 L719.25,60 L689.25,-7.27595761e-12 L11.25,-7.27595761e-12 M11.25,240 L629.25,240 L629.25,120 L11.25,120 M629.25,240 L599.25,180 L599.25,120 M719.25,60 L29.25,60 M599.25,180 L29.25,180" id="Shape"></path>
            </g>
        </g>
    </g>
</svg>