<?xml version="1.0" encoding="UTF-8"?>
<svg width="382px" height="639px" viewBox="0 0 382 639" version="1.1" xmlns="http://www.w3.org/2000/svg" xmlns:xlink="http://www.w3.org/1999/xlink">
    <!-- Generator: Sketch 52.6 (67491) - http://www.bohemiancoding.com/sketch -->
    <title>home</title>
    <desc>Created with Sketch.</desc>
    <g id="Page-1" stroke="none" stroke-width="1" fill="none" fill-rule="evenodd">
        <g id="drawkit-content-man-monochrome" transform="translate(40.000000, 1.000000)" stroke="#FFFFFF" stroke-width="5">
            <g id="Foreground">
                <path d="M295.8,123.4 C289,114.4 277.7,106.2 262,102.9" id="Path"></path>
                <path d="M293.6,274.8 C295.6,266.3 296.3,241.8 298,211.9" id="Path"></path>
                <path d="M236.7,103.1 C180.1,126.7 192.6,267.6 196.5,277.5 C203.1,294.3 284.8,282.3 292.1,277.8" id="Path"></path>
                <path d="M173.3,164 C164.1,172 146,192.4 144.5,195 C139.9,192.8 92,167.6 88.4,166 C84.8,164.4 77.2,151.7 74.6,151.7 C73.1,151.7 71.7,154.6 71.7,156.6 C71.7,160 73.3,162.6 74.3,163.7 C70.9,163.2 40.9,160.9 40.9,162.9 C40.9,168.1 74.5,175 77.1,176.4 C79.7,177.8 134.4,228.4 153.4,228.4 C160.8,228.4 193.2,206.2 193.2,203.8" id="Path" stroke-linecap="round" stroke-linejoin="round"></path>
                <polyline id="Path" stroke-linecap="round" stroke-linejoin="round" points="286.5 611.4 286.5 628 244.3 628 271.2 611.4"></polyline>
                <path d="M286.5,611.4 L286.5,588.2" id="Path" stroke-linecap="round" stroke-linejoin="round"></path>
                <path d="M271.4,611.4 L271.4,588.2" id="Path" stroke-linecap="round" stroke-linejoin="round"></path>
                <polyline id="Path" stroke-linecap="round" stroke-linejoin="round" points="107.5 513.4 107.5 530 65.4 530 92.2 513.4"></polyline>
                <path d="M107.5,519.4 L107.5,496.2" id="Path" stroke-linecap="round" stroke-linejoin="round"></path>
                <path d="M92.5,513.4 L92.5,494.3" id="Path" stroke-linecap="round" stroke-linejoin="round"></path>
                <rect id="Rectangle" stroke-linecap="round" stroke-linejoin="round" x="0" y="530" width="182.1" height="106.6"></rect>
                <path d="M289.4,195.5 C290.3,201 311.3,234.1 313.8,237 C308.5,241.6 279,306.1 276.7,310.3 C276.7,312.7 283.9,320.6 286.5,323.2 C290.9,323.2 340.4,259.5 340.4,252.3 C340.4,245.1 341.2,198.1 327.9,177.8" id="Path" stroke-linecap="round"></path>
                <path d="M283.5,194.5 C290.7,197.6 325.7,187.1 328.5,176.5 C331.5,160.8 307.9,115.6 286.9,124.1" id="Path" stroke-linecap="round"></path>
                <path d="M286.4,323.3 C283.8,320.7 276.6,312.8 276.6,310.4 C277.7,308.5 284.5,293.7 292.1,278 C273.3,283.1 226.5,286.9 209.4,283 C204.8,282 200.2,279.8 196.5,277.6 C192,280.5 125.8,326.8 95.2,372.2 C93.6,375.8 91.2,494.5 91.2,494.5 L115.5,496.6 L137.2,395.5 C140.7,395.5 188,377.4 221.9,355.8 L262.1,588.4 L288.2,588.4 L293.9,316.6 C290.1,320.6 287.3,323.3 286.4,323.3 Z" id="Path"></path>
                <g id="Group-2" transform="translate(213.000000, 0.000000)">
                    <path d="M4.1,0.3 C4.1,27.3 72.3,20.3 72.3,54.9 C72.3,69.9 64.1,73.5 59.3,73.5" id="Path" stroke-linecap="round"></path>
                    <path d="M0.5,8.5 C0.5,11.5 4.3,19.9 15.3,30.3" id="Path" stroke-linecap="round"></path>
                    <path d="M22.5,36.9 C21.3,40.9 10.3,60.3 10.3,62.7 C10.3,65.1 15.8,68.2 15.8,69.9 C15.8,71.6 13.6,80.5 24.6,87.8 C24.1,91.1 23.7,103.1 23.7,103.1" id="Path" stroke-linecap="round"></path>
                    <circle id="Oval" fill="#000000" cx="26.2" cy="52.1" r="1.5"></circle>
                    <path d="M22.5,74.8 C20.5,75.7 18.4,76.3 16.2,76.6" id="Path" stroke-linecap="round"></path>
                    <path d="M59.1,74.1 C52.6,82.1 48.1,106.7 48,109.5 C47,111.2 42.1,111.7 37.2,111.8" id="Path" stroke-linecap="round"></path>
                </g>
                <path d="M219.4,115.7 C205,110.2 171.6,146.2 171,160.2 C173.6,167.1 187.2,175.7 196.1,180.4" id="Path"></path>
            </g>
        </g>
        <text id="Home" font-family="Wotfard-Regular, Wotfard" font-size="72" font-weight="normal" fill="#FFFFFF">
            <tspan x="0" y="128">Home</tspan>
        </text>
    </g>
</svg>