<?xml version="1.0" encoding="UTF-8"?>
<svg width="700px" height="546px" viewBox="0 0 700 546" version="1.1" xmlns="http://www.w3.org/2000/svg" xmlns:xlink="http://www.w3.org/1999/xlink">
    <!-- Generator: Sketch 52.6 (67491) - http://www.bohemiancoding.com/sketch -->
    <title>Slice 1</title>
    <desc>Created with Sketch.</desc>
    <g id="Page-1" stroke="none" stroke-width="1" fill="none" fill-rule="evenodd">
        <g id="insert_2_colors" fill="#1B1B1B">
            <g id="Group">
                <path d="M45,0 L47,0 L47,1 L48,1 L48,2 L50,2 L50,3 L52,3 L52,4 L54,4 L54,5 L55,5 L55,6 L57,6 L57,7 L59,7 L59,8 L61,8 L61,9 L62,9 L62,10 L64,10 L64,11 L66,11 L66,12 L67,12 L67,13 L69,13 L69,14 L71,14 L71,15 L73,15 L73,16 L74,16 L74,17 L76,17 L76,18 L78,18 L78,19 L79,19 L79,20 L81,20 L81,21 L83,21 L83,22 L85,22 L85,23 L86,23 L86,24 L88,24 L88,25 L90,25 L90,26 L92,26 L92,27 L93,27 L93,28 L95,28 L95,29 L97,29 L97,30 L99,30 L99,31 L100,31 L100,32 L102,32 L102,33 L104,33 L104,34 L106,34 L106,35 L107,35 L107,36 L109,36 L109,37 L111,37 L111,38 L113,38 L113,39 L114,39 L114,40 L116,40 L116,41 L118,41 L118,42 L119,42 L119,43 L121,43 L121,44 L123,44 L123,45 L125,45 L125,46 L126,46 L126,47 L128,47 L128,48 L130,48 L130,49 L132,49 L132,50 L133,50 L133,51 L135,51 L135,52 L137,52 L137,53 L138,53 L138,54 L140,54 L140,55 L142,55 L142,56 L144,56 L144,57 L145,57 L145,58 L147,58 L147,59 L149,59 L149,60 L150,60 L150,61 L152,61 L152,62 L154,62 L154,63 L156,63 L156,64 L157,64 L157,65 L159,65 L159,66 L161,66 L161,67 L163,67 L163,68 L164,68 L164,69 L166,69 L166,70 L168,70 L168,71 L169,71 L169,72 L171,72 L171,73 L173,73 L173,74 L175,74 L175,75 L176,75 L176,76 L178,76 L178,77 L180,77 L180,78 L182,78 L182,79 L183,79 L183,80 L185,80 L185,81 L187,81 L187,82 L188,82 L188,83 L190,83 L190,84 L192,84 L192,85 L194,85 L194,86 L195,86 L195,87 L197,87 L197,88 L199,88 L199,89 L201,89 L201,90 L202,90 L202,91 L204,91 L204,92 L206,92 L206,93 L208,93 L208,94 L209,94 L209,95 L211,95 L211,96 L213,96 L213,97 L215,97 L215,98 L216,98 L216,99 L218,99 L218,100 L220,100 L220,101 L221,101 L221,102 L223,102 L223,103 L225,103 L225,104 L227,104 L227,105 L228,105 L228,106 L230,106 L230,107 L232,107 L232,108 L234,108 L234,109 L235,109 L235,110 L237,110 L237,111 L239,111 L239,112 L241,112 L241,113 L242,113 L242,114 L244,114 L244,115 L246,115 L246,116 L247,116 L247,117 L249,117 L249,118 L251,118 L251,119 L253,119 L253,120 L254,120 L254,121 L256,121 L256,122 L258,122 L258,123 L259,123 L259,124 L261,124 L261,125 L263,125 L263,126 L265,126 L265,127 L266,127 L266,128 L268,128 L268,129 L270,129 L270,130 L271,130 L271,131 L273,131 L273,132 L275,132 L275,133 L277,133 L277,134 L278,134 L278,135 L280,135 L280,136 L282,136 L282,137 L284,137 L284,138 L286,138 L286,139 L287,139 L287,140 L289,140 L289,141 L291,141 L291,142 L292,142 L292,143 L294,143 L294,144 L296,144 L296,145 L298,145 L298,146 L299,146 L299,147 L301,147 L301,148 L303,148 L303,149 L304,149 L304,150 L306,150 L306,151 L308,151 L308,152 L310,152 L310,153 L311,153 L311,154 L313,154 L313,155 L315,155 L315,156 L317,156 L317,157 L318,157 L318,158 L320,158 L320,159 L322,159 L322,160 L323,160 L323,161 L325,161 L325,162 L327,162 L327,163 L329,163 L329,164 L330,164 L330,165 L332,165 L332,166 L334,166 L334,167 L336,167 L336,168 L337,168 L337,169 L339,169 L339,170 L341,170 L341,171 L343,171 L343,172 L344,172 L344,173 L346,173 L346,174 L348,174 L348,175 L349,175 L349,176 L351,176 L351,177 L353,177 L353,178 L355,178 L355,179 L356,179 L356,180 L358,180 L358,181 L360,181 L360,182 L361,182 L361,183 L363,183 L363,184 L365,184 L365,185 L367,185 L367,186 L368,186 L368,187 L370,187 L370,188 L372,188 L372,189 L374,189 L374,190 L375,190 L375,191 L377,191 L377,192 L379,192 L379,193 L381,193 L381,194 L382,194 L382,195 L384,195 L384,196 L386,196 L386,197 L387,197 L387,198 L389,198 L389,199 L391,199 L391,200 L393,200 L393,201 L394,201 L394,202 L396,202 L396,203 L398,203 L398,204 L400,204 L400,205 L401,205 L401,206 L403,206 L403,207 L405,207 L405,208 L406,208 L406,209 L408,209 L408,210 L410,210 L410,211 L412,211 L412,212 L413,212 L413,213 L415,213 L415,214 L417,214 L417,215 L419,215 L419,216 L420,216 L420,217 L422,217 L422,218 L424,218 L424,219 L425,219 L425,220 L427,220 L427,221 L429,221 L429,222 L431,222 L431,223 L432,223 L432,224 L434,224 L434,225 L436,225 L436,226 L438,226 L438,227 L439,227 L439,228 L441,228 L441,229 L443,229 L443,230 L445,230 L445,231 L446,231 L446,232 L448,232 L448,233 L450,233 L450,234 L451,234 L451,235 L453,235 L453,236 L455,236 L455,237 L457,237 L457,238 L458,238 L458,239 L460,239 L460,240 L462,240 L462,241 L464,241 L464,242 L465,242 L465,243 L467,243 L467,244 L469,244 L469,245 L470,245 L470,246 L472,246 L472,247 L474,247 L474,248 L476,248 L476,249 L477,249 L477,250 L479,250 L479,251 L481,251 L481,252 L482,252 L482,253 L484,253 L484,254 L486,254 L486,255 L488,255 L488,256 L489,256 L489,257 L491,257 L491,258 L493,258 L493,259 L495,259 L495,260 L496,260 L496,261 L498,261 L498,262 L500,262 L500,263 L502,263 L502,264 L503,264 L503,265 L505,265 L505,266 L507,266 L507,267 L508,267 L508,268 L510,268 L510,269 L512,269 L512,270 L514,270 L514,271 L515,271 L515,272 L517,272 L517,273 L519,273 L519,274 L521,274 L521,275 L522,275 L522,276 L524,276 L524,277 L526,277 L526,278 L528,278 L528,279 L529,279 L529,280 L531,280 L531,281 L533,281 L533,282 L534,282 L534,283 L536,283 L536,284 L538,284 L538,285 L540,285 L540,286 L541,286 L541,287 L543,287 L543,288 L545,288 L545,289 L547,289 L547,290 L548,290 L548,291 L550,291 L550,292 L552,292 L552,293 L553,293 L553,294 L555,294 L555,295 L557,295 L557,296 L559,296 L559,297 L560,297 L560,298 L562,298 L562,299 L564,299 L564,300 L565,300 L565,301 L567,301 L567,302 L569,302 L569,303 L571,303 L571,304 L573,304 L573,305 L574,305 L574,306 L576,306 L576,307 L578,307 L578,308 L579,308 L579,309 L581,309 L581,310 L583,310 L583,311 L585,311 L585,312 L586,312 L586,313 L588,313 L588,314 L590,314 L590,315 L591,315 L591,316 L593,316 L593,317 L595,317 L595,318 L597,318 L597,319 L598,319 L598,320 L600,320 L600,321 L602,321 L602,322 L604,322 L604,323 L605,323 L605,324 L607,324 L607,325 L609,325 L609,326 L611,326 L611,327 L612,327 L612,328 L614,328 L614,329 L616,329 L616,330 L617,330 L617,331 L619,331 L619,332 L621,332 L621,333 L623,333 L623,334 L624,334 L624,335 L626,335 L626,336 L628,336 L628,337 L630,337 L630,338 L631,338 L631,339 L633,339 L633,340 L635,340 L635,341 L637,341 L637,342 L638,342 L638,343 L640,343 L640,344 L642,344 L642,345 L643,345 L643,346 L645,346 L645,347 L647,347 L647,348 L649,348 L649,349 L650,349 L650,350 L652,350 L652,351 L654,351 L654,352 L656,352 L656,353 L657,353 L657,354 L659,354 L659,355 L661,355 L661,356 L662,356 L662,357 L664,357 L664,358 L666,358 L666,359 L668,359 L668,360 L669,360 L669,361 L671,361 L671,362 L673,362 L673,363 L675,363 L675,364 L676,364 L676,365 L678,365 L678,366 L680,366 L680,367 L681,367 L681,368 L683,368 L683,369 L685,369 L685,370 L687,370 L687,371 L688,371 L688,372 L690,372 L690,373 L692,373 L692,374 L694,374 L694,375 L695,375 L695,376 L697,376 L697,377 L699,377 L699,378 L700,378 L700,437 L698,437 L698,438 L697,438 L697,439 L695,439 L695,440 L693,440 L693,441 L692,441 L692,442 L690,442 L690,443 L688,443 L688,444 L687,444 L687,445 L685,445 L685,446 L683,446 L683,447 L682,447 L682,448 L680,448 L680,449 L678,449 L678,450 L676,450 L676,451 L675,451 L675,452 L673,452 L673,453 L671,453 L671,454 L670,454 L670,455 L668,455 L668,456 L666,456 L666,457 L664,457 L664,458 L663,458 L663,459 L661,459 L661,460 L659,460 L659,461 L658,461 L658,462 L656,462 L656,463 L654,463 L654,464 L652,464 L652,465 L651,465 L651,466 L649,466 L649,467 L647,467 L647,468 L645,468 L645,469 L644,469 L644,470 L642,470 L642,471 L641,471 L641,472 L639,472 L639,473 L637,473 L637,474 L635,474 L635,475 L634,475 L634,476 L632,476 L632,477 L630,477 L630,478 L629,478 L629,479 L627,479 L627,480 L625,480 L625,481 L623,481 L623,482 L622,482 L622,483 L620,483 L620,484 L618,484 L618,485 L617,485 L617,486 L615,486 L615,487 L613,487 L613,488 L611,488 L611,489 L610,489 L610,490 L608,490 L608,491 L606,491 L606,492 L605,492 L605,493 L603,493 L603,494 L601,494 L601,495 L600,495 L600,496 L598,496 L598,497 L596,497 L596,498 L594,498 L594,499 L593,499 L593,500 L591,500 L591,501 L589,501 L589,502 L587,502 L587,503 L586,503 L586,504 L584,504 L584,505 L582,505 L582,506 L581,506 L581,507 L579,507 L579,508 L577,508 L577,509 L576,509 L576,510 L574,510 L574,511 L572,511 L572,512 L571,512 L571,513 L569,513 L569,514 L567,514 L567,515 L565,515 L565,516 L564,516 L564,517 L562,517 L562,518 L560,518 L560,519 L559,519 L559,520 L557,520 L557,521 L555,521 L555,522 L554,522 L554,523 L552,523 L552,524 L550,524 L550,525 L548,525 L548,526 L547,526 L547,527 L545,527 L545,528 L543,528 L543,529 L541,529 L541,530 L540,530 L540,531 L538,531 L538,532 L536,532 L536,533 L535,533 L535,534 L533,534 L533,535 L531,535 L531,536 L530,536 L530,537 L528,537 L528,538 L526,538 L526,539 L524,539 L524,540 L523,540 L523,541 L521,541 L521,542 L519,542 L519,543 L518,543 L518,544 L516,544 L516,545 L514,545 L514,546 L510,546 L510,545 L508,545 L508,544 L506,544 L506,543 L504,543 L504,542 L503,542 L503,541 L501,541 L501,540 L499,540 L499,539 L497,539 L497,538 L496,538 L496,537 L494,537 L494,536 L492,536 L492,535 L491,535 L491,534 L489,534 L489,533 L487,533 L487,532 L485,532 L485,531 L484,531 L484,530 L482,530 L482,529 L480,529 L480,528 L478,528 L478,527 L477,527 L477,526 L475,526 L475,525 L473,525 L473,524 L472,524 L472,523 L470,523 L470,522 L468,522 L468,521 L466,521 L466,520 L464,520 L464,519 L463,519 L463,518 L461,518 L461,517 L459,517 L459,516 L458,516 L458,515 L456,515 L456,514 L454,514 L454,513 L452,513 L452,512 L451,512 L451,511 L449,511 L449,510 L447,510 L447,509 L445,509 L445,508 L444,508 L444,507 L442,507 L442,506 L440,506 L440,505 L439,505 L439,504 L437,504 L437,503 L435,503 L435,502 L434,502 L434,501 L432,501 L432,500 L430,500 L430,499 L428,499 L428,498 L426,498 L426,497 L425,497 L425,496 L423,496 L423,495 L421,495 L421,494 L420,494 L420,493 L418,493 L418,492 L416,492 L416,491 L414,491 L414,490 L413,490 L413,489 L411,489 L411,488 L409,488 L409,487 L407,487 L407,486 L406,486 L406,485 L404,485 L404,484 L402,484 L402,483 L400,483 L400,482 L399,482 L399,481 L397,481 L397,480 L395,480 L395,479 L394,479 L394,478 L392,478 L392,477 L390,477 L390,476 L389,476 L389,475 L387,475 L387,474 L385,474 L385,473 L383,473 L383,472 L382,472 L382,471 L380,471 L380,470 L378,470 L378,469 L376,469 L376,468 L374,468 L374,467 L373,467 L373,466 L371,466 L371,465 L369,465 L369,464 L368,464 L368,463 L366,463 L366,462 L364,462 L364,461 L362,461 L362,460 L361,460 L361,459 L359,459 L359,458 L357,458 L357,457 L355,457 L355,456 L354,456 L354,455 L352,455 L352,454 L350,454 L350,453 L349,453 L349,452 L347,452 L347,451 L345,451 L345,450 L343,450 L343,449 L342,449 L342,448 L340,448 L340,447 L338,447 L338,446 L336,446 L336,445 L335,445 L335,444 L333,444 L333,443 L331,443 L331,442 L330,442 L330,441 L328,441 L328,440 L326,440 L326,439 L324,439 L324,438 L323,438 L323,437 L321,437 L321,436 L319,436 L319,435 L317,435 L317,434 L316,434 L316,433 L314,433 L314,432 L312,432 L312,431 L310,431 L310,430 L309,430 L309,429 L307,429 L307,428 L305,428 L305,427 L304,427 L304,426 L302,426 L302,425 L300,425 L300,424 L298,424 L298,423 L297,423 L297,422 L295,422 L295,421 L293,421 L293,420 L291,420 L291,419 L290,419 L290,418 L288,418 L288,417 L286,417 L286,416 L284,416 L284,415 L283,415 L283,414 L281,414 L281,413 L279,413 L279,412 L278,412 L278,411 L276,411 L276,410 L274,410 L274,409 L273,409 L273,408 L271,408 L271,407 L269,407 L269,406 L267,406 L267,405 L266,405 L266,404 L264,404 L264,403 L262,403 L262,402 L260,402 L260,401 L259,401 L259,400 L257,400 L257,399 L255,399 L255,398 L253,398 L253,397 L252,397 L252,396 L250,396 L250,395 L248,395 L248,394 L247,394 L247,393 L245,393 L245,392 L243,392 L243,391 L241,391 L241,390 L240,390 L240,389 L238,389 L238,388 L236,388 L236,387 L234,387 L234,386 L233,386 L233,385 L231,385 L231,384 L229,384 L229,383 L227,383 L227,382 L226,382 L226,381 L224,381 L224,380 L222,380 L222,379 L221,379 L221,378 L219,378 L219,377 L217,377 L217,376 L215,376 L215,375 L214,375 L214,374 L212,374 L212,373 L210,373 L210,372 L208,372 L208,371 L207,371 L207,370 L205,370 L205,369 L203,369 L203,368 L201,368 L201,367 L200,367 L200,366 L198,366 L198,365 L196,365 L196,364 L195,364 L195,363 L193,363 L193,362 L191,362 L191,361 L189,361 L189,360 L188,360 L188,359 L186,359 L186,358 L184,358 L184,357 L182,357 L182,356 L181,356 L181,355 L179,355 L179,354 L177,354 L177,353 L175,353 L175,352 L174,352 L174,351 L172,351 L172,350 L170,350 L170,349 L169,349 L169,348 L167,348 L167,347 L165,347 L165,346 L163,346 L163,345 L162,345 L162,344 L160,344 L160,343 L158,343 L158,342 L156,342 L156,341 L155,341 L155,340 L153,340 L153,339 L151,339 L151,338 L150,338 L150,337 L148,337 L148,336 L146,336 L146,335 L144,335 L144,334 L143,334 L143,333 L141,333 L141,332 L139,332 L139,331 L137,331 L137,330 L136,330 L136,329 L134,329 L134,328 L132,328 L132,327 L131,327 L131,326 L129,326 L129,325 L127,325 L127,324 L126,324 L126,323 L124,323 L124,322 L122,322 L122,321 L120,321 L120,320 L118,320 L118,319 L117,319 L117,318 L115,318 L115,317 L113,317 L113,316 L112,316 L112,315 L110,315 L110,314 L108,314 L108,313 L106,313 L106,312 L105,312 L105,311 L103,311 L103,310 L101,310 L101,309 L99,309 L99,308 L98,308 L98,307 L96,307 L96,306 L94,306 L94,305 L92,305 L92,304 L91,304 L91,303 L89,303 L89,302 L87,302 L87,301 L85,301 L85,300 L84,300 L84,299 L82,299 L82,298 L80,298 L80,297 L79,297 L79,296 L77,296 L77,295 L75,295 L75,294 L74,294 L74,293 L72,293 L72,292 L70,292 L70,291 L68,291 L68,290 L67,290 L67,289 L65,289 L65,288 L63,288 L63,287 L61,287 L61,286 L60,286 L60,285 L58,285 L58,284 L56,284 L56,283 L54,283 L54,282 L53,282 L53,281 L51,281 L51,280 L49,280 L49,279 L47,279 L47,278 L46,278 L46,277 L44,277 L44,276 L42,276 L42,275 L41,275 L41,274 L39,274 L39,273 L37,273 L37,272 L35,272 L35,271 L34,271 L34,270 L32,270 L32,269 L30,269 L30,268 L28,268 L28,267 L27,267 L27,266 L25,266 L25,265 L23,265 L23,264 L22,264 L22,263 L20,263 L20,262 L18,262 L18,261 L16,261 L16,260 L15,260 L15,259 L13,259 L13,258 L11,258 L11,257 L9,257 L9,256 L8,256 L8,255 L6,255 L6,254 L4,254 L4,253 L2,253 L2,252 L1,252 L1,251 L0,251 L0,27 L1,27 L1,26 L3,26 L3,25 L4,25 L4,24 L6,24 L6,23 L8,23 L8,22 L9,22 L9,21 L11,21 L11,20 L13,20 L13,19 L14,19 L14,18 L16,18 L16,17 L18,17 L18,16 L20,16 L20,15 L21,15 L21,14 L23,14 L23,13 L25,13 L25,12 L26,12 L26,11 L28,11 L28,10 L30,10 L30,9 L31,9 L31,8 L33,8 L33,7 L35,7 L35,6 L37,6 L37,5 L38,5 L38,4 L40,4 L40,3 L42,3 L42,2 L43,2 L43,1 L45,1 L45,0 Z M45,4 L45,5 L43,5 L43,6 L41,6 L41,7 L40,7 L40,8 L38,8 L38,9 L36,9 L36,10 L34,10 L34,11 L33,11 L33,12 L31,12 L31,13 L30,13 L30,14 L28,14 L28,15 L26,15 L26,16 L24,16 L24,17 L23,17 L23,18 L21,18 L21,19 L19,19 L19,20 L17,20 L17,21 L16,21 L16,22 L14,22 L14,23 L12,23 L12,24 L11,24 L11,25 L9,25 L9,26 L7,26 L7,27 L6,27 L6,29 L8,29 L8,30 L9,30 L9,31 L11,31 L11,32 L13,32 L13,33 L15,33 L15,34 L16,34 L16,35 L18,35 L18,36 L20,36 L20,37 L21,37 L21,38 L23,38 L23,39 L25,39 L25,40 L26,40 L26,41 L28,41 L28,42 L30,42 L30,43 L32,43 L32,44 L33,44 L33,45 L35,45 L35,46 L37,46 L37,47 L39,47 L39,48 L40,48 L40,49 L42,49 L42,50 L44,50 L44,51 L46,51 L46,52 L47,52 L47,53 L49,53 L49,54 L51,54 L51,55 L53,55 L53,56 L54,56 L54,57 L56,57 L56,58 L58,58 L58,59 L59,59 L59,60 L61,60 L61,61 L63,61 L63,62 L65,62 L65,63 L66,63 L66,64 L68,64 L68,65 L70,65 L70,66 L72,66 L72,67 L73,67 L73,68 L75,68 L75,69 L77,69 L77,70 L78,70 L78,71 L80,71 L80,72 L82,72 L82,73 L84,73 L84,74 L85,74 L85,75 L87,75 L87,76 L89,76 L89,77 L91,77 L91,78 L92,78 L92,79 L94,79 L94,80 L96,80 L96,81 L98,81 L98,82 L99,82 L99,83 L101,83 L101,84 L103,84 L103,85 L104,85 L104,86 L106,86 L106,87 L108,87 L108,88 L110,88 L110,89 L111,89 L111,90 L113,90 L113,91 L115,91 L115,92 L117,92 L117,93 L118,93 L118,94 L120,94 L120,95 L122,95 L122,96 L123,96 L123,97 L125,97 L125,98 L127,98 L127,99 L129,99 L129,100 L130,100 L130,101 L132,101 L132,102 L134,102 L134,103 L135,103 L135,104 L137,104 L137,105 L139,105 L139,106 L141,106 L141,107 L143,107 L143,108 L144,108 L144,109 L146,109 L146,110 L148,110 L148,111 L149,111 L149,112 L151,112 L151,113 L153,113 L153,114 L154,114 L154,115 L156,115 L156,116 L158,116 L158,117 L160,117 L160,118 L161,118 L161,119 L163,119 L163,120 L165,120 L165,121 L167,121 L167,122 L169,122 L169,123 L170,123 L170,124 L172,124 L172,125 L174,125 L174,126 L175,126 L175,127 L177,127 L177,128 L179,128 L179,129 L181,129 L181,130 L182,130 L182,131 L184,131 L184,132 L186,132 L186,133 L187,133 L187,134 L189,134 L189,135 L191,135 L191,136 L193,136 L193,137 L194,137 L194,138 L196,138 L196,139 L198,139 L198,140 L200,140 L200,141 L201,141 L201,142 L203,142 L203,143 L205,143 L205,144 L206,144 L206,145 L208,145 L208,146 L210,146 L210,147 L212,147 L212,148 L213,148 L213,149 L215,149 L215,150 L217,150 L217,151 L219,151 L219,152 L220,152 L220,153 L222,153 L222,154 L224,154 L224,155 L226,155 L226,156 L227,156 L227,157 L229,157 L229,158 L231,158 L231,159 L232,159 L232,160 L234,160 L234,161 L236,161 L236,162 L237,162 L237,163 L239,163 L239,164 L241,164 L241,165 L243,165 L243,166 L245,166 L245,167 L246,167 L246,168 L248,168 L248,169 L250,169 L250,170 L251,170 L251,171 L253,171 L253,172 L255,172 L255,173 L257,173 L257,174 L258,174 L258,175 L260,175 L260,176 L262,176 L262,177 L264,177 L264,178 L265,178 L265,179 L267,179 L267,180 L269,180 L269,181 L270,181 L270,182 L272,182 L272,183 L274,183 L274,184 L276,184 L276,185 L277,185 L277,186 L279,186 L279,187 L281,187 L281,188 L283,188 L283,189 L284,189 L284,190 L286,190 L286,191 L288,191 L288,192 L289,192 L289,193 L291,193 L291,194 L293,194 L293,195 L295,195 L295,196 L296,196 L296,197 L298,197 L298,198 L300,198 L300,199 L302,199 L302,200 L303,200 L303,201 L305,201 L305,202 L307,202 L307,203 L309,203 L309,204 L310,204 L310,205 L312,205 L312,206 L314,206 L314,207 L315,207 L315,208 L317,208 L317,209 L319,209 L319,210 L321,210 L321,211 L322,211 L322,212 L324,212 L324,213 L326,213 L326,214 L328,214 L328,215 L329,215 L329,216 L331,216 L331,217 L333,217 L333,218 L334,218 L334,219 L336,219 L336,220 L338,220 L338,221 L340,221 L340,222 L341,222 L341,223 L343,223 L343,224 L345,224 L345,225 L347,225 L347,226 L348,226 L348,227 L350,227 L350,228 L352,228 L352,229 L353,229 L353,230 L355,230 L355,231 L357,231 L357,232 L359,232 L359,233 L360,233 L360,234 L362,234 L362,235 L364,235 L364,236 L365,236 L365,237 L367,237 L367,238 L369,238 L369,239 L371,239 L371,240 L373,240 L373,241 L374,241 L374,242 L376,242 L376,243 L378,243 L378,244 L379,244 L379,245 L381,245 L381,246 L383,246 L383,247 L385,247 L385,248 L386,248 L386,249 L388,249 L388,250 L390,250 L390,251 L392,251 L392,252 L393,252 L393,253 L395,253 L395,254 L397,254 L397,255 L398,255 L398,256 L400,256 L400,257 L402,257 L402,258 L404,258 L404,259 L405,259 L405,260 L407,260 L407,261 L409,261 L409,262 L411,262 L411,263 L412,263 L412,264 L414,264 L414,265 L416,265 L416,266 L417,266 L417,267 L419,267 L419,268 L421,268 L421,269 L423,269 L423,270 L424,270 L424,271 L426,271 L426,272 L428,272 L428,273 L430,273 L430,274 L431,274 L431,275 L433,275 L433,276 L435,276 L435,277 L437,277 L437,278 L438,278 L438,279 L440,279 L440,280 L442,280 L442,281 L443,281 L443,282 L445,282 L445,283 L447,283 L447,284 L449,284 L449,285 L450,285 L450,286 L452,286 L452,287 L454,287 L454,288 L456,288 L456,289 L457,289 L457,290 L459,290 L459,291 L461,291 L461,292 L462,292 L462,293 L464,293 L464,294 L466,294 L466,295 L468,295 L468,296 L469,296 L469,297 L471,297 L471,298 L473,298 L473,299 L474,299 L474,300 L476,300 L476,301 L478,301 L478,302 L480,302 L480,303 L482,303 L482,304 L483,304 L483,305 L485,305 L485,306 L487,306 L487,307 L488,307 L488,308 L490,308 L490,309 L492,309 L492,310 L494,310 L494,311 L495,311 L495,312 L497,312 L497,313 L499,313 L499,314 L500,314 L500,315 L502,315 L502,316 L504,316 L504,317 L506,317 L506,318 L507,318 L507,319 L509,319 L509,320 L511,320 L511,321 L513,321 L513,322 L514,322 L514,323 L516,323 L516,324 L518,324 L518,325 L520,325 L520,326 L521,326 L521,327 L523,327 L523,328 L525,328 L525,329 L527,329 L527,330 L528,330 L528,331 L530,331 L530,332 L532,332 L532,333 L533,333 L533,334 L535,334 L535,335 L537,335 L537,336 L539,336 L539,337 L540,337 L540,338 L542,338 L542,339 L544,339 L544,340 L545,340 L545,341 L547,341 L547,342 L549,342 L549,343 L551,343 L551,344 L552,344 L552,345 L554,345 L554,346 L556,346 L556,347 L558,347 L558,348 L559,348 L559,349 L561,349 L561,350 L563,350 L563,351 L565,351 L565,352 L566,352 L566,353 L568,353 L568,354 L570,354 L570,355 L571,355 L571,356 L573,356 L573,357 L575,357 L575,358 L577,358 L577,359 L578,359 L578,360 L580,360 L580,361 L582,361 L582,362 L583,362 L583,363 L585,363 L585,364 L587,364 L587,365 L589,365 L589,366 L590,366 L590,367 L592,367 L592,368 L594,368 L594,369 L596,369 L596,370 L597,370 L597,371 L599,371 L599,372 L601,372 L601,373 L603,373 L603,374 L604,374 L604,375 L606,375 L606,376 L607,376 L607,430 L609,430 L609,429 L610,429 L610,428 L612,428 L612,427 L614,427 L614,426 L616,426 L616,425 L617,425 L617,424 L619,424 L619,423 L621,423 L621,422 L622,422 L622,421 L624,421 L624,420 L626,420 L626,419 L628,419 L628,418 L629,418 L629,417 L631,417 L631,416 L633,416 L633,415 L634,415 L634,414 L636,414 L636,413 L638,413 L638,412 L639,412 L639,411 L641,411 L641,410 L643,410 L643,409 L645,409 L645,408 L646,408 L646,407 L648,407 L648,406 L650,406 L650,405 L651,405 L651,404 L653,404 L653,403 L655,403 L655,402 L657,402 L657,401 L658,401 L658,400 L660,400 L660,399 L662,399 L662,398 L663,398 L663,397 L665,397 L665,396 L667,396 L667,395 L669,395 L669,394 L670,394 L670,393 L672,393 L672,392 L674,392 L674,391 L675,391 L675,390 L677,390 L677,389 L679,389 L679,388 L680,388 L680,387 L682,387 L682,386 L684,386 L684,385 L686,385 L686,384 L687,384 L687,383 L689,383 L689,382 L691,382 L691,381 L692,381 L692,380 L694,380 L694,378 L692,378 L692,377 L690,377 L690,376 L689,376 L689,375 L687,375 L687,374 L685,374 L685,373 L684,373 L684,372 L682,372 L682,371 L680,371 L680,370 L679,370 L679,369 L677,369 L677,368 L675,368 L675,367 L673,367 L673,366 L671,366 L671,365 L670,365 L670,364 L668,364 L668,363 L666,363 L666,362 L664,362 L664,361 L663,361 L663,360 L661,360 L661,359 L659,359 L659,358 L658,358 L658,357 L656,357 L656,356 L654,356 L654,355 L652,355 L652,354 L651,354 L651,353 L649,353 L649,352 L647,352 L647,351 L646,351 L646,350 L644,350 L644,349 L642,349 L642,348 L640,348 L640,347 L639,347 L639,346 L637,346 L637,345 L635,345 L635,344 L633,344 L633,343 L632,343 L632,342 L630,342 L630,341 L628,341 L628,340 L626,340 L626,339 L625,339 L625,338 L623,338 L623,337 L621,337 L621,336 L620,336 L620,335 L618,335 L618,334 L616,334 L616,333 L614,333 L614,332 L613,332 L613,331 L611,331 L611,330 L609,330 L609,329 L607,329 L607,328 L606,328 L606,327 L604,327 L604,326 L602,326 L602,325 L601,325 L601,324 L599,324 L599,323 L597,323 L597,322 L595,322 L595,321 L594,321 L594,320 L592,320 L592,319 L590,319 L590,318 L588,318 L588,317 L587,317 L587,316 L585,316 L585,315 L583,315 L583,314 L581,314 L581,313 L580,313 L580,312 L578,312 L578,311 L576,311 L576,310 L575,310 L575,309 L573,309 L573,308 L571,308 L571,307 L569,307 L569,306 L568,306 L568,305 L566,305 L566,304 L564,304 L564,303 L563,303 L563,302 L561,302 L561,301 L559,301 L559,300 L557,300 L557,299 L556,299 L556,298 L554,298 L554,297 L552,297 L552,296 L550,296 L550,295 L549,295 L549,294 L547,294 L547,293 L545,293 L545,292 L543,292 L543,291 L542,291 L542,290 L540,290 L540,289 L538,289 L538,288 L537,288 L537,287 L535,287 L535,286 L533,286 L533,285 L531,285 L531,284 L530,284 L530,283 L528,283 L528,282 L526,282 L526,281 L524,281 L524,280 L523,280 L523,279 L521,279 L521,278 L519,278 L519,277 L518,277 L518,276 L516,276 L516,275 L514,275 L514,274 L512,274 L512,273 L511,273 L511,272 L509,272 L509,271 L507,271 L507,270 L505,270 L505,269 L504,269 L504,268 L502,268 L502,267 L500,267 L500,266 L498,266 L498,265 L497,265 L497,264 L495,264 L495,263 L493,263 L493,262 L492,262 L492,261 L490,261 L490,260 L488,260 L488,259 L486,259 L486,258 L485,258 L485,257 L483,257 L483,256 L481,256 L481,255 L479,255 L479,254 L478,254 L478,253 L476,253 L476,252 L474,252 L474,251 L473,251 L473,250 L471,250 L471,249 L469,249 L469,248 L467,248 L467,247 L466,247 L466,246 L464,246 L464,245 L462,245 L462,244 L460,244 L460,243 L459,243 L459,242 L457,242 L457,241 L455,241 L455,240 L454,240 L454,239 L452,239 L452,238 L450,238 L450,237 L448,237 L448,236 L447,236 L447,235 L445,235 L445,234 L443,234 L443,233 L441,233 L441,232 L440,232 L440,231 L438,231 L438,230 L436,230 L436,229 L435,229 L435,228 L433,228 L433,227 L431,227 L431,226 L429,226 L429,225 L427,225 L427,224 L426,224 L426,223 L424,223 L424,222 L422,222 L422,221 L421,221 L421,220 L419,220 L419,219 L417,219 L417,218 L415,218 L415,217 L414,217 L414,216 L412,216 L412,215 L410,215 L410,214 L408,214 L408,213 L407,213 L407,212 L405,212 L405,211 L403,211 L403,210 L402,210 L402,209 L400,209 L400,208 L398,208 L398,207 L396,207 L396,206 L395,206 L395,205 L393,205 L393,204 L391,204 L391,203 L390,203 L390,202 L388,202 L388,201 L386,201 L386,200 L384,200 L384,199 L383,199 L383,198 L381,198 L381,197 L379,197 L379,196 L377,196 L377,195 L376,195 L376,194 L374,194 L374,193 L372,193 L372,192 L370,192 L370,191 L369,191 L369,190 L367,190 L367,189 L365,189 L365,188 L364,188 L364,187 L362,187 L362,186 L360,186 L360,185 L358,185 L358,184 L357,184 L357,183 L355,183 L355,182 L353,182 L353,181 L351,181 L351,180 L350,180 L350,179 L348,179 L348,178 L346,178 L346,177 L345,177 L345,176 L343,176 L343,175 L341,175 L341,174 L339,174 L339,173 L338,173 L338,172 L336,172 L336,171 L334,171 L334,170 L332,170 L332,169 L331,169 L331,168 L329,168 L329,167 L327,167 L327,166 L326,166 L326,165 L324,165 L324,164 L322,164 L322,163 L320,163 L320,162 L319,162 L319,161 L317,161 L317,160 L315,160 L315,159 L313,159 L313,158 L312,158 L312,157 L310,157 L310,156 L308,156 L308,155 L307,155 L307,154 L305,154 L305,153 L303,153 L303,152 L301,152 L301,151 L300,151 L300,150 L298,150 L298,149 L296,149 L296,148 L294,148 L294,147 L293,147 L293,146 L291,146 L291,145 L289,145 L289,144 L287,144 L287,143 L286,143 L286,142 L284,142 L284,141 L282,141 L282,140 L281,140 L281,139 L279,139 L279,138 L277,138 L277,137 L275,137 L275,136 L274,136 L274,135 L272,135 L272,134 L270,134 L270,133 L268,133 L268,132 L267,132 L267,131 L265,131 L265,130 L263,130 L263,129 L262,129 L262,128 L260,128 L260,127 L258,127 L258,126 L257,126 L257,125 L255,125 L255,124 L253,124 L253,123 L251,123 L251,122 L249,122 L249,121 L248,121 L248,120 L246,120 L246,119 L244,119 L244,118 L243,118 L243,117 L241,117 L241,116 L239,116 L239,115 L237,115 L237,114 L236,114 L236,113 L234,113 L234,112 L232,112 L232,111 L230,111 L230,110 L229,110 L229,109 L227,109 L227,108 L225,108 L225,107 L224,107 L224,106 L222,106 L222,105 L220,105 L220,104 L218,104 L218,103 L217,103 L217,102 L215,102 L215,101 L213,101 L213,100 L211,100 L211,99 L210,99 L210,98 L208,98 L208,97 L206,97 L206,96 L204,96 L204,95 L203,95 L203,94 L201,94 L201,93 L199,93 L199,92 L198,92 L198,91 L196,91 L196,90 L194,90 L194,89 L192,89 L192,88 L190,88 L190,87 L189,87 L189,86 L187,86 L187,85 L186,85 L186,84 L184,84 L184,83 L182,83 L182,82 L180,82 L180,81 L179,81 L179,80 L177,80 L177,79 L175,79 L175,78 L173,78 L173,77 L172,77 L172,76 L170,76 L170,75 L168,75 L168,74 L166,74 L166,73 L165,73 L165,72 L163,72 L163,71 L161,71 L161,70 L159,70 L159,69 L158,69 L158,68 L156,68 L156,67 L154,67 L154,66 L153,66 L153,65 L151,65 L151,64 L149,64 L149,63 L147,63 L147,62 L146,62 L146,61 L144,61 L144,60 L142,60 L142,59 L141,59 L141,58 L139,58 L139,57 L137,57 L137,56 L135,56 L135,55 L134,55 L134,54 L132,54 L132,53 L130,53 L130,52 L128,52 L128,51 L127,51 L127,50 L125,50 L125,49 L123,49 L123,48 L121,48 L121,47 L120,47 L120,46 L118,46 L118,45 L116,45 L116,44 L115,44 L115,43 L113,43 L113,42 L111,42 L111,41 L109,41 L109,40 L108,40 L108,39 L106,39 L106,38 L104,38 L104,37 L102,37 L102,36 L101,36 L101,35 L99,35 L99,34 L97,34 L97,33 L95,33 L95,32 L94,32 L94,31 L92,31 L92,30 L90,30 L90,29 L89,29 L89,28 L87,28 L87,27 L85,27 L85,26 L83,26 L83,25 L82,25 L82,24 L80,24 L80,23 L78,23 L78,22 L77,22 L77,21 L75,21 L75,20 L73,20 L73,19 L71,19 L71,18 L70,18 L70,17 L68,17 L68,16 L66,16 L66,15 L64,15 L64,14 L63,14 L63,13 L61,13 L61,12 L59,12 L59,11 L57,11 L57,10 L56,10 L56,9 L54,9 L54,8 L52,8 L52,7 L51,7 L51,6 L49,6 L49,5 L47,5 L47,4 L45,4 Z M3,31 L3,249 L4,249 L4,250 L6,250 L6,251 L7,251 L7,252 L9,252 L9,253 L11,253 L11,254 L13,254 L13,255 L14,255 L14,256 L16,256 L16,257 L18,257 L18,258 L20,258 L20,259 L21,259 L21,260 L23,260 L23,261 L25,261 L25,262 L27,262 L27,263 L28,263 L28,264 L30,264 L30,265 L32,265 L32,266 L33,266 L33,267 L35,267 L35,268 L37,268 L37,269 L38,269 L38,270 L40,270 L40,271 L42,271 L42,272 L44,272 L44,273 L46,273 L46,274 L47,274 L47,275 L49,275 L49,276 L51,276 L51,277 L52,277 L52,278 L54,278 L54,279 L56,279 L56,280 L58,280 L58,281 L59,281 L59,282 L61,282 L61,283 L63,283 L63,284 L65,284 L65,285 L66,285 L66,286 L68,286 L68,287 L70,287 L70,288 L72,288 L72,289 L73,289 L73,290 L75,290 L75,291 L77,291 L77,292 L78,292 L78,293 L80,293 L80,294 L82,294 L82,295 L84,295 L84,296 L85,296 L85,297 L87,297 L87,298 L89,298 L89,299 L90,299 L90,300 L92,300 L92,301 L94,301 L94,302 L96,302 L96,303 L98,303 L98,304 L99,304 L99,305 L101,305 L101,306 L103,306 L103,307 L104,307 L104,308 L106,308 L106,309 L108,309 L108,310 L110,310 L110,311 L111,311 L111,312 L113,312 L113,313 L115,313 L115,314 L117,314 L117,315 L118,315 L118,316 L120,316 L120,317 L122,317 L122,318 L123,318 L123,319 L125,319 L125,320 L127,320 L127,321 L129,321 L129,322 L130,322 L130,323 L132,323 L132,324 L134,324 L134,325 L136,325 L136,326 L137,326 L137,327 L139,327 L139,328 L141,328 L141,329 L143,329 L143,330 L144,330 L144,331 L146,331 L146,332 L148,332 L148,333 L150,333 L150,334 L151,334 L151,335 L153,335 L153,336 L155,336 L155,337 L156,337 L156,338 L158,338 L158,339 L160,339 L160,340 L162,340 L162,341 L163,341 L163,342 L165,342 L165,343 L167,343 L167,344 L168,344 L168,345 L170,345 L170,346 L172,346 L172,347 L174,347 L174,348 L175,348 L175,349 L177,349 L177,350 L179,350 L179,351 L181,351 L181,352 L182,352 L182,353 L184,353 L184,354 L186,354 L186,355 L187,355 L187,356 L189,356 L189,357 L191,357 L191,358 L193,358 L193,359 L194,359 L194,360 L196,360 L196,361 L198,361 L198,362 L200,362 L200,363 L201,363 L201,364 L203,364 L203,365 L205,365 L205,366 L206,366 L206,367 L208,367 L208,368 L210,368 L210,369 L212,369 L212,370 L213,370 L213,371 L215,371 L215,372 L217,372 L217,373 L219,373 L219,374 L220,374 L220,375 L222,375 L222,376 L224,376 L224,377 L226,377 L226,378 L227,378 L227,379 L229,379 L229,380 L231,380 L231,381 L233,381 L233,382 L234,382 L234,383 L236,383 L236,384 L238,384 L238,385 L239,385 L239,386 L241,386 L241,387 L243,387 L243,388 L245,388 L245,389 L246,389 L246,390 L248,390 L248,391 L250,391 L250,392 L251,392 L251,393 L253,393 L253,394 L255,394 L255,395 L257,395 L257,396 L259,396 L259,397 L260,397 L260,398 L262,398 L262,399 L264,399 L264,400 L265,400 L265,401 L267,401 L267,402 L269,402 L269,403 L271,403 L271,404 L272,404 L272,405 L274,405 L274,406 L276,406 L276,407 L278,407 L278,408 L279,408 L279,409 L281,409 L281,410 L283,410 L283,411 L284,411 L284,412 L286,412 L286,413 L288,413 L288,414 L290,414 L290,415 L291,415 L291,416 L293,416 L293,417 L295,417 L295,418 L297,418 L297,419 L298,419 L298,420 L300,420 L300,421 L302,421 L302,422 L304,422 L304,423 L305,423 L305,424 L307,424 L307,425 L309,425 L309,426 L310,426 L310,427 L312,427 L312,428 L314,428 L314,429 L316,429 L316,430 L317,430 L317,431 L319,431 L319,432 L321,432 L321,433 L322,433 L322,434 L324,434 L324,435 L326,435 L326,436 L328,436 L328,437 L329,437 L329,438 L331,438 L331,439 L333,439 L333,440 L335,440 L335,441 L336,441 L336,442 L338,442 L338,443 L340,443 L340,444 L341,444 L341,445 L343,445 L343,446 L345,446 L345,447 L347,447 L347,448 L348,448 L348,449 L350,449 L350,450 L352,450 L352,451 L354,451 L354,452 L356,452 L356,453 L357,453 L357,454 L359,454 L359,455 L361,455 L361,456 L362,456 L362,457 L364,457 L364,458 L366,458 L366,459 L367,459 L367,460 L369,460 L369,461 L371,461 L371,462 L373,462 L373,463 L374,463 L374,464 L376,464 L376,465 L378,465 L378,466 L380,466 L380,467 L381,467 L381,468 L383,468 L383,469 L385,469 L385,470 L387,470 L387,471 L388,471 L388,472 L390,472 L390,473 L392,473 L392,474 L393,474 L393,475 L395,475 L395,476 L397,476 L397,477 L398,477 L398,478 L400,478 L400,479 L402,479 L402,480 L404,480 L404,481 L406,481 L406,482 L407,482 L407,483 L409,483 L409,484 L411,484 L411,485 L413,485 L413,486 L414,486 L414,487 L416,487 L416,488 L418,488 L418,489 L419,489 L419,490 L421,490 L421,491 L423,491 L423,492 L425,492 L425,493 L426,493 L426,494 L428,494 L428,495 L430,495 L430,496 L432,496 L432,497 L433,497 L433,498 L435,498 L435,499 L437,499 L437,500 L438,500 L438,501 L440,501 L440,502 L442,502 L442,503 L444,503 L444,504 L445,504 L445,505 L447,505 L447,506 L449,506 L449,507 L450,507 L450,508 L452,508 L452,509 L454,509 L454,510 L456,510 L456,511 L457,511 L457,512 L459,512 L459,513 L461,513 L461,514 L463,514 L463,515 L464,515 L464,516 L466,516 L466,517 L468,517 L468,518 L470,518 L470,519 L471,519 L471,520 L473,520 L473,521 L475,521 L475,522 L477,522 L477,523 L478,523 L478,524 L480,524 L480,525 L482,525 L482,526 L483,526 L483,527 L485,527 L485,528 L487,528 L487,529 L489,529 L489,530 L490,530 L490,531 L492,531 L492,532 L494,532 L494,533 L496,533 L496,534 L497,534 L497,535 L499,535 L499,536 L501,536 L501,537 L502,537 L502,538 L504,538 L504,539 L506,539 L506,540 L508,540 L508,541 L509,541 L509,542 L510,542 L510,489 L509,489 L509,488 L507,488 L507,487 L505,487 L505,486 L504,486 L504,485 L502,485 L502,484 L500,484 L500,483 L498,483 L498,482 L497,482 L497,481 L495,481 L495,480 L493,480 L493,479 L491,479 L491,478 L490,478 L490,477 L488,477 L488,476 L486,476 L486,475 L485,475 L485,474 L483,474 L483,473 L481,473 L481,472 L479,472 L479,471 L478,471 L478,470 L476,470 L476,469 L474,469 L474,468 L472,468 L472,467 L471,467 L471,466 L469,466 L469,465 L467,465 L467,464 L465,464 L465,463 L464,463 L464,462 L462,462 L462,461 L460,461 L460,460 L459,460 L459,459 L457,459 L457,458 L455,458 L455,457 L454,457 L454,456 L452,456 L452,455 L450,455 L450,454 L448,454 L448,453 L446,453 L446,452 L445,452 L445,451 L443,451 L443,450 L441,450 L441,449 L439,449 L439,448 L438,448 L438,447 L436,447 L436,446 L435,446 L435,445 L433,445 L433,444 L431,444 L431,443 L429,443 L429,442 L428,442 L428,441 L426,441 L426,440 L424,440 L424,439 L422,439 L422,438 L421,438 L421,437 L419,437 L419,436 L417,436 L417,435 L416,435 L416,434 L414,434 L414,433 L412,433 L412,432 L410,432 L410,431 L409,431 L409,430 L407,430 L407,429 L405,429 L405,428 L403,428 L403,427 L402,427 L402,426 L400,426 L400,425 L398,425 L398,424 L396,424 L396,423 L395,423 L395,422 L393,422 L393,421 L391,421 L391,420 L390,420 L390,419 L388,419 L388,418 L386,418 L386,417 L384,417 L384,416 L383,416 L383,415 L381,415 L381,414 L379,414 L379,413 L377,413 L377,412 L376,412 L376,411 L374,411 L374,410 L372,410 L372,409 L370,409 L370,408 L369,408 L369,407 L367,407 L367,406 L365,406 L365,405 L363,405 L363,404 L362,404 L362,403 L360,403 L360,402 L358,402 L358,401 L356,401 L356,400 L355,400 L355,399 L353,399 L353,398 L351,398 L351,397 L350,397 L350,396 L348,396 L348,395 L346,395 L346,394 L344,394 L344,393 L343,393 L343,392 L341,392 L341,391 L339,391 L339,390 L337,390 L337,389 L336,389 L336,388 L334,388 L334,387 L333,387 L333,386 L331,386 L331,385 L329,385 L329,384 L327,384 L327,383 L326,383 L326,382 L324,382 L324,381 L322,381 L322,380 L320,380 L320,379 L319,379 L319,378 L317,378 L317,377 L315,377 L315,376 L313,376 L313,375 L312,375 L312,374 L310,374 L310,373 L308,373 L308,372 L306,372 L306,371 L305,371 L305,370 L303,370 L303,369 L301,369 L301,368 L300,368 L300,367 L298,367 L298,366 L296,366 L296,365 L294,365 L294,364 L293,364 L293,363 L291,363 L291,362 L289,362 L289,361 L287,361 L287,360 L286,360 L286,359 L284,359 L284,358 L282,358 L282,357 L280,357 L280,356 L279,356 L279,355 L277,355 L277,354 L275,354 L275,353 L274,353 L274,352 L272,352 L272,351 L270,351 L270,350 L268,350 L268,349 L267,349 L267,348 L265,348 L265,347 L263,347 L263,346 L262,346 L262,345 L260,345 L260,344 L258,344 L258,343 L256,343 L256,342 L255,342 L255,341 L253,341 L253,340 L251,340 L251,339 L250,339 L250,338 L248,338 L248,337 L246,337 L246,336 L244,336 L244,335 L243,335 L243,334 L241,334 L241,333 L239,333 L239,332 L237,332 L237,331 L236,331 L236,330 L234,330 L234,329 L232,329 L232,328 L230,328 L230,327 L229,327 L229,326 L227,326 L227,325 L225,325 L225,324 L223,324 L223,323 L222,323 L222,322 L220,322 L220,321 L218,321 L218,320 L217,320 L217,319 L215,319 L215,318 L213,318 L213,317 L211,317 L211,316 L210,316 L210,315 L208,315 L208,314 L206,314 L206,313 L204,313 L204,312 L203,312 L203,311 L201,311 L201,310 L199,310 L199,309 L198,309 L198,308 L196,308 L196,307 L194,307 L194,306 L192,306 L192,305 L191,305 L191,304 L189,304 L189,303 L187,303 L187,302 L185,302 L185,301 L183,301 L183,300 L182,300 L182,299 L180,299 L180,298 L178,298 L178,297 L177,297 L177,296 L175,296 L175,295 L173,295 L173,294 L171,294 L171,293 L170,293 L170,292 L168,292 L168,291 L166,291 L166,290 L165,290 L165,289 L163,289 L163,288 L161,288 L161,287 L159,287 L159,286 L158,286 L158,285 L156,285 L156,284 L154,284 L154,283 L153,283 L153,282 L151,282 L151,281 L149,281 L149,280 L147,280 L147,279 L146,279 L146,278 L144,278 L144,277 L142,277 L142,276 L140,276 L140,275 L139,275 L139,274 L137,274 L137,273 L135,273 L135,272 L134,272 L134,271 L132,271 L132,270 L130,270 L130,269 L128,269 L128,268 L127,268 L127,267 L125,267 L125,266 L123,266 L123,265 L121,265 L121,264 L119,264 L119,263 L118,263 L118,262 L116,262 L116,261 L115,261 L115,260 L113,260 L113,259 L111,259 L111,258 L109,258 L109,257 L107,257 L107,256 L106,256 L106,255 L104,255 L104,254 L102,254 L102,253 L101,253 L101,252 L99,252 L99,251 L97,251 L97,250 L95,250 L95,249 L94,249 L94,248 L92,248 L92,247 L90,247 L90,246 L88,246 L88,245 L87,245 L87,244 L85,244 L85,243 L83,243 L83,242 L82,242 L82,241 L80,241 L80,240 L78,240 L78,239 L76,239 L76,238 L75,238 L75,237 L73,237 L73,236 L71,236 L71,235 L69,235 L69,234 L68,234 L68,233 L66,233 L66,232 L64,232 L64,231 L63,231 L63,230 L61,230 L61,229 L59,229 L59,228 L57,228 L57,227 L56,227 L56,226 L54,226 L54,225 L52,225 L52,224 L50,224 L50,223 L49,223 L49,222 L47,222 L47,221 L45,221 L45,106 L46,106 L46,105 L47,105 L47,106 L49,106 L49,107 L50,107 L50,108 L52,108 L52,109 L54,109 L54,110 L56,110 L56,111 L57,111 L57,112 L59,112 L59,113 L61,113 L61,114 L63,114 L63,115 L64,115 L64,116 L66,116 L66,117 L68,117 L68,118 L70,118 L70,119 L71,119 L71,120 L73,120 L73,121 L75,121 L75,122 L77,122 L77,123 L78,123 L78,124 L80,124 L80,125 L82,125 L82,126 L83,126 L83,127 L85,127 L85,128 L87,128 L87,129 L88,129 L88,130 L90,130 L90,131 L92,131 L92,132 L94,132 L94,133 L96,133 L96,134 L97,134 L97,135 L99,135 L99,136 L101,136 L101,137 L102,137 L102,138 L104,138 L104,139 L106,139 L106,140 L108,140 L108,141 L109,141 L109,142 L111,142 L111,143 L113,143 L113,144 L114,144 L114,145 L116,145 L116,146 L118,146 L118,147 L120,147 L120,148 L121,148 L121,149 L123,149 L123,150 L125,150 L125,151 L127,151 L127,152 L128,152 L128,153 L130,153 L130,154 L132,154 L132,155 L134,155 L134,156 L135,156 L135,157 L137,157 L137,158 L139,158 L139,159 L141,159 L141,160 L142,160 L142,161 L144,161 L144,162 L146,162 L146,163 L147,163 L147,164 L149,164 L149,165 L151,165 L151,166 L153,166 L153,167 L154,167 L154,168 L156,168 L156,169 L158,169 L158,170 L160,170 L160,171 L161,171 L161,172 L163,172 L163,173 L165,173 L165,174 L166,174 L166,175 L168,175 L168,176 L170,176 L170,177 L172,177 L172,178 L173,178 L173,179 L175,179 L175,180 L177,180 L177,181 L179,181 L179,182 L180,182 L180,183 L182,183 L182,184 L184,184 L184,185 L186,185 L186,186 L187,186 L187,187 L189,187 L189,188 L191,188 L191,189 L193,189 L193,190 L194,190 L194,191 L196,191 L196,192 L198,192 L198,193 L200,193 L200,194 L201,194 L201,195 L203,195 L203,196 L205,196 L205,197 L206,197 L206,198 L208,198 L208,199 L210,199 L210,200 L212,200 L212,201 L213,201 L213,202 L215,202 L215,203 L217,203 L217,204 L219,204 L219,205 L220,205 L220,206 L222,206 L222,207 L224,207 L224,208 L225,208 L225,209 L227,209 L227,210 L229,210 L229,211 L231,211 L231,212 L232,212 L232,213 L234,213 L234,214 L236,214 L236,215 L238,215 L238,216 L239,216 L239,217 L241,217 L241,218 L243,218 L243,219 L244,219 L244,220 L246,220 L246,221 L248,221 L248,222 L250,222 L250,223 L251,223 L251,224 L253,224 L253,225 L255,225 L255,226 L257,226 L257,227 L258,227 L258,228 L260,228 L260,229 L262,229 L262,230 L264,230 L264,231 L265,231 L265,232 L267,232 L267,233 L269,233 L269,234 L270,234 L270,235 L272,235 L272,236 L274,236 L274,237 L276,237 L276,238 L277,238 L277,239 L279,239 L279,240 L281,240 L281,241 L283,241 L283,242 L284,242 L284,243 L286,243 L286,244 L288,244 L288,245 L289,245 L289,246 L291,246 L291,247 L293,247 L293,248 L295,248 L295,249 L296,249 L296,250 L298,250 L298,251 L300,251 L300,252 L302,252 L302,253 L303,253 L303,254 L305,254 L305,255 L307,255 L307,256 L309,256 L309,257 L310,257 L310,258 L312,258 L312,259 L314,259 L314,260 L316,260 L316,261 L317,261 L317,262 L319,262 L319,263 L321,263 L321,264 L322,264 L322,265 L324,265 L324,266 L326,266 L326,267 L327,267 L327,268 L329,268 L329,269 L331,269 L331,270 L333,270 L333,271 L334,271 L334,272 L336,272 L336,273 L338,273 L338,274 L340,274 L340,275 L341,275 L341,276 L343,276 L343,277 L345,277 L345,278 L347,278 L347,279 L348,279 L348,280 L350,280 L350,281 L352,281 L352,282 L353,282 L353,283 L355,283 L355,284 L357,284 L357,285 L358,285 L358,286 L360,286 L360,287 L362,287 L362,288 L364,288 L364,289 L366,289 L366,290 L367,290 L367,291 L369,291 L369,292 L371,292 L371,293 L373,293 L373,294 L374,294 L374,295 L376,295 L376,296 L378,296 L378,297 L379,297 L379,298 L381,298 L381,299 L383,299 L383,300 L384,300 L384,301 L386,301 L386,302 L388,302 L388,303 L390,303 L390,304 L391,304 L391,305 L393,305 L393,306 L395,306 L395,307 L397,307 L397,308 L398,308 L398,309 L400,309 L400,310 L402,310 L402,311 L404,311 L404,312 L405,312 L405,313 L407,313 L407,314 L409,314 L409,315 L410,315 L410,316 L412,316 L412,317 L414,317 L414,318 L416,318 L416,319 L417,319 L417,320 L419,320 L419,321 L421,321 L421,322 L423,322 L423,323 L424,323 L424,324 L426,324 L426,325 L428,325 L428,326 L430,326 L430,327 L431,327 L431,328 L433,328 L433,329 L435,329 L435,330 L436,330 L436,331 L438,331 L438,332 L440,332 L440,333 L442,333 L442,334 L443,334 L443,335 L445,335 L445,336 L447,336 L447,337 L449,337 L449,338 L450,338 L450,339 L452,339 L452,340 L454,340 L454,341 L455,341 L455,342 L457,342 L457,343 L459,343 L459,344 L461,344 L461,345 L462,345 L462,346 L464,346 L464,347 L466,347 L466,348 L468,348 L468,349 L469,349 L469,350 L471,350 L471,351 L473,351 L473,352 L474,352 L474,353 L476,353 L476,354 L478,354 L478,355 L480,355 L480,356 L481,356 L481,357 L483,357 L483,358 L485,358 L485,359 L486,359 L486,360 L488,360 L488,361 L490,361 L490,362 L492,362 L492,363 L493,363 L493,364 L495,364 L495,365 L497,365 L497,366 L499,366 L499,367 L500,367 L500,368 L502,368 L502,369 L504,369 L504,370 L505,370 L505,371 L507,371 L507,372 L509,372 L509,373 L511,373 L511,374 L512,374 L512,375 L514,375 L514,376 L516,376 L516,377 L518,377 L518,378 L519,378 L519,379 L521,379 L521,380 L523,380 L523,381 L525,381 L525,382 L526,382 L526,383 L528,383 L528,384 L530,384 L530,385 L531,385 L531,386 L533,386 L533,387 L535,387 L535,388 L537,388 L537,389 L538,389 L538,390 L540,390 L540,391 L542,391 L542,392 L544,392 L544,393 L545,393 L545,394 L547,394 L547,395 L549,395 L549,396 L550,396 L550,397 L552,397 L552,398 L554,398 L554,399 L556,399 L556,400 L557,400 L557,401 L561,401 L561,400 L563,400 L563,399 L565,399 L565,398 L566,398 L566,397 L568,397 L568,396 L570,396 L570,395 L571,395 L571,394 L573,394 L573,393 L575,393 L575,392 L577,392 L577,391 L578,391 L578,390 L580,390 L580,389 L582,389 L582,388 L583,388 L583,387 L585,387 L585,386 L587,386 L587,385 L589,385 L589,384 L590,384 L590,383 L592,383 L592,382 L594,382 L594,381 L595,381 L595,380 L597,380 L597,379 L599,379 L599,378 L601,378 L601,376 L599,376 L599,375 L598,375 L598,374 L596,374 L596,373 L594,373 L594,372 L592,372 L592,371 L591,371 L591,370 L589,370 L589,369 L587,369 L587,368 L585,368 L585,367 L584,367 L584,366 L582,366 L582,365 L580,365 L580,364 L579,364 L579,363 L577,363 L577,362 L575,362 L575,361 L573,361 L573,360 L572,360 L572,359 L570,359 L570,358 L568,358 L568,357 L567,357 L567,356 L565,356 L565,355 L563,355 L563,354 L561,354 L561,353 L559,353 L559,352 L558,352 L558,351 L556,351 L556,350 L554,350 L554,349 L553,349 L553,348 L551,348 L551,347 L549,347 L549,346 L547,346 L547,345 L546,345 L546,344 L544,344 L544,343 L542,343 L542,342 L540,342 L540,341 L539,341 L539,340 L537,340 L537,339 L535,339 L535,338 L534,338 L534,337 L532,337 L532,336 L530,336 L530,335 L528,335 L528,334 L527,334 L527,333 L525,333 L525,332 L523,332 L523,331 L521,331 L521,330 L520,330 L520,329 L518,329 L518,328 L516,328 L516,327 L515,327 L515,326 L513,326 L513,325 L511,325 L511,324 L509,324 L509,323 L508,323 L508,322 L506,322 L506,321 L504,321 L504,320 L502,320 L502,319 L501,319 L501,318 L499,318 L499,317 L497,317 L497,316 L496,316 L496,315 L494,315 L494,314 L492,314 L492,313 L490,313 L490,312 L489,312 L489,311 L487,311 L487,310 L485,310 L485,309 L483,309 L483,308 L482,308 L482,307 L480,307 L480,306 L478,306 L478,305 L476,305 L476,304 L475,304 L475,303 L473,303 L473,302 L471,302 L471,301 L469,301 L469,300 L468,300 L468,299 L466,299 L466,298 L464,298 L464,297 L463,297 L463,296 L461,296 L461,295 L459,295 L459,294 L458,294 L458,293 L456,293 L456,292 L454,292 L454,291 L452,291 L452,290 L450,290 L450,289 L449,289 L449,288 L447,288 L447,287 L445,287 L445,286 L444,286 L444,285 L442,285 L442,284 L440,284 L440,283 L438,283 L438,282 L437,282 L437,281 L435,281 L435,280 L433,280 L433,279 L431,279 L431,278 L430,278 L430,277 L428,277 L428,276 L426,276 L426,275 L425,275 L425,274 L423,274 L423,273 L421,273 L421,272 L419,272 L419,271 L418,271 L418,270 L416,270 L416,269 L414,269 L414,268 L412,268 L412,267 L411,267 L411,266 L409,266 L409,265 L407,265 L407,264 L406,264 L406,263 L404,263 L404,262 L402,262 L402,261 L400,261 L400,260 L399,260 L399,259 L397,259 L397,258 L395,258 L395,257 L393,257 L393,256 L392,256 L392,255 L390,255 L390,254 L388,254 L388,253 L386,253 L386,252 L385,252 L385,251 L383,251 L383,250 L381,250 L381,249 L379,249 L379,248 L378,248 L378,247 L376,247 L376,246 L374,246 L374,245 L372,245 L372,244 L371,244 L371,243 L369,243 L369,242 L367,242 L367,241 L366,241 L366,240 L364,240 L364,239 L362,239 L362,238 L361,238 L361,237 L359,237 L359,236 L357,236 L357,235 L355,235 L355,234 L354,234 L354,233 L352,233 L352,232 L350,232 L350,231 L348,231 L348,230 L347,230 L347,229 L345,229 L345,228 L343,228 L343,227 L341,227 L341,226 L340,226 L340,225 L338,225 L338,224 L336,224 L336,223 L334,223 L334,222 L333,222 L333,221 L331,221 L331,220 L329,220 L329,219 L328,219 L328,218 L326,218 L326,217 L324,217 L324,216 L322,216 L322,215 L321,215 L321,214 L319,214 L319,213 L317,213 L317,212 L315,212 L315,211 L314,211 L314,210 L312,210 L312,209 L310,209 L310,208 L308,208 L308,207 L307,207 L307,206 L305,206 L305,205 L303,205 L303,204 L302,204 L302,203 L300,203 L300,202 L298,202 L298,201 L296,201 L296,200 L295,200 L295,199 L293,199 L293,198 L291,198 L291,197 L290,197 L290,196 L288,196 L288,195 L286,195 L286,194 L284,194 L284,193 L283,193 L283,192 L281,192 L281,191 L279,191 L279,190 L278,190 L278,189 L276,189 L276,188 L274,188 L274,187 L272,187 L272,186 L270,186 L270,185 L269,185 L269,184 L267,184 L267,183 L265,183 L265,182 L263,182 L263,181 L262,181 L262,180 L260,180 L260,179 L258,179 L258,178 L257,178 L257,177 L255,177 L255,176 L253,176 L253,175 L251,175 L251,174 L250,174 L250,173 L248,173 L248,172 L246,172 L246,171 L245,171 L245,170 L243,170 L243,169 L241,169 L241,168 L239,168 L239,167 L238,167 L238,166 L236,166 L236,165 L234,165 L234,164 L232,164 L232,163 L231,163 L231,162 L229,162 L229,161 L227,161 L227,160 L225,160 L225,159 L224,159 L224,158 L222,158 L222,157 L220,157 L220,156 L219,156 L219,155 L217,155 L217,154 L215,154 L215,153 L214,153 L214,152 L212,152 L212,151 L210,151 L210,150 L208,150 L208,149 L206,149 L206,148 L205,148 L205,147 L203,147 L203,146 L201,146 L201,145 L199,145 L199,144 L198,144 L198,143 L196,143 L196,142 L194,142 L194,141 L193,141 L193,140 L191,140 L191,139 L189,139 L189,138 L188,138 L188,137 L186,137 L186,136 L184,136 L184,135 L182,135 L182,134 L180,134 L180,133 L179,133 L179,132 L177,132 L177,131 L175,131 L175,130 L174,130 L174,129 L172,129 L172,128 L170,128 L170,127 L168,127 L168,126 L167,126 L167,125 L165,125 L165,124 L163,124 L163,123 L162,123 L162,122 L160,122 L160,121 L158,121 L158,120 L156,120 L156,119 L155,119 L155,118 L153,118 L153,117 L151,117 L151,116 L149,116 L149,115 L148,115 L148,114 L146,114 L146,113 L144,113 L144,112 L142,112 L142,111 L141,111 L141,110 L139,110 L139,109 L137,109 L137,108 L136,108 L136,107 L134,107 L134,106 L132,106 L132,105 L130,105 L130,104 L129,104 L129,103 L127,103 L127,102 L125,102 L125,101 L123,101 L123,100 L122,100 L122,99 L120,99 L120,98 L118,98 L118,97 L116,97 L116,96 L115,96 L115,95 L113,95 L113,94 L111,94 L111,93 L110,93 L110,92 L108,92 L108,91 L106,91 L106,90 L104,90 L104,89 L103,89 L103,88 L101,88 L101,87 L99,87 L99,86 L98,86 L98,85 L96,85 L96,84 L94,84 L94,83 L92,83 L92,82 L91,82 L91,81 L89,81 L89,80 L87,80 L87,79 L86,79 L86,78 L84,78 L84,77 L82,77 L82,76 L80,76 L80,75 L79,75 L79,74 L77,74 L77,73 L75,73 L75,72 L73,72 L73,71 L72,71 L72,70 L70,70 L70,69 L68,69 L68,68 L66,68 L66,67 L65,67 L65,66 L63,66 L63,65 L61,65 L61,64 L59,64 L59,63 L58,63 L58,62 L56,62 L56,61 L54,61 L54,60 L52,60 L52,59 L51,59 L51,58 L49,58 L49,57 L47,57 L47,56 L46,56 L46,55 L44,55 L44,54 L42,54 L42,53 L40,53 L40,52 L39,52 L39,51 L37,51 L37,50 L35,50 L35,49 L34,49 L34,48 L32,48 L32,47 L30,47 L30,46 L28,46 L28,45 L26,45 L26,44 L25,44 L25,43 L23,43 L23,42 L21,42 L21,41 L20,41 L20,40 L18,40 L18,39 L16,39 L16,38 L14,38 L14,37 L13,37 L13,36 L11,36 L11,35 L9,35 L9,34 L8,34 L8,33 L6,33 L6,32 L4,32 L4,31 L3,31 Z M48,111 L48,112 L49,112 L49,113 L48,113 L48,115 L49,115 L49,116 L48,116 L48,117 L49,117 L49,119 L48,119 L48,208 L49,208 L49,209 L48,209 L48,210 L49,210 L49,211 L48,211 L48,213 L49,213 L49,214 L48,214 L48,215 L50,215 L50,214 L52,214 L52,213 L53,213 L53,212 L55,212 L55,211 L57,211 L57,210 L58,210 L58,209 L60,209 L60,208 L61,208 L61,207 L63,207 L63,206 L64,206 L64,205 L66,205 L66,204 L68,204 L68,203 L69,203 L69,202 L71,202 L71,201 L72,201 L72,200 L74,200 L74,199 L76,199 L76,198 L77,198 L77,197 L79,197 L79,196 L80,196 L80,195 L82,195 L82,194 L83,194 L83,193 L85,193 L85,192 L87,192 L87,191 L88,191 L88,190 L90,190 L90,134 L88,134 L88,133 L86,133 L86,132 L85,132 L85,131 L83,131 L83,130 L81,130 L81,129 L79,129 L79,128 L78,128 L78,127 L76,127 L76,126 L74,126 L74,125 L72,125 L72,124 L71,124 L71,123 L69,123 L69,122 L67,122 L67,121 L66,121 L66,120 L64,120 L64,119 L62,119 L62,118 L60,118 L60,117 L59,117 L59,116 L57,116 L57,115 L55,115 L55,114 L54,114 L54,113 L52,113 L52,112 L50,112 L50,111 L48,111 Z M94,137 L94,190 L96,190 L96,191 L97,191 L97,192 L99,192 L99,193 L101,193 L101,194 L102,194 L102,195 L104,195 L104,196 L106,196 L106,197 L108,197 L108,198 L110,198 L110,199 L111,199 L111,200 L113,200 L113,201 L115,201 L115,202 L116,202 L116,203 L118,203 L118,204 L120,204 L120,205 L121,205 L121,206 L123,206 L123,207 L125,207 L125,208 L127,208 L127,209 L128,209 L128,210 L130,210 L130,211 L132,211 L132,212 L134,212 L134,213 L135,213 L135,214 L137,214 L137,215 L139,215 L139,216 L141,216 L141,217 L142,217 L142,218 L144,218 L144,219 L146,219 L146,220 L147,220 L147,221 L149,221 L149,222 L151,222 L151,223 L153,223 L153,224 L154,224 L154,225 L156,225 L156,226 L158,226 L158,227 L160,227 L160,228 L161,228 L161,229 L163,229 L163,230 L165,230 L165,231 L167,231 L167,232 L168,232 L168,233 L170,233 L170,234 L172,234 L172,235 L173,235 L173,236 L175,236 L175,237 L177,237 L177,238 L179,238 L179,239 L180,239 L180,240 L182,240 L182,241 L184,241 L184,242 L186,242 L186,243 L187,243 L187,244 L189,244 L189,245 L191,245 L191,246 L193,246 L193,247 L194,247 L194,248 L196,248 L196,249 L198,249 L198,250 L199,250 L199,251 L201,251 L201,252 L203,252 L203,253 L205,253 L205,254 L206,254 L206,255 L208,255 L208,256 L210,256 L210,257 L212,257 L212,258 L213,258 L213,259 L215,259 L215,260 L217,260 L217,261 L218,261 L218,262 L220,262 L220,263 L222,263 L222,264 L224,264 L224,265 L225,265 L225,266 L227,266 L227,267 L229,267 L229,268 L231,268 L231,269 L232,269 L232,270 L234,270 L234,271 L236,271 L236,272 L238,272 L238,273 L239,273 L239,274 L241,274 L241,275 L243,275 L243,276 L245,276 L245,277 L246,277 L246,278 L248,278 L248,279 L250,279 L250,280 L251,280 L251,281 L253,281 L253,282 L255,282 L255,283 L257,283 L257,284 L258,284 L258,285 L260,285 L260,286 L262,286 L262,287 L263,287 L263,288 L265,288 L265,289 L267,289 L267,290 L269,290 L269,291 L270,291 L270,292 L272,292 L272,293 L274,293 L274,294 L276,294 L276,295 L277,295 L277,296 L279,296 L279,297 L281,297 L281,298 L283,298 L283,299 L284,299 L284,300 L286,300 L286,301 L288,301 L288,302 L289,302 L289,303 L291,303 L291,304 L293,304 L293,305 L295,305 L295,306 L297,306 L297,307 L298,307 L298,308 L300,308 L300,309 L302,309 L302,310 L303,310 L303,311 L305,311 L305,312 L307,312 L307,313 L309,313 L309,314 L310,314 L310,315 L312,315 L312,316 L314,316 L314,317 L315,317 L315,318 L317,318 L317,319 L319,319 L319,320 L321,320 L321,321 L323,321 L323,322 L324,322 L324,323 L326,323 L326,324 L328,324 L328,325 L329,325 L329,326 L331,326 L331,327 L333,327 L333,328 L335,328 L335,329 L336,329 L336,330 L338,330 L338,331 L340,331 L340,332 L341,332 L341,333 L343,333 L343,334 L345,334 L345,335 L347,335 L347,336 L349,336 L349,337 L350,337 L350,338 L352,338 L352,339 L354,339 L354,340 L355,340 L355,341 L357,341 L357,342 L359,342 L359,343 L360,343 L360,344 L362,344 L362,345 L364,345 L364,346 L366,346 L366,347 L367,347 L367,348 L369,348 L369,349 L371,349 L371,350 L373,350 L373,351 L374,351 L374,352 L376,352 L376,353 L378,353 L378,354 L380,354 L380,355 L382,355 L382,356 L383,356 L383,357 L385,357 L385,358 L387,358 L387,359 L388,359 L388,360 L390,360 L390,361 L392,361 L392,362 L394,362 L394,363 L395,363 L395,364 L397,364 L397,365 L399,365 L399,366 L401,366 L401,367 L402,367 L402,368 L404,368 L404,369 L406,369 L406,370 L407,370 L407,371 L409,371 L409,372 L411,372 L411,373 L413,373 L413,374 L414,374 L414,375 L416,375 L416,376 L418,376 L418,377 L419,377 L419,378 L421,378 L421,379 L423,379 L423,380 L425,380 L425,381 L427,381 L427,382 L428,382 L428,383 L430,383 L430,384 L432,384 L432,385 L433,385 L433,386 L435,386 L435,387 L437,387 L437,388 L439,388 L439,389 L440,389 L440,390 L442,390 L442,391 L444,391 L444,392 L446,392 L446,393 L447,393 L447,394 L449,394 L449,395 L451,395 L451,396 L453,396 L453,397 L454,397 L454,398 L456,398 L456,399 L458,399 L458,400 L459,400 L459,401 L461,401 L461,402 L463,402 L463,403 L464,403 L464,404 L466,404 L466,405 L468,405 L468,406 L470,406 L470,407 L472,407 L472,408 L473,408 L473,409 L475,409 L475,410 L477,410 L477,411 L478,411 L478,412 L480,412 L480,413 L482,413 L482,414 L484,414 L484,415 L485,415 L485,416 L487,416 L487,417 L489,417 L489,418 L491,418 L491,419 L492,419 L492,420 L494,420 L494,421 L496,421 L496,422 L497,422 L497,423 L499,423 L499,424 L501,424 L501,425 L503,425 L503,426 L504,426 L504,427 L506,427 L506,428 L508,428 L508,429 L510,429 L510,430 L511,430 L511,431 L513,431 L513,432 L515,432 L515,433 L517,433 L517,434 L518,434 L518,435 L520,435 L520,436 L522,436 L522,437 L524,437 L524,438 L525,438 L525,439 L527,439 L527,440 L529,440 L529,441 L530,441 L530,442 L532,442 L532,443 L534,443 L534,444 L536,444 L536,445 L537,445 L537,446 L539,446 L539,447 L541,447 L541,448 L542,448 L542,449 L544,449 L544,450 L546,450 L546,451 L548,451 L548,452 L549,452 L549,453 L551,453 L551,454 L553,454 L553,455 L555,455 L555,456 L556,456 L556,457 L558,457 L558,456 L557,456 L557,454 L558,454 L558,453 L557,453 L557,451 L558,451 L558,450 L557,450 L557,449 L558,449 L558,448 L557,448 L557,406 L558,406 L558,405 L557,405 L557,404 L556,404 L556,403 L554,403 L554,402 L552,402 L552,401 L550,401 L550,400 L549,400 L549,399 L547,399 L547,398 L545,398 L545,397 L544,397 L544,396 L542,396 L542,395 L540,395 L540,394 L538,394 L538,393 L537,393 L537,392 L535,392 L535,391 L533,391 L533,390 L532,390 L532,389 L530,389 L530,388 L528,388 L528,387 L526,387 L526,386 L524,386 L524,385 L523,385 L523,384 L521,384 L521,383 L519,383 L519,382 L518,382 L518,381 L516,381 L516,380 L514,380 L514,379 L512,379 L512,378 L511,378 L511,377 L509,377 L509,376 L507,376 L507,375 L506,375 L506,374 L504,374 L504,373 L502,373 L502,372 L500,372 L500,371 L499,371 L499,370 L497,370 L497,369 L495,369 L495,368 L494,368 L494,367 L492,367 L492,366 L490,366 L490,365 L488,365 L488,364 L486,364 L486,363 L485,363 L485,362 L483,362 L483,361 L481,361 L481,360 L479,360 L479,359 L478,359 L478,358 L476,358 L476,357 L474,357 L474,356 L473,356 L473,355 L471,355 L471,354 L469,354 L469,353 L467,353 L467,352 L466,352 L466,351 L464,351 L464,350 L462,350 L462,349 L460,349 L460,348 L459,348 L459,347 L457,347 L457,346 L455,346 L455,345 L454,345 L454,344 L452,344 L452,343 L450,343 L450,342 L448,342 L448,341 L447,341 L447,340 L445,340 L445,339 L443,339 L443,338 L442,338 L442,337 L440,337 L440,336 L438,336 L438,335 L436,335 L436,334 L435,334 L435,333 L433,333 L433,332 L431,332 L431,331 L429,331 L429,330 L428,330 L428,329 L426,329 L426,328 L424,328 L424,327 L422,327 L422,326 L421,326 L421,325 L419,325 L419,324 L417,324 L417,323 L416,323 L416,322 L414,322 L414,321 L412,321 L412,320 L410,320 L410,319 L409,319 L409,318 L407,318 L407,317 L405,317 L405,316 L404,316 L404,315 L402,315 L402,314 L400,314 L400,313 L398,313 L398,312 L397,312 L397,311 L395,311 L395,310 L393,310 L393,309 L391,309 L391,308 L390,308 L390,307 L388,307 L388,306 L386,306 L386,305 L385,305 L385,304 L383,304 L383,303 L381,303 L381,302 L379,302 L379,301 L378,301 L378,300 L376,300 L376,299 L374,299 L374,298 L372,298 L372,297 L371,297 L371,296 L369,296 L369,295 L367,295 L367,294 L366,294 L366,293 L364,293 L364,292 L362,292 L362,291 L360,291 L360,290 L359,290 L359,289 L357,289 L357,288 L355,288 L355,287 L353,287 L353,286 L352,286 L352,285 L350,285 L350,284 L348,284 L348,283 L347,283 L347,282 L345,282 L345,281 L343,281 L343,280 L341,280 L341,279 L340,279 L340,278 L338,278 L338,277 L336,277 L336,276 L334,276 L334,275 L333,275 L333,274 L331,274 L331,273 L329,273 L329,272 L327,272 L327,271 L326,271 L326,270 L324,270 L324,269 L322,269 L322,268 L321,268 L321,267 L319,267 L319,266 L317,266 L317,265 L315,265 L315,264 L314,264 L314,263 L312,263 L312,262 L310,262 L310,261 L308,261 L308,260 L307,260 L307,259 L305,259 L305,258 L303,258 L303,257 L302,257 L302,256 L300,256 L300,255 L298,255 L298,254 L296,254 L296,253 L295,253 L295,252 L293,252 L293,251 L291,251 L291,250 L289,250 L289,249 L288,249 L288,248 L286,248 L286,247 L284,247 L284,246 L283,246 L283,245 L281,245 L281,244 L279,244 L279,243 L277,243 L277,242 L276,242 L276,241 L274,241 L274,240 L272,240 L272,239 L270,239 L270,238 L269,238 L269,237 L267,237 L267,236 L265,236 L265,235 L264,235 L264,234 L262,234 L262,233 L260,233 L260,232 L258,232 L258,231 L257,231 L257,230 L255,230 L255,229 L253,229 L253,228 L252,228 L252,227 L250,227 L250,226 L248,226 L248,225 L246,225 L246,224 L245,224 L245,223 L243,223 L243,222 L241,222 L241,221 L239,221 L239,220 L238,220 L238,219 L236,219 L236,218 L234,218 L234,217 L233,217 L233,216 L231,216 L231,215 L229,215 L229,214 L227,214 L227,213 L225,213 L225,212 L224,212 L224,211 L222,211 L222,210 L220,210 L220,209 L219,209 L219,208 L217,208 L217,207 L215,207 L215,206 L213,206 L213,205 L212,205 L212,204 L210,204 L210,203 L208,203 L208,202 L207,202 L207,201 L205,201 L205,200 L203,200 L203,199 L201,199 L201,198 L200,198 L200,197 L198,197 L198,196 L196,196 L196,195 L194,195 L194,194 L193,194 L193,193 L191,193 L191,192 L189,192 L189,191 L187,191 L187,190 L186,190 L186,189 L184,189 L184,188 L182,188 L182,187 L181,187 L181,186 L179,186 L179,185 L177,185 L177,184 L175,184 L175,183 L174,183 L174,182 L172,182 L172,181 L170,181 L170,180 L168,180 L168,179 L167,179 L167,178 L165,178 L165,177 L163,177 L163,176 L161,176 L161,175 L160,175 L160,174 L158,174 L158,173 L156,173 L156,172 L155,172 L155,171 L153,171 L153,170 L151,170 L151,169 L149,169 L149,168 L147,168 L147,167 L146,167 L146,166 L144,166 L144,165 L142,165 L142,164 L141,164 L141,163 L139,163 L139,162 L137,162 L137,161 L135,161 L135,160 L134,160 L134,159 L132,159 L132,158 L130,158 L130,157 L129,157 L129,156 L127,156 L127,155 L125,155 L125,154 L123,154 L123,153 L122,153 L122,152 L120,152 L120,151 L118,151 L118,150 L116,150 L116,149 L115,149 L115,148 L113,148 L113,147 L111,147 L111,146 L109,146 L109,145 L108,145 L108,144 L106,144 L106,143 L104,143 L104,142 L103,142 L103,141 L101,141 L101,140 L99,140 L99,139 L97,139 L97,138 L96,138 L96,137 L94,137 Z M90,193 L90,194 L89,194 L89,195 L87,195 L87,196 L86,196 L86,197 L84,197 L84,198 L82,198 L82,199 L81,199 L81,200 L79,200 L79,201 L78,201 L78,202 L76,202 L76,203 L74,203 L74,204 L73,204 L73,205 L71,205 L71,206 L70,206 L70,207 L68,207 L68,208 L66,208 L66,209 L65,209 L65,210 L63,210 L63,211 L62,211 L62,212 L60,212 L60,213 L58,213 L58,214 L57,214 L57,215 L55,215 L55,216 L54,216 L54,217 L52,217 L52,218 L50,218 L50,220 L52,220 L52,221 L54,221 L54,222 L56,222 L56,223 L57,223 L57,224 L59,224 L59,225 L61,225 L61,226 L63,226 L63,227 L64,227 L64,228 L66,228 L66,229 L68,229 L68,230 L69,230 L69,231 L71,231 L71,232 L73,232 L73,233 L75,233 L75,234 L76,234 L76,235 L78,235 L78,236 L80,236 L80,237 L82,237 L82,238 L83,238 L83,239 L85,239 L85,240 L87,240 L87,241 L89,241 L89,242 L90,242 L90,243 L92,243 L92,244 L94,244 L94,245 L95,245 L95,246 L97,246 L97,247 L99,247 L99,248 L101,248 L101,249 L102,249 L102,250 L104,250 L104,251 L106,251 L106,252 L107,252 L107,253 L109,253 L109,254 L111,254 L111,255 L113,255 L113,256 L114,256 L114,257 L116,257 L116,258 L118,258 L118,259 L120,259 L120,260 L121,260 L121,261 L123,261 L123,262 L125,262 L125,263 L126,263 L126,264 L128,264 L128,265 L130,265 L130,266 L132,266 L132,267 L133,267 L133,268 L135,268 L135,269 L137,269 L137,270 L139,270 L139,271 L140,271 L140,272 L142,272 L142,273 L144,273 L144,274 L146,274 L146,275 L147,275 L147,276 L149,276 L149,277 L151,277 L151,278 L153,278 L153,279 L154,279 L154,280 L156,280 L156,281 L158,281 L158,282 L159,282 L159,283 L161,283 L161,284 L163,284 L163,285 L165,285 L165,286 L166,286 L166,287 L168,287 L168,288 L170,288 L170,289 L172,289 L172,290 L173,290 L173,291 L175,291 L175,292 L177,292 L177,293 L179,293 L179,294 L180,294 L180,295 L182,295 L182,296 L184,296 L184,297 L185,297 L185,298 L187,298 L187,299 L189,299 L189,300 L191,300 L191,301 L192,301 L192,302 L194,302 L194,303 L196,303 L196,304 L198,304 L198,305 L199,305 L199,306 L201,306 L201,307 L203,307 L203,308 L204,308 L204,309 L206,309 L206,310 L208,310 L208,311 L210,311 L210,312 L211,312 L211,313 L213,313 L213,314 L215,314 L215,315 L216,315 L216,316 L218,316 L218,317 L220,317 L220,318 L222,318 L222,319 L223,319 L223,320 L225,320 L225,321 L227,321 L227,322 L229,322 L229,323 L230,323 L230,324 L232,324 L232,325 L234,325 L234,326 L236,326 L236,327 L237,327 L237,328 L239,328 L239,329 L241,329 L241,330 L242,330 L242,331 L244,331 L244,332 L246,332 L246,333 L248,333 L248,334 L249,334 L249,335 L251,335 L251,336 L253,336 L253,337 L255,337 L255,338 L256,338 L256,339 L258,339 L258,340 L260,340 L260,341 L261,341 L261,342 L263,342 L263,343 L265,343 L265,344 L267,344 L267,345 L268,345 L268,346 L270,346 L270,347 L272,347 L272,348 L274,348 L274,349 L275,349 L275,350 L277,350 L277,351 L279,351 L279,352 L280,352 L280,353 L282,353 L282,354 L284,354 L284,355 L286,355 L286,356 L287,356 L287,357 L289,357 L289,358 L291,358 L291,359 L293,359 L293,360 L294,360 L294,361 L296,361 L296,362 L298,362 L298,363 L300,363 L300,364 L301,364 L301,365 L303,365 L303,366 L305,366 L305,367 L306,367 L306,368 L308,368 L308,369 L310,369 L310,370 L312,370 L312,371 L313,371 L313,372 L315,372 L315,373 L317,373 L317,374 L318,374 L318,375 L320,375 L320,376 L322,376 L322,377 L324,377 L324,378 L326,378 L326,379 L327,379 L327,380 L329,380 L329,381 L331,381 L331,382 L332,382 L332,383 L334,383 L334,384 L336,384 L336,385 L337,385 L337,386 L339,386 L339,387 L341,387 L341,388 L343,388 L343,389 L344,389 L344,390 L346,390 L346,391 L348,391 L348,392 L350,392 L350,393 L352,393 L352,394 L353,394 L353,395 L355,395 L355,396 L357,396 L357,397 L358,397 L358,398 L360,398 L360,399 L362,399 L362,400 L363,400 L363,401 L365,401 L365,402 L367,402 L367,403 L369,403 L369,404 L370,404 L370,405 L372,405 L372,406 L374,406 L374,407 L376,407 L376,408 L377,408 L377,409 L379,409 L379,410 L381,410 L381,411 L383,411 L383,412 L384,412 L384,413 L386,413 L386,414 L388,414 L388,415 L389,415 L389,416 L391,416 L391,417 L393,417 L393,418 L395,418 L395,419 L396,419 L396,420 L398,420 L398,421 L400,421 L400,422 L402,422 L402,423 L403,423 L403,424 L405,424 L405,425 L407,425 L407,426 L409,426 L409,427 L410,427 L410,428 L412,428 L412,429 L414,429 L414,430 L415,430 L415,431 L417,431 L417,432 L419,432 L419,433 L421,433 L421,434 L422,434 L422,435 L424,435 L424,436 L426,436 L426,437 L427,437 L427,438 L429,438 L429,439 L431,439 L431,440 L433,440 L433,441 L434,441 L434,442 L436,442 L436,443 L438,443 L438,444 L440,444 L440,445 L441,445 L441,446 L443,446 L443,447 L445,447 L445,448 L446,448 L446,449 L448,449 L448,450 L450,450 L450,451 L452,451 L452,452 L453,452 L453,453 L455,453 L455,454 L457,454 L457,455 L459,455 L459,456 L460,456 L460,457 L462,457 L462,458 L464,458 L464,459 L465,459 L465,460 L467,460 L467,461 L469,461 L469,462 L471,462 L471,463 L472,463 L472,464 L474,464 L474,465 L476,465 L476,466 L478,466 L478,467 L479,467 L479,468 L481,468 L481,469 L483,469 L483,470 L485,470 L485,471 L486,471 L486,472 L488,472 L488,473 L490,473 L490,474 L491,474 L491,475 L493,475 L493,476 L495,476 L495,477 L497,477 L497,478 L498,478 L498,479 L500,479 L500,480 L502,480 L502,481 L504,481 L504,482 L505,482 L505,483 L507,483 L507,484 L509,484 L509,485 L510,485 L510,486 L513,486 L513,485 L515,485 L515,484 L517,484 L517,483 L518,483 L518,482 L520,482 L520,481 L522,481 L522,480 L523,480 L523,479 L525,479 L525,478 L527,478 L527,477 L529,477 L529,476 L530,476 L530,475 L532,475 L532,474 L533,474 L533,473 L535,473 L535,472 L537,472 L537,471 L539,471 L539,470 L540,470 L540,469 L542,469 L542,468 L544,468 L544,467 L545,467 L545,466 L547,466 L547,465 L549,465 L549,464 L551,464 L551,463 L552,463 L552,462 L554,462 L554,461 L555,461 L555,459 L553,459 L553,458 L551,458 L551,457 L550,457 L550,456 L548,456 L548,455 L546,455 L546,454 L544,454 L544,453 L542,453 L542,452 L541,452 L541,451 L539,451 L539,450 L537,450 L537,449 L535,449 L535,448 L534,448 L534,447 L532,447 L532,446 L530,446 L530,445 L529,445 L529,444 L527,444 L527,443 L525,443 L525,442 L523,442 L523,441 L522,441 L522,440 L520,440 L520,439 L518,439 L518,438 L517,438 L517,437 L515,437 L515,436 L513,436 L513,435 L511,435 L511,434 L510,434 L510,433 L508,433 L508,432 L506,432 L506,431 L504,431 L504,430 L503,430 L503,429 L501,429 L501,428 L499,428 L499,427 L498,427 L498,426 L496,426 L496,425 L494,425 L494,424 L492,424 L492,423 L491,423 L491,422 L489,422 L489,421 L487,421 L487,420 L485,420 L485,419 L484,419 L484,418 L482,418 L482,417 L480,417 L480,416 L478,416 L478,415 L477,415 L477,414 L475,414 L475,413 L473,413 L473,412 L472,412 L472,411 L470,411 L470,410 L468,410 L468,409 L466,409 L466,408 L465,408 L465,407 L463,407 L463,406 L461,406 L461,405 L459,405 L459,404 L458,404 L458,403 L456,403 L456,402 L454,402 L454,401 L452,401 L452,400 L451,400 L451,399 L449,399 L449,398 L447,398 L447,397 L446,397 L446,396 L444,396 L444,395 L442,395 L442,394 L440,394 L440,393 L439,393 L439,392 L437,392 L437,391 L435,391 L435,390 L433,390 L433,389 L432,389 L432,388 L430,388 L430,387 L428,387 L428,386 L426,386 L426,385 L425,385 L425,384 L423,384 L423,383 L421,383 L421,382 L420,382 L420,381 L418,381 L418,380 L416,380 L416,379 L414,379 L414,378 L413,378 L413,377 L411,377 L411,376 L409,376 L409,375 L407,375 L407,374 L406,374 L406,373 L404,373 L404,372 L402,372 L402,371 L401,371 L401,370 L399,370 L399,369 L397,369 L397,368 L395,368 L395,367 L394,367 L394,366 L392,366 L392,365 L390,365 L390,364 L388,364 L388,363 L387,363 L387,362 L385,362 L385,361 L383,361 L383,360 L382,360 L382,359 L380,359 L380,358 L378,358 L378,357 L376,357 L376,356 L375,356 L375,355 L373,355 L373,354 L371,354 L371,353 L369,353 L369,352 L368,352 L368,351 L366,351 L366,350 L364,350 L364,349 L362,349 L362,348 L361,348 L361,347 L359,347 L359,346 L357,346 L357,345 L356,345 L356,344 L354,344 L354,343 L352,343 L352,342 L350,342 L350,341 L349,341 L349,340 L347,340 L347,339 L345,339 L345,338 L343,338 L343,337 L342,337 L342,336 L340,336 L340,335 L338,335 L338,334 L337,334 L337,333 L335,333 L335,332 L333,332 L333,331 L331,331 L331,330 L330,330 L330,329 L328,329 L328,328 L326,328 L326,327 L324,327 L324,326 L323,326 L323,325 L321,325 L321,324 L319,324 L319,323 L318,323 L318,322 L316,322 L316,321 L314,321 L314,320 L312,320 L312,319 L311,319 L311,318 L309,318 L309,317 L307,317 L307,316 L305,316 L305,315 L303,315 L303,314 L302,314 L302,313 L300,313 L300,312 L298,312 L298,311 L297,311 L297,310 L295,310 L295,309 L293,309 L293,308 L291,308 L291,307 L290,307 L290,306 L288,306 L288,305 L286,305 L286,304 L285,304 L285,303 L283,303 L283,302 L281,302 L281,301 L279,301 L279,300 L278,300 L278,299 L276,299 L276,298 L274,298 L274,297 L273,297 L273,296 L271,296 L271,295 L269,295 L269,294 L267,294 L267,293 L266,293 L266,292 L264,292 L264,291 L262,291 L262,290 L260,290 L260,289 L259,289 L259,288 L257,288 L257,287 L255,287 L255,286 L253,286 L253,285 L252,285 L252,284 L250,284 L250,283 L248,283 L248,282 L247,282 L247,281 L245,281 L245,280 L243,280 L243,279 L241,279 L241,278 L240,278 L240,277 L238,277 L238,276 L236,276 L236,275 L234,275 L234,274 L233,274 L233,273 L231,273 L231,272 L229,272 L229,271 L227,271 L227,270 L226,270 L226,269 L224,269 L224,268 L222,268 L222,267 L221,267 L221,266 L219,266 L219,265 L217,265 L217,264 L215,264 L215,263 L214,263 L214,262 L212,262 L212,261 L210,261 L210,260 L208,260 L208,259 L207,259 L207,258 L205,258 L205,257 L203,257 L203,256 L201,256 L201,255 L200,255 L200,254 L198,254 L198,253 L196,253 L196,252 L195,252 L195,251 L193,251 L193,250 L191,250 L191,249 L189,249 L189,248 L188,248 L188,247 L186,247 L186,246 L184,246 L184,245 L182,245 L182,244 L181,244 L181,243 L179,243 L179,242 L177,242 L177,241 L175,241 L175,240 L174,240 L174,239 L172,239 L172,238 L170,238 L170,237 L169,237 L169,236 L167,236 L167,235 L165,235 L165,234 L163,234 L163,233 L162,233 L162,232 L160,232 L160,231 L158,231 L158,230 L157,230 L157,229 L155,229 L155,228 L153,228 L153,227 L151,227 L151,226 L150,226 L150,225 L148,225 L148,224 L146,224 L146,223 L144,223 L144,222 L142,222 L142,221 L141,221 L141,220 L139,220 L139,219 L137,219 L137,218 L136,218 L136,217 L134,217 L134,216 L132,216 L132,215 L131,215 L131,214 L129,214 L129,213 L127,213 L127,212 L125,212 L125,211 L124,211 L124,210 L122,210 L122,209 L120,209 L120,208 L118,208 L118,207 L117,207 L117,206 L115,206 L115,205 L113,205 L113,204 L112,204 L112,203 L110,203 L110,202 L108,202 L108,201 L106,201 L106,200 L105,200 L105,199 L103,199 L103,198 L101,198 L101,197 L99,197 L99,196 L98,196 L98,195 L96,195 L96,194 L94,194 L94,193 L90,193 Z M601,381 L601,382 L600,382 L600,383 L598,383 L598,384 L596,384 L596,385 L594,385 L594,386 L592,386 L592,387 L591,387 L591,388 L589,388 L589,389 L587,389 L587,390 L585,390 L585,391 L584,391 L584,392 L582,392 L582,393 L580,393 L580,394 L578,394 L578,395 L577,395 L577,396 L575,396 L575,397 L573,397 L573,398 L572,398 L572,399 L570,399 L570,400 L568,400 L568,401 L567,401 L567,402 L565,402 L565,403 L563,403 L563,404 L562,404 L562,405 L561,405 L561,462 L559,462 L559,463 L558,463 L558,464 L556,464 L556,465 L554,465 L554,466 L552,466 L552,467 L551,467 L551,468 L549,468 L549,469 L547,469 L547,470 L546,470 L546,471 L544,471 L544,472 L542,472 L542,473 L541,473 L541,474 L539,474 L539,475 L537,475 L537,476 L536,476 L536,477 L534,477 L534,478 L532,478 L532,479 L531,479 L531,480 L529,480 L529,481 L527,481 L527,482 L526,482 L526,483 L524,483 L524,484 L522,484 L522,485 L520,485 L520,486 L518,486 L518,487 L517,487 L517,488 L515,488 L515,489 L514,489 L514,541 L516,541 L516,540 L517,540 L517,539 L519,539 L519,538 L521,538 L521,537 L523,537 L523,536 L524,536 L524,535 L526,535 L526,534 L528,534 L528,533 L529,533 L529,532 L531,532 L531,531 L533,531 L533,530 L534,530 L534,529 L536,529 L536,528 L538,528 L538,527 L540,527 L540,526 L541,526 L541,525 L543,525 L543,524 L545,524 L545,523 L546,523 L546,522 L548,522 L548,521 L550,521 L550,520 L552,520 L552,519 L553,519 L553,518 L555,518 L555,517 L556,517 L556,516 L558,516 L558,515 L560,515 L560,514 L562,514 L562,513 L564,513 L564,512 L565,512 L565,511 L567,511 L567,510 L569,510 L569,509 L570,509 L570,508 L572,508 L572,507 L573,507 L573,506 L575,506 L575,505 L577,505 L577,504 L579,504 L579,503 L580,503 L580,502 L582,502 L582,501 L584,501 L584,500 L586,500 L586,499 L587,499 L587,498 L589,498 L589,497 L591,497 L591,496 L592,496 L592,495 L594,495 L594,494 L596,494 L596,493 L598,493 L598,492 L599,492 L599,491 L601,491 L601,490 L603,490 L603,489 L604,489 L604,488 L606,488 L606,487 L608,487 L608,486 L610,486 L610,485 L611,485 L611,484 L613,484 L613,483 L615,483 L615,482 L617,482 L617,481 L618,481 L618,480 L620,480 L620,479 L622,479 L622,478 L623,478 L623,477 L625,477 L625,476 L627,476 L627,475 L628,475 L628,474 L630,474 L630,473 L632,473 L632,472 L633,472 L633,471 L635,471 L635,470 L637,470 L637,469 L638,469 L638,468 L640,468 L640,467 L642,467 L642,466 L644,466 L644,465 L645,465 L645,464 L647,464 L647,463 L649,463 L649,462 L650,462 L650,461 L652,461 L652,460 L654,460 L654,459 L656,459 L656,458 L658,458 L658,457 L659,457 L659,456 L661,456 L661,455 L662,455 L662,454 L664,454 L664,453 L666,453 L666,452 L668,452 L668,451 L669,451 L669,450 L671,450 L671,449 L673,449 L673,448 L674,448 L674,447 L676,447 L676,446 L678,446 L678,445 L679,445 L679,444 L681,444 L681,443 L683,443 L683,442 L685,442 L685,441 L686,441 L686,440 L688,440 L688,439 L690,439 L690,438 L691,438 L691,437 L693,437 L693,436 L695,436 L695,435 L696,435 L696,383 L694,383 L694,384 L693,384 L693,385 L691,385 L691,386 L689,386 L689,387 L688,387 L688,388 L686,388 L686,389 L684,389 L684,390 L683,390 L683,391 L681,391 L681,392 L679,392 L679,393 L677,393 L677,394 L676,394 L676,395 L674,395 L674,396 L672,396 L672,397 L670,397 L670,398 L669,398 L669,399 L667,399 L667,400 L666,400 L666,401 L664,401 L664,402 L662,402 L662,403 L660,403 L660,404 L659,404 L659,405 L657,405 L657,406 L655,406 L655,407 L654,407 L654,408 L652,408 L652,409 L650,409 L650,410 L648,410 L648,411 L647,411 L647,412 L645,412 L645,413 L643,413 L643,414 L641,414 L641,415 L640,415 L640,416 L638,416 L638,417 L637,417 L637,418 L635,418 L635,419 L633,419 L633,420 L631,420 L631,421 L630,421 L630,422 L628,422 L628,423 L626,423 L626,424 L625,424 L625,425 L623,425 L623,426 L621,426 L621,427 L619,427 L619,428 L618,428 L618,429 L616,429 L616,430 L614,430 L614,431 L613,431 L613,432 L611,432 L611,433 L609,433 L609,434 L607,434 L607,435 L603,435 L603,381 L601,381 Z" id="Combined-Shape"></path>
            </g>
        </g>
    </g>
</svg>