<?xml version="1.0" encoding="UTF-8"?>
<svg width="105px" height="374px" viewBox="0 0 105 374" version="1.1" xmlns="http://www.w3.org/2000/svg" xmlns:xlink="http://www.w3.org/1999/xlink">
    <!-- Generator: Sketch 52.6 (67491) - http://www.bohemiancoding.com/sketch -->
    <title>lost</title>
    <desc>Created with Sketch.</desc>
    <g id="Page-1" stroke="none" stroke-width="1" fill="none" fill-rule="evenodd">
        <path d="M74.6212625,34.78 C74.1137256,32.7854729 73.9259499,30.7447422 74.0627379,28.71 C74.4391349,22.24 77.596013,17.1 81.1171462,17.24 C82.2935432,17.3543673 83.3476385,17.8928409 83.994762,18.71" id="Path" stroke="#FFFFFF" stroke-width="3" stroke-linecap="round" stroke-linejoin="round"></path>
        <path d="M65.4784579,86.78 C66.304103,78.33 71.0879874,45.06 74.9855177,33.63" id="Path" stroke="#FFFFFF" stroke-width="3" stroke-linecap="round"></path>
        <path d="M7.91400045,154 L7.91400045,348.88 L27.4987863,348.88 L50.0097554,244.62 C50.0097554,244.62 53.1059242,188.22 7.91400045,154 Z" id="Path" stroke="#FFFFFF" stroke-width="3"></path>
        <path d="M72.4235897,150.16 C72.9699724,155.78 79.781544,258.04 79.781544,258.04 L79.781544,351.15 L59.6868008,352.92 L48.3341816,254.76411 L50.0547203,243.161115 C48.0295999,222.797139 44.5583015,206.398202 39.640825,193.964305 C34.2497153,180.33282 24.6395672,167.011385 10.8103806,154 C37.3156468,155.186667 57.8533832,153.906667 72.4235897,150.16 Z" id="Path" stroke="#FFFFFF" stroke-width="3"></path>
        <path d="M71.2094058,107.46 C75.4469075,127.64 74.730539,147.81 72.5085825,150.16 C67.9068257,155.03 13.0135727,158.33 7.96256781,153.99 C3.39723644,150.06 -8.7446023,80.16 24.4269011,66.7" id="Path" stroke="#FFFFFF" stroke-width="3" stroke-linecap="round"></path>
        <path d="M39.4463557,64.62 C51.1510882,65.88 59.2011273,74.92 64.5921037,86.69" id="Path" stroke="#FFFFFF" stroke-width="3" stroke-linecap="round"></path>
        <path d="M81.9670749,37.32 C80.728611,34.5706029 80.2153622,31.6354893 80.4614869,28.71 C80.8378839,22.24 83.994762,17.1 87.5158952,17.24 C91.0370285,17.38 93.5868146,22.74 93.1861339,29.24 C93.0889922,32.0308644 92.3171003,34.7777575 90.9156101,37.32" id="Path" stroke="#FFFFFF" stroke-width="3" stroke-linecap="round"></path>
        <polygon id="Rectangle" fill="#FFFFFF" points="59.363317 30.697143 63.9933843 30.0986298 64.7200894 33.9119462 60.0900221 34.5104594"></polygon>
        <path d="M39.4463557,57.22 L39.4463557,64.47" id="Path" stroke="#FFFFFF" stroke-width="3" stroke-linecap="round" stroke-linejoin="round"></path>
        <path d="M36.4716052,73.19 C32.0762595,74.08 24.3297664,73.62 24.3297664,71.5 L24.3297664,45" id="Path" stroke="#FFFFFF" stroke-width="3" stroke-linecap="round" stroke-linejoin="round"></path>
        <path d="M52.4988323,27 C54.0536114,30.2957859 54.8363897,33.8042844 54.8057817,37.34 C54.8057817,48.34 47.7270897,57.24 39.0213913,57.24 C36.2755881,57.1984343 33.6339444,56.367087 31.5541605,54.89" id="Path" stroke="#FFFFFF" stroke-width="3" stroke-linecap="round"></path>
        <path d="M26.1389004,44.82 C25.6612626,44.9330528 25.1667086,44.9902787 24.6697379,44.99 C22.4523341,44.9938274 20.4704031,43.8514223 19.7154225,42.1342826 C18.960442,40.4171429 19.5947446,38.4944807 21.3010152,37.328124 C23.0072858,36.1617673 25.4186492,36.0025012 27.3288006,36.93" id="Path" stroke="#FFFFFF" stroke-width="3" stroke-linecap="round" stroke-linejoin="round"></path>
        <path d="M54.2108316,86 C60.2088999,86.26 69.5095484,86.92 74.0384542,88.26 C74.5241278,85.73 77.2681833,49.49 81.9427913,37.35" id="Path" stroke="#FFFFFF" stroke-width="3" stroke-linecap="round" stroke-linejoin="round"></path>
        <path d="M90.9763193,37.32 C90.9763193,38.76 101.309024,98.2 90.9763193,105.25 C82.8777128,110.77 59.5896661,106.16 49.208394,103.47" id="Path" stroke="#FFFFFF" stroke-width="3" stroke-linecap="round" stroke-linejoin="round"></path>
        <path d="M16.158309,83.69 C19.5823075,72.21 50.5925636,81.76 53.3973284,84.38 C56.7606177,87.52 50.7504075,105.22 46.1122251,106.04 C38.5478596,107.39 11.714396,98.58 16.158309,83.69 Z" id="Path" stroke="#FFFFFF" stroke-width="3" stroke-linecap="round"></path>
        <path d="M19.3516125,34.27 C16.8261101,32.59 16.534706,20.27 22.9091713,16.06 C29.2836366,11.85 47.9213591,8.56 56.0078237,2.83" id="Path" stroke="#FFFFFF" stroke-width="3" stroke-linecap="round"></path>
        <path d="M50.5682799,14.13 C52.4259813,12.82 58.2662057,5.32 59.2496946,3.3" id="Path" stroke="#FFFFFF" stroke-width="3" stroke-linecap="round"></path>
        <path d="M56.0928166,16.88 C58.1289941,14.471702 59.5575645,11.7513126 60.2938928,8.88" id="Path" stroke="#FFFFFF" stroke-width="3" stroke-linecap="round"></path>
        <path d="M93.1861339,29.22 C93.1068349,30.565163 92.8956892,31.9028493 92.5547583,33.22 L102.413931,32.55 L99.7670105,19.36 L92.0448011,21.36 C93.0023268,23.901056 93.3890998,26.5646396 93.1861339,29.22 Z" id="Path" fill="#FFFFFF"></path>
        <path d="M80.4614869,28.71 C80.5506701,27.1979407 80.8025893,25.6953816 81.2142809,24.22 L63.0015228,28.96 L64.2157067,35.18 L80.8257421,34.05 C80.4631329,32.2867369 80.340956,30.4956178 80.4614869,28.71 Z" id="Path" fill="#FFFFFF"></path>
        <polyline id="Path" stroke="#FFFFFF" stroke-width="3" stroke-linecap="round" stroke-linejoin="round" points="9.65028339 348.88 9.65028339 371.54 48.8805644 371.54 20.8693424 357.18 20.8693424 348.88"></polyline>
        <polygon id="Path" stroke="#FFFFFF" stroke-width="3" stroke-linecap="round" stroke-linejoin="round" points="64.5921037 352.92 63.6571821 371.54 102.887463 371.54 74.8640993 357.18 74.9855177 351.698678"></polygon>
        <path d="M48.5720583,46.8284105 C47.6591965,45.8603833 46.7727679,40.1787451 43.5549727,40.0022244 C42.2154283,39.9287401 39.3637708,41.6759488 35,45.2438504" id="Path" stroke="#FFFFFF" stroke-width="3" stroke-linecap="round"></path>
    </g>
</svg>