<?xml version="1.0" encoding="UTF-8"?>
<svg width="142px" height="162px" viewBox="0 0 142 162" version="1.1" xmlns="http://www.w3.org/2000/svg" xmlns:xlink="http://www.w3.org/1999/xlink">
    <!-- Generator: Sketch 52.6 (67491) - http://www.bohemiancoding.com/sketch -->
    <title>mobius</title>
    <desc>Created with Sketch.</desc>
    <g id="Page-1" stroke="none" stroke-width="1" fill="none" fill-rule="evenodd">
        <g id="mobius-strip" fill="#FFFFFF" fill-rule="nonzero">
            <path d="M71,161.7 C109.6,161.7 141.1,130.2 141.1,91.6 C141.1,88.1 140.8,84.5 140.3,81.3 C140.8,77.8 141.1,74.5 141.1,71 C141.1,32.4 109.6,0.9 71,0.9 C32.4,0.9 0.6,32.1 0.6,70.7 C0.6,74.2 0.9,77.8 1.4,81 C0.9,84.5 0.6,87.8 0.6,91.3 C0.6,130.2 32.1,161.7 71,161.7 Z M138.3,91.6 C138.3,128.8 108.2,159 70.9,159 C33.6,159 3.3,128.9 3.3,91.6 C3.3,54.3 33.4,24.2 70.7,24.2 C96.5,24.2 117.4,45.1 117.4,70.9 C117.4,72.3 117.4,73.6 117.1,75 C110,55.7 91.6,42.4 70.7,42.4 C47.3,42.4 27.5,59 22.6,81 L22.6,81.3 C21.8,84.8 21.5,88.1 21.5,91.9 C21.5,119.1 43.5,141.3 70.9,141.3 C102.9,141.3 129.8,119.8 138.3,90.5 C138.3,90.5 138.3,91.1 138.3,91.6 Z M116.3,81 C111.7,101.6 92.9,117.4 70.9,117.4 C49.4,117.4 30.2,102.2 25.5,81.3 C30.2,60.4 48.7,44.9 71,44.9 C92.4,44.9 111.4,60.1 116.3,81 Z M3.3,70.7 C3.3,33.5 33.4,3.3 70.7,3.3 C108,3.3 138.1,33.4 138.1,70.7 C138.1,108 108,138.1 70.7,138.1 C44.9,138.1 24,117.2 24,91.4 C24,90 24,88.7 24.3,87.3 C31.4,106.6 49.8,119.9 70.7,119.9 C94.1,119.9 113.9,103.3 118.8,81.3 L118.8,81 C119.6,77.5 119.9,74.2 119.9,70.4 C119.9,43.2 97.9,21 70.5,21 C38.5,21 11.6,42.5 3.1,71.8 C3.6,71.5 3.3,71.2 3.3,70.7 Z" id="Shape"></path>
        </g>
    </g>
</svg>