<?xml version="1.0" encoding="UTF-8"?>
<svg width="433px" height="946px" viewBox="0 0 433 946" version="1.1" xmlns="http://www.w3.org/2000/svg" xmlns:xlink="http://www.w3.org/1999/xlink">
    <!-- Generator: Sketch 52.6 (67491) - http://www.bohemiancoding.com/sketch -->
    <title>support</title>
    <desc>Created with Sketch.</desc>
    <g id="Page-1" stroke="none" stroke-width="1" fill="none" fill-rule="evenodd">
        <g id="drawkit-support-woman-monochrome" transform="translate(2.000000, 186.000000)" stroke="#FFFFFF" stroke-width="10">
            <path d="M46.2033605,251.65 C40.2347005,251.65 45.3222762,267.51 45.1418131,293.2 C45.9592046,301.46 46.5324402,307.13 46.5324402,307.79 C46.5105282,307.93249 46.4257015,308.059618 46.2988998,308.14 C48.9538592,313.074304 50.3083629,318.538341 50.2478562,324.07 C50.3486351,330.453736 48.5067932,336.731161 44.9401191,342.16 C44.759656,471.16 46.2033605,692.53 46.2033605,692.53 L78.8353285,692.53 L155.210111,288.493535 C119.987967,282.143535 76.8077729,263.79 46.2033605,251.65 Z" id="Path"></path>
            <path d="M219.09759,293.52 C219.808827,306.71 252.907876,689.39 252.907876,689.39 L219.09759,689.39 L135.793888,405.732111 C135.793888,405.732111 154.205196,287 155.765671,287.27 C163.217734,289.12 204.575622,296 219.09759,293.52 Z" id="Path"></path>
            <path d="M249.978005,76 C260.529787,83.66 278.385014,98.54 287.132165,109.29 C295.8687,103.19 395.22954,25.45 397.172172,21.18 C401.04682,19.05 409.464891,30.94 397.172172,40.69 C405.579627,40.39 455.100815,39.17 455.100815,40.69 C455.100815,42.21 465.779982,46.49 392.957828,57.46 C383.255285,68.46 295.8687,165.38 281.633349,165.38 C271.909575,165.38 241.825321,140.67 222.929777,121.98" id="Path" stroke-linecap="round" stroke-linejoin="round"></path>
            <path d="M219.405439,104.08 C233.8531,95.52 249.224306,80.57 253.831422,68.87 C256.559599,61.93 211.59245,29.87 183.769292,25.3" id="Path" stroke-linecap="round" stroke-linejoin="round"></path>
            <path d="M41.7342458,249.13 C66.2559915,267.01 207.155182,305.13 219.09759,293.52 C231.039999,281.91 252.419564,32.15 147.761603,2.06" id="Path" stroke-linecap="round" stroke-linejoin="round"></path>
            <path d="M109.514049,0.53 C88.3786399,4.33 72.444813,15.53 60.5236353,31.16" id="Path" stroke-linecap="round" stroke-linejoin="round"></path>
            <path d="M14.3887841,106.84 C8.78381363,126.55 -2.38366533,176.32 0.58866747,220.05 C4.15546683,272.61 13.6563163,302.52 13.9747806,307.54 C11.0838223,312.619926 9.60480576,318.30651 9.67551347,324.07 C9.67551347,338.9 18.751744,350.93 29.9510694,350.93 C41.1503948,350.93 50.2372408,338.93 50.2372408,324.07 C50.2977474,318.538341 48.9432437,313.074304 46.2882843,308.14 C46.4150861,308.059618 46.4999127,307.93249 46.5218248,307.79 C46.5218248,305.27 38.1037536,229.32 39.9614616,215.79 C41.5325518,204.27 59.419626,145.88 64.2496668,122.9" id="Path" stroke-linecap="round" stroke-linejoin="round"></path>
            <path d="M76.1071516,46.15 C73.7505163,38.86 70.0987932,33.54 64.791056,31.94 C35.8214267,23.2 1.50159826,85.55 4.76054887,96.29 C7.83903641,106.44 30.9913859,117.18 50.9909394,120.78" id="Path" stroke-linecap="round" stroke-linejoin="round"></path>
            <polyline id="Path" stroke-linecap="round" stroke-linejoin="round" points="75.937304 692.53 75.937304 730.55 19.9512926 758.34 52.5195677 724.49 52.5195677 692.53"></polyline>
            <polyline id="Path" stroke-linecap="round" stroke-linejoin="round" points="222.314079 689.39 222.314079 730.55 299.382422 730.55 248.003527 706.88 248.003527 689.39"></polyline>
        </g>
        <g id="Group-2" transform="translate(137.307049, 100.442261) scale(-1, 1) rotate(-7.000000) translate(-137.307049, -100.442261) translate(71.807049, 8.942261)">
            <path d="M12,0 C12,44.2622951 131,32.7868852 131,89.5081967 C131,114.098361 116.692082,120 108.316716,120" id="Path" stroke="#FFFFFF" stroke-width="10" stroke-linecap="round"></path>
            <path d="M-1.13686838e-13,13 C-1.13686838e-13,17.9541284 6.41891892,31.8256881 25,49" id="Path" stroke="#FFFFFF" stroke-width="10" stroke-linecap="round"></path>
            <path d="M38.3286713,60 C36.2307692,66.5861027 17,98.5287009 17,102.480363 C17,106.432024 26.6153846,111.536254 26.6153846,114.335347 C26.6153846,117.134441 22.7692308,131.78852 42,143.808157 C41.1258741,149.241692 40.4265734,169 40.4265734,169" id="Path" stroke="#FFFFFF" stroke-width="10" stroke-linecap="round"></path>
            <circle id="Oval" fill="#FFFFFF" cx="43.5" cy="84.5" r="2.5"></circle>
            <path d="M38,122 C34.5079365,123.5 30.8412698,124.5 27,125" id="Path" stroke="#FFFFFF" stroke-width="10" stroke-linecap="round"></path>
            <path d="M103,121 C91.7214612,134.156499 83.913242,174.612732 83.739726,179.217507 C82.0045662,182.013263 73.5022831,182.835544 65,183" id="Path" stroke="#FFFFFF" stroke-width="10" stroke-linecap="round"></path>
        </g>
    </g>
</svg>