<svg xmlns="http://www.w3.org/2000/svg" viewBox="0 0 1000 700" preserveAspectRatio="xMidYMid meet"><path fill="#e8dfca" fill-rule="evenodd" d="M184.69 343.43L184.7 339.25L187.36 334.3L191.31 330.84L195.34 328.33L198.32 325.16L199.05 319.69L199.91 319.69L199.01 323.59L204.04 324.33L209.74 328.96L212.23 332.35L215.06 334.3L215.03 338.29L219.54 342.84L225.45 344.13L239.77 343.24L239.78 342.18L228.9 341.97L227.35 340.68L228.77 338.4L236.43 334.4L268.34 332.35L270.4 332.57L273.58 334.54L275.22 334.66L275.99 332.33L282.47 328.65L287.34 321.83L290.9 319.44L291.28 318.05L289.96 317.18L289.61 316.29L290.85 308.78L289.32 305.3L290.59 300.9L292.72 297.59L301.27 290.56L303.5 289.92L305.89 290.12L315.16 294.49L318.48 292.78L320.39 291.01L321.48 289.13L321.79 286.94L320.7 281.99L318.81 279.36L317.04 278.7L316.52 277.28L316.74 275.24L318.53 271.3L318.77 269.08L314.38 251.96L315.13 242.68L312.29 239.67L312.04 238.38L313.2 225.44L318.61 222.16L321.52 221.91L327.56 222.67L338.87 220.5L344.34 220.18L348.92 222.71L351.37 223.41L355.25 221.77L357.28 221.49L360.28 224.34L362.55 224.9L372.25 223.81L374.33 222.8L375.94 220.97L377.86 214.59L380.06 211.11L389.17 201.31L393.98 193.82L398.74 191.34L400.37 189.64L402.64 185.21L406.1 182.81L416.7 181.22L416.66 182.81L415.16 185.87L415.54 189.65L425.3 196.78L429.22 201.64L431.14 202.3L435.57 201.39L438.61 202.73L441.57 208.13L443.78 210.83L446.84 211.89L452.9 212.02L455.09 214.25L456.35 213.09L457.5 210.79L457.79 208.58L457.01 206.93L454.93 206.28L454.41 205.03L456.37 197.99L456.54 194.87L457.21 194.09L461.1 194.59L465.68 191.31L467.72 191.66L467.65 190.99L468.67 190.69L468.22 189.19L473.08 187.7L475.74 184.32L484.83 181.83L486.12 179.88L487.23 175.71L492.2 174.34L498.15 170.14L501.27 165.39L503.42 159.02L504.75 156.79L507.67 153.41L510.33 153.41L513.41 148.96L519.43 146.67L524.66 146.67L528.08 146.07L531.54 144.92L534.38 143.19L535.98 140.83L535.84 137.58L534.06 134.73L529.37 131L533.14 128.08L533.14 124.09L536.82 119.76L537.68 108.59L538.77 106.56L541.29 107.2L545.85 111.4L548.76 110.02L553.67 105.06L554.69 102.66L551.11 102.66L554.96 98.68L551.05 95.88L550.3 94.49L553.18 93.56L554.34 87.43L555.57 85.2L562.35 80L568.66 73.85L570.92 72.53L579.16 71.02L582.79 70.87L586.37 71.95L589.41 74.22L591.45 77.6L589.87 79.68L592.62 80.02L592.87 83.64L595.7 85.56L599.24 92.83L601.79 91.3L604.43 91.58L609.78 93.9L612.9 94.57L622.98 94.87L622.05 98.68L624.14 98.03L627.06 100.08L629.17 100.71L639.41 96.44L641.94 93.29L645.64 86.99L646.99 88.37L648 92.08L649.06 92.83L656.05 93.9L658.87 92.4L659.56 89.26L658.81 82.56L659.57 80.87L661.3 80.74L664.46 82.12L668.81 86.55L670.49 87.24L672.52 87.09L675.88 86.1L677.95 84.34L679.2 84.07L681.6 84.67L682.54 84.07L682.53 83L680.36 80.51L678.74 77.16L680.24 75.89L681.25 75.82L684.42 77.84L685.3 79L689.08 79.12L689.79 79.51L690.06 80.61L692.44 80.9L706.07 80.17L705.35 79L706.03 74.42L707.7 75.36L709.94 77.74L711.71 78.22L710.84 76.28L712.39 76.84L713.68 78.22L717.79 75.32L720.52 74.44L723.07 74.42L721.31 72.99L720.31 71.32L728 70.85L730.85 69.72L730.56 67.51L733.72 67.6L734.75 68.24L735.28 69.46L736.3 69.46L734.96 65.36L735.48 63.78L738.05 62.54L743.84 62.33L746.38 63.08L747.56 64.58L748.59 64.58L750.11 59.37L753.48 58.1L756.89 55.35L758.87 54.76L757.91 52.81L760.74 53.79L760.47 50.21L761.23 49.6L762.59 50.86L762.87 47.82L763.59 46.87L762.65 45.49L763.11 44.77L766.31 44.92L768.75 48.22L770.02 48.92L773.25 48.53L776.03 46.86L778.16 44.47L779.45 42L784.41 44.98L785.14 46.87L787.21 45.5L795.66 45.99L794.03 46.79L793.93 47.54L796.63 48.92L803.3 48.92L808.84 46.87L815.31 46.84L814.32 48.31L811.81 49.49L810.57 50.83L808.52 48.42L806.88 50.09L804.58 54.73L802.83 55.59L801.16 57.64L799.11 62.7L796.68 65.45L795.79 71.29L794.68 73.07L793.03 74.34L788.3 76.24L790.16 73.32L790.17 74.39L790.63 73.6L791 71.29L789.5 72.06L788.25 71.29L788.25 70.41L791.46 69.42L792.84 69.93L793.91 71.29L793.78 68.6L792.26 64.91L790.98 59.18L789 58.71L785.16 60.57L782.47 63.11L776.43 71L775.01 74.39L776.8 72.35L778.71 73.87L780.26 79.73L781.2 81.03L785.03 84.05L787.13 84.74L789.22 82.1L784.48 79.17L786.03 78.3L787.63 78.77L790.24 82.1L790.12 78.84L791.11 77.83L792.36 79.06L797.99 104.06L799.61 107.52L800.82 114.33L807.71 133.89L808.48 139.49L807.87 144.38L804.19 153.38L792.87 171.98L787.96 178.03L786.32 182.14L779.77 186.77L777.02 190.72L775.13 195.27L766.72 226.51L763.57 242.79L763.83 249.78L763.27 255.92L760.42 263.02L758.02 272.44L756.63 290.81L756.92 294.25L757.92 296.22L756.89 297.11L757.68 298.86L765.71 345.64L761.3 383.28L761.36 391.6L763.88 397.07L765.26 401.61L769.19 407.08L770.15 410.64L769.82 415L768.38 417.33L765.56 418.26L761.08 418.44L750.94 420.92L748.15 419.41L752.88 415.42L752.99 413.75L751.55 409.54L748.47 406.8L748.65 397.47L747.98 393.9L749.02 393.01L749.88 393.01L754.82 394.6L758.22 390.14L759.35 383.72L757.47 378.31L758.66 376.96L759.13 375.04L759.3 367.07L761.17 364.59L760.68 360.76L757.97 358.49L754.24 357.58L750.68 357.86L747.82 359.55L746.6 362.18L746.7 365.08L747.81 367.6L751.19 369.54L751.65 373.44L753.43 375.38L753.61 379.26L752.65 381.33L754.66 384.25L750.31 386.81L742.94 393.05L738.48 394.96L732.47 395.61L729.94 396.44L728.91 398.33L728.96 405.76L733.66 406L735.72 407.63L736.71 414L734.77 422.66L735.83 425.25L738.42 426.52L742.78 425.58L743.54 427.78L742.69 432L742.84 434.52L746.48 424.06L747.7 423.3L750.46 423.7L751.05 424.79L744.62 437.91L741.64 454.84L742.77 473.1L743.85 476.17L741.86 477.14L742.41 474.21L741.41 471.77L737.9 467.41L736.41 463.79L739.62 460.86L740.7 457.58L739.97 455.16L738.12 452.37L735.65 449.97L733.02 448.72L728.79 449.17L729.01 451.29L731.24 452.61L733.04 450.67L734.08 450.67L737.42 454.63L737.83 456.51L737.34 458.92L735.25 462.02L734.25 467.03L731.75 467.12L725.98 465.37L725.24 465.84L730.38 468.29L731.21 469.4L732.23 474.58L730.45 479.54L731.49 482.03L730.6 483.86L728.57 484.94L726 488.3L722.65 490.28L720.91 492.82L724.99 496.1L726.9 498.31L728.12 501.05L730.51 502.29L733.97 502.23L733.33 499.55L735.02 495.32L738.59 494.69L739.93 495.86L746.56 521.89L746.7 529.87L745.07 531.79L744.79 531.38L740.88 532.42L739.63 533.23L738.24 535.3L733.92 536.01L731.64 537.63L728.93 548.73L727.07 553.77L723.23 553.31L718.82 558.99L716.83 563.63L716.92 578.08L721.31 596.79L724.37 604.22L728.61 610.73L729.99 614.29L733.36 619.65L737.11 622.37L739.26 628.15L741.72 627.69L741.18 626.17L742.27 626.45L743.96 629.92L743.55 631.81L744.95 632.57L745.05 635.7L746.36 640.78L745.98 644.65L741.07 647.2L731.16 649.58L721.87 653.13L718.5 656.82L714.67 656.05L710.41 658L708.16 657.35L699.67 650.65L699.02 648.22L697.47 647.16L695.59 647.48L693.93 649.15L691.53 648.57L688.07 650.82L686.36 649.15L685.4 649.15L683.79 650.38L682.18 649.76L679.56 647.2L673.48 647.12L671.92 648.26L668.08 644.81L666.92 642.9L667.54 641.8L670.06 640.38L669.52 636.96L661.66 631.13L655.15 628.62L653.66 627.23L650.78 622.84L650.17 618.56L648.84 617.89L640.14 623.54L638.81 624.1L637.28 623.94L634.52 622.64L628.85 616.84L617.15 612.2L611.68 612.02L606.35 608.17L603.86 607.07L599.48 608.13L574.69 624.59L571.41 625.77L568.19 625.41L487.34 595.37L482.82 592.82L478.87 589.24L474.87 587.17L470.2 589.13L466.25 594.46L463.69 600.05L460.3 605.58L453.22 602.61L450.51 602.19L448.54 601.11L446.13 593.42L443.58 589.61L428.68 572.79L424.19 569.47L419.33 568.09L412.49 560.32L408.76 558.38L404 553.3L397.92 549.81L395.9 547.99L394.04 542.59L389.71 540.64L384.52 535.57L371.67 529.9L369.49 528.29L367.64 526.1L366.09 521.61L349.4 508.77L346.73 505.39L343.02 496.94L340.12 494.9L336.45 491.16L334.29 488.04L331.93 483.56L330.82 479.45L325.79 475.11L322.56 471.01L317.33 461.85L312.5 448.44L311.13 446.28L307.67 443.27L279.23 425.74L277.45 423.53L269.63 418.99L265.4 414.38L255.81 410.04L255.47 406.74L257.06 408.87L259.78 410.69L265.99 412.59L262.55 408.76L257.67 405.81L254.57 399.83L253.7 399.83L255.09 405.12L246.56 395.94L244.84 395.21L236.18 388.44L235.04 387.24L233.68 383.28L231.76 386.11L216.59 368.32L214.82 364.59L217.65 366.54L217.66 365.65L215.77 364.59L215.43 362.26L209.98 358.6L207.19 357.86L207.18 358.74L212.78 362.99L212.83 364.59L211.42 364.39L206.31 359.81L190.07 349.98L186.7 346.96Z"/></svg>
