<svg xmlns="http://www.w3.org/2000/svg" viewBox="0 0 1000 700">
  <path fill="#e8dfca" fill-rule="evenodd" d="m145.22 357.74.19-2.39.87-1.91 7.87-7.58 1.96-3.01 5.56-15.88 2.11-3.37 3.48-2.32-1.38-4.76.34-4.62 6.01-20.9 1.33-2.41 5.27-5.41 2.89-4.66 13.79-37.91 1.74-2.86 4.45-4.56 1.11-2.78-.25-2.32-2.35-6.72.66-6.21-.75-2.21-4.4-5.69-.68-2.52 1.79-7.97.06-5.49.98-2.06 5.09-3.94 1.14-1.5 2.67-6.56.49-6.53 1.17-1.81-.86-2.03.02-5.77-1.97-2.42-.33-1.18 2.58-3.67.52-2.11-.35-2.08-2.03-2.9.02-1.89.7-.82 2.13-.28 5.06 2.6 3.75.86 5.03 2.67 5.68-.92 4.71.02 5-3.09 3.01-.26 9.74 2.78 5.96-7.07 1.41-4.62 2.33-4.1 1.23-6.79-1.18-6.98.27-1.24 14.97-5 4.22-.6 4.27-2.22 4.62-8.22 3.66-1.96 2.11.59 3.09 3.02 2.37.73 2.49-.57 2.06-1.58 3.3-4.22 7.18-4.83 2.45-.9 2.38.01.97 1.09-.08 4 .57 2.36 1.56-.02 1.74-1.5 1.1-2.09-.34-2.59.48-.98 4.29-1.28 5.08 3.83 2.47-.37 1.76-1.76.72-6.63 1.81-1.66 5.18-2.52 2.12-1.65 2.9-4.68 6.39-16.71 2.9-4.23L376.51 42l1.18 2.33.73 3.37 4.39 6.29.68 4.47 1.86 2.68.81 2.49 9.68 15.03 7.19 16.98 7.17 12.68 2.48 9.26 1.18 2.18-1.27 4.23 1.92 3.29 2.84 2.99 1.43 3.34 1.4 7.89 3.08 6.43.79 6.53 2.15 5.39 1.08 6.24 3.41 7.95 2.25 8.5-1.43-.74 2.63 7.27.19 3.16-1.93 2.05 1.67 4.98-.48 2.79-.71-.74.12 1.69 2.73.88-.17 3.8 1.57 5.15-.02 5.68 1.48 4.1-.79 5.59 3.16 14.24.78 6.48 2.44 5.42 3.65 14.21 2.02 3.8 6.27 3.88 1.79 2.41 4.9 2.66.04 1.41-1.49 3.44.33 1.28 1.82 2.47.73 4.66 2.83 3.2-1.81.17-1.25 1.07-.44 1.59.64 1.71 1.4-2.05 1.15-.47 1.04.96-.22 2.06-2.04.99-3.49.3 2.15 4.1.71 4.47 3.93.77 2.31-.28 1.8-2.15 1.87-.27 3.72 1.19 2.54 3.43 5.49 17.87 2.86 1.53.86 3.73 2.03 2.63-1.57 5.95-.54 9.36 1.45 1.56.37 1.66 1.01.86 1.37.06 1.49-.76 1.05 2.04 1.2.32 3.97-.87.73-.55.83-2.64-.68-1.92 1.68-1.59 2-3.61.23-2.13-2.11-3.69-2.01-5.94-1.4-.03-1.55 2.62-.92-2.26v-7.76l-.79-4.5.24-1.33 1.9-1.31.7-3.73.7-1.09 2.21 1.09.79-2.97h.63v1.42l3.53-4.47 1.56 2.82 2.1 2.27 10.02 8.34 4.8 1.62 3.07 2.78.15 2.35-3.58 3.8-2.16 5.14 2.06.16.61.68.21 1.12-1.34.74.03.82 4.2 4.41 2.16 5.62-.44 4.06.45 1.22 1.31-.48 1.44.31 1.16.83.68 2.01.95.32.23 1.66-.72 2.4 1.04 1.95 11.94 4.87.78.63.72 2 1.58-.37 2.4-2.04 2.38-.93 4.48-6.46.25 3.24.98.81 1.72-.32.56-.96-.04-2.3 3.34-.6 1.1.81-.17 1.89 2.05.67.73 1.2 1.01.04 2.22-2.24-.77-1.75-.03-2.04 1.51 2.23 2.87.75.19 2.85.55.95.8.53 2.08-.53 2.95.73 1.22 6.18 3.05 1.28-.49-1.84.88-.59 2.88.19.72.5.32.97-.5.6-1.65-.58-.65.75 5.07 5.29.91-.25.54.92.01 3.79-.88 3.7.9 1.45 3.6 3.18.02 2.11 2.12-1.17 2.27.35-.01-2.1 2.43 1.07 5.63-.25 6.38 4.06 2.96.84 7.13.24 13.46 3.33 4.4 7.51 7.88 5.51 2.54 3.13 1.68 3.75.64 4.03.82 1.7 3.51 1.89 3.27 4.15 1.42 4.38 9.92 10.16 1.66 3.5 1.32 4.85.88 1.18 4.99 3.27 3.45 3.55 3.9 7.33 1.15 4.51.94 1.62 8.16 2.14 4.72-1.5.84.52 2.09 3.59 2.51 2.25 2.69.32 3.17-.72 6.97 3.73 1.2.86 1.4 5.91 4.4 3.42 4.37 6.27 1.45.74 1.9 4.85 1.09.31 2.84-1.05 2.93 2.6 1.49 4.47 2.92 1.96.42 1.5.84-.01.59-1.08-3.31-3.8-.03-.8h2.18l.04-2.9-3.25-2.2-3.12-.42 1.24-1.16 1.39-.03 3.66 2.98 3.96 5.26 3.47 1.9.7 2.69.04 4.44 1.23 3.61.96 1.65 2.19 1.91.8 2.77 1.78 12.62 1.54 2.6.82 6.11 3.29 1.98 2.25.67 4.84.42 2.03-.37 1.22-.99 1.36-3.11 1.42.32.85 2.66 1.95 1.52 1.11 2.54 5.4 4.55 3.79 6.22 5.25 2 2.7 2.27.86 1.69 1.09 6.11 1.8 3.98 1.17 6.89.79 1.12 1.51.38 4.27-1.81 1.48 2.96 2.1 1.8 2.92.89 3.83.24-1.43 2.24 1.01.08 4.05-2.32 1.23-1.42.97-1.55.41-2.34 1.01-.58-.82-2.14.77-1.72 4.53 3.78 1.1 2.27 3.57 2.62.75 1.43.48 4.94 2.9 5.15-.64.81-23.02 9.98-1.09.11-2.28-1.17-1.76 1.57-2.41 5.91-4.6 4.41 1.44 6.67-.58 2.93-4.5 1.32-2.32 3.09-3.86 1.09-1.39 2.05-16.85-14.87-4.91-2.19-2.91-.77-1.87.34-5.42 5.94-5.14-5.41-8.8-11.85-7.05-11.9-5.11-4.39-5.95-3.34-6.1-2.52-8.34-5.37-5.63-7.83-8.41-17.99-3.43-5.65-7.82-9.09-19.35-15.92-32.88-21.04-3.22-3.2-15.88-28-22.41-25.48-6.46-4.63-7.2-2.71-9.56-1.37-2.99-.97-11.24-5.43-6.16-3.2-15.32-14.28-4.17-2.49-4.58-1.88-9.49-2.33-1.87.03-5.22 1.55-6.09-.79-1.94.5-3.25 2.77-2.06.59-2-.35L500.6 425l-3.16-1.05-9.43 1.15-2.82-.26-6.04-1.96-4.4-4.59-2.09-1.19-1.82-.03-.84 2.18-1.88 2.55-4.31 2.11-8.67 2.43-7.73-.81-2.63.42-1.43 1.31-2.31 3.71-2.65.03-2.17-4.04-3.05-9.05-3.26-4.59-4.42-3.41-7.99-1.94-1.37 1.34-.34 5.87-1.5 1.97-6.57 3.42-5.46 4.59-4.71.46-8.32 3.1-1.96.18-5.9-.91-6.56 3.41-3.94 1.06-8.07.93-7 .12-1.3-1-1.26-3.33-.85-.81-5.64-3.1-2.87-2.91-2.49-7.46-3.33-2.48-1.21-4.59-1.73-2.97-4.11-.83-6.02 1.04-1.91-.35-11.42-4.74-1.46-1.78-.29-1.81-2.67-1.51-.69-3.46-1.85-.87-3.24-5.88-1.82-1.62-35.24 83.25-1.2 1.22-2.98-2.54-.88-5.65-1.89-1.37-2.44-.7-2.34-6.66-5.76-4.49-.73-6.16-5.54-7.44-4.54-3.39-3.77 1.01-7.82-.15-3.65.83-3.06 2.3-2.51 4.51-.8 7.12-.82 1.8-2.49 2.28h-3.6l-1.56 1.29-1.7.1-2.58-1.39-2.5-3.04-3.5-.47-6.87-2.05-10.62-.46-3.66 1.56-6.88.35-3.29 1.54-5.51.82-1.35 1.11-.81 2.14-2.04-.04Z"/>
  <path fill="#e8dfca" fill-rule="evenodd" d="m513.9 287.26.14-2.15.92-1.22 1.37-.18 3.15 2.06 1.39.12.41-.87-1.96-4.09 2.07-1.02 4.04-.17.41-1.33-1.9-3.24-1.05-.64-3.67.24-1.18-.58-1.28-1.84 7.9 1.24 3.83 1.5 3.03 2.08 1.49 2.31-1.62 2.78-.22 1.2.8.83 2.85-.83-.79-1.84 1.12-.32 1.1.63-.34 10.37.99 3.24 2.25 4.05 7.18 1.89 1.6-3.05 1.49-.9-3.55-1.18-.92-1.23.78-1.22 4.24-.77 3.33.39 2.41 1.26.89 2.64 2.4.68 2.19 1.49 3.44.68.85 4.35-.64 1.99-1.49.84-3.92-1.51-7.28 1.44-5.91-2.56-2.41-.35-5.21 1.1-1.61-.29-2.16-2.37-.95 1.79-1.21.93-1.78.15-8.81-2.58-2.38.52-1.58-2.16-2.79-8.27 1.93.26-.5 1.23 1.49 1.15.66 1.83 1.77-.39 4.03 1.88 5.75-1.49-1.93-3.46-2.57-2.85-3.13-1.92-3.54-.71-3.46.73-1.23-.35Zm6.94-28.41.03-1.81.83-1.68 5.14-1.5-.62-3.13.19-1.2.76-.45 3.42 2.54 2.94 1.09.82 1.3-.72 1-1.74.6-1.55 1.44-.33 1.65 3.39 2.61.51 1.01-1.87.53-5.64-2.44-4.51-.48Z"/>
</svg>
