<?xml version="1.0" encoding="UTF-8"?>
<svg width="384px" height="216px" viewBox="0 0 384 216" version="1.1" xmlns="http://www.w3.org/2000/svg" xmlns:xlink="http://www.w3.org/1999/xlink">
    <!-- Generator: Sketch 52.6 (67491) - http://www.bohemiancoding.com/sketch -->
    <title>mountain-d3</title>
    <desc>Created with Sketch.</desc>
    <g id="Page-1" stroke="none" stroke-width="1" fill="none" fill-rule="evenodd">
        <g id="mountain-d3" transform="translate(0.000000, 51.000000)">
            <polygon id="Path-2" fill="#FFFFFF" points="13.1676843 51.0391178 9.64806062 56.114932 13.1676843 60.6663079 29.369084 65.2080512 63.7551166 62.7988456 118.466347 77.7539014 224.899509 83.8154458 344.355868 81.8611101 345.220656 32.8218412 344.355868 30.9210197 344.355868 29.0480255 342.220119 29.0480255 342.220119 27.7412107 340.975381 27.7412107 340.975381 29.0480255 339.179447 29.0480255 339.179447 29.9834523 337.805739 29.9834523 337.805739 30.9210197 334.844803 30.9210197 334.844803 31.9741776 332.133778 31.9741776 328.072591 25.1109917 328.072591 23.9122754 326.884043 23.9122754 325.302165 23.9122754 325.302165 22.041957 323.74865 22.041957 323.74865 22.8601879 321.015149 22.8601879 321.015149 23.9122754 320.0323 23.9122754 320.0323 25.1109917 318.989654 25.1109917 318.989654 25.8809381 318.04362 25.8809381 318.04362 26.9306378 316.927232 26.9306378 316.927232 28.1139279 315.935885 28.1139279 310.051282 30.9210197 310.051282 31.9741776 309.140517 31.9741776 309.140517 32.8218412 308.137199 32.8218412 308.137199 34.9802592 308.137199 35.9483085 306.194261 35.9483085 306.194261 36.8402647 304.968863 36.8402647 304.968863 38.0750672 303.029986 38.0750672 303.029986 38.9834817 301.9183 38.9834817 301.9183 41.0140554 301.082987 41.0140554 301.082987 43.8577134 300.032859 43.8577134 300.032859 44.9779489 298.947251 44.9779489 298.947251 45.9902433 297.098574 45.9902433 297.098574 47.0469965 295.944994 47.0469965 295.944994 48.0028624 294.009323 48.0028624 294.009323 50.0939257 293.051961 50.0939257 293.051961 51.0391178 291.958016 51.0391178 291.958016 51.8596698 287.012821 51.8596698 287.012821 52.9287014 286.020619 52.9287014 286.020619 54.108263 285.027989 54.108263 285.027989 54.9048891 282.153979 61.2456224 272.970229 66.6200165 264.07482 66.045471 254.030748 66.045471 254.030748 65.2080512 250.098702 64.9248081 250.098702 66.045471 247.875972 66.045471 214.232573 44.9779489 206.898569 29.680462 198.174797 4.68944405 198.174797 4.04158419 198.174797 2.06914907 197.061401 2.06914907 197.061401 0.952119826 195.107776 0.952119826 195.107776 2.06914907 194.035633 2.06914907 194.035633 4.96282339 192.981658 4.96282339 192.981658 6.08882991 192.025365 6.08882991 192.025365 6.97095385 190.021082 6.97095385 190.021082 6.08882991 189.022894 6.08882991 189.022894 4.68944405 187.119499 4.68944405 187.119499 6.08882991 186.011233 6.08882991 186.011233 6.97095385 185.096192 6.97095385 185.096192 7.93494197 184.083257 7.93494197 184.083257 9.97684408 182.943784 9.97684408 182.943784 13.034888 182.011858 13.034888 182.011858 13.9552722 180.924325 13.9552722 180.924325 15.9670363 180.082386 15.9670363 180.082386 17.027637 178.958089 17.027637 178.958089 17.9751668 177.84277 17.9751668 177.84277 19.915754 176.832613 19.915754 176.832613 22.8601879 173.431081 26.5997612 172.980508 26.9306378 171.917983 26.9306378 170.116116 25.1109917 170.116116 23.9122754 169.08715 23.9122754 169.08715 22.041957 167.995342 22.041957 167.995342 21.1394418 167.03969 21.1394418 167.03969 22.041957 166.089382 22.041957 166.089382 22.8601879 163.954715 22.8601879 163.954715 23.9122754 162.953962 23.9122754 162.953962 26.9306378 161.968814 26.9306378 161.968814 29.0480255 161.063178 29.0480255 161.063178 30.9210197 160.057296 30.9210197 160.057296 31.9741776 159.071292 31.9741776 159.071292 33.9074751 158.012401 33.9074751 158.012401 35.9483085 157.018916 35.9483085 157.018916 38.0750672 156.060058 38.0750672 156.060058 39.9002323 156.060058 44.3132032 131.624135 70.8040669 125.324654 68.3453629 118.994394 63.0861771 115.808317 63.0861771 115.808317 65.7026247 98.4853867 64.9248081 70.7409109 45.4182627 62.2699989 34.2494665 61.9820849 33.1106353 61.9820849 31.9741776 58.0675664 31.9741776 58.0675664 32.8218412 57.1606481 32.8218412 57.1606481 33.9074751 55.1527314 33.9074751 54.8496415 35.9483085 54.0168926 35.9483085 54.0168926 36.8402647 53.072569 36.8402647 53.072569 37.7683437 51.9311729 37.7683437 51.9311729 38.9834817 51.0090787 38.9834817 51.0090787 41.0140554 50.0269223 41.0140554 50.0269223 41.8760873 47.8578421 41.8760873 47.8578421 42.9150998 47.0099173 42.9150998 47.0099173 43.8577134 45.994203 43.8577134 45.994203 45.9902433 42.0042327 45.9902433 42.0042327 47.0469965 40.9216163 47.0469965 40.9216163 48.0028624 40.0089269 48.0028624 40.0089269 48.9578732 38.9842353 48.9578732 38.9842353 50.0939257 36.9607152 50.0939257 36.9607152 51.0391178 35.9180691 51.0391178 35.9180691 52.9287014 30.3228769 52.9287014 23.3404822 54.9048891 19.6916482 51.8596698 17.8166806 50.0939257 14.9234338 50.0939257 14.9234338 51.0391178"></polygon>
            <polygon id="Path" fill="#7BC0E7" points="196 3 197 3 197 4 198 4 198 5 199 5 199 7 200 7 200 8 202 8 202 10 203 10 203 15 204 15 204 17 206 17 206 19 207 19 207 20 208 20 208 21 209 21 209 22 210 22 210 23 211 23 211 24 212 24 212 29 214 29 214 30 215 30 215 29 216 29 216 31 215 31 215 32 216 32 216 33 215 33 215 34 216 34 216 33 217 33 217 36 216 36 216 37 214 37 214 36 213 36 213 35 211 35 211 34 208 34 208 33 207 33 207 32 206 32 206 31 205 31 205 30 203 30 203 29 202 29 202 28 201 28 201 30 199 30 199 28 198 28 198 27 197 27 197 24 196 24 196 22 197 22 197 20 196 20 196 18 195 18 195 15 194 15 194 12 193 12 193 9 191 9 191 7 194 7 194 10 195 10 195 9 196 9 196 7 197 7 197 5 196 5"></polygon>
            <polygon id="Path" fill="#5E83A6" points="198 4 199 4 199 5 198 5"></polygon>
            <polygon id="Path" fill="#5E83A6" points="199 5 200 5 200 7 199 7"></polygon>
            <polygon id="Path" fill="#5E83A6" points="200 7 201 7 201 8 200 8"></polygon>
            <polygon id="Path" fill="#5E83A6" points="192 9 193 9 193 10 192 10"></polygon>
            <polygon id="Path" fill="#FFFFFF" points="196 10 197 10 197 12 196 12"></polygon>
            <polygon id="Path" fill="#FFFFFF" points="198 14 199 14 199 16 198 16"></polygon>
            <polygon id="Path" fill="#5E83A6" points="193 15 194 15 194 18 193 18"></polygon>
            <polygon id="Path" fill="#5E83A6" points="189 16 190 16 190 17 189 17"></polygon>
            <polygon id="Path" fill="#5E83A6" points="188 17 189 17 189 18 190 18 190 19 189 19 189 21 188 21 188 22 187 22 187 26 186 26 186 22 185 22 185 21 186 21 186 19 187 19 187 18 188 18"></polygon>
            <path d="M199,17 L200,17 L200,18 L201,18 L201,19 L199,19 L199,17 Z M189,19 L190,19 L190,20 L189,20 L189,19 Z" id="Shape" fill="#FFFFFF" fill-rule="nonzero"></path>
            <polygon id="Path" fill="#7BC0E7" points="190 19 191 19 191 21 190 21 190 22 191 22 191 26 189 26 189 28 190 28 190 29 189 29 189 30 188 30 188 29 187 29 187 23 188 23 188 22 189 22 189 20 190 20"></polygon>
            <path d="M194,19 L195,19 L195,20 L194,20 L194,19 Z M191,20 L192,20 L192,23 L194,23 L194,26 L195,26 L195,27 L196,27 L196,28 L197,28 L197,30 L198,30 L198,31 L199,31 L199,32 L200,32 L200,34 L201,34 L201,36 L202,36 L202,37 L201,37 L201,38 L202,38 L202,37 L203,37 L203,35 L204,35 L204,34 L203,34 L203,32 L204,32 L204,31 L202,31 L202,30 L201,30 L201,28 L202,28 L202,29 L203,29 L203,30 L205,30 L205,31 L206,31 L206,32 L207,32 L207,33 L208,33 L208,34 L211,34 L211,35 L213,35 L213,36 L214,36 L214,37 L211,37 L211,38 L212,38 L212,39 L210,39 L210,40 L211,40 L211,41 L209,41 L209,40 L208,40 L208,39 L206,39 L206,43 L207,43 L207,45 L206,45 L206,46 L205,46 L205,47 L204,47 L204,49 L203,49 L203,50 L202,50 L202,52 L201,52 L201,54 L202,54 L202,55 L200,55 L200,56 L199,56 L199,57 L197,57 L197,59 L196,59 L196,60 L199,60 L199,59 L202,59 L202,60 L201,60 L201,62 L202,62 L202,61 L203,61 L203,63 L202,63 L202,64 L201,64 L201,65 L199,65 L199,64 L200,64 L200,62 L199,62 L199,63 L198,63 L198,64 L197,64 L197,65 L195,65 L195,68 L196,68 L196,66 L197,66 L197,65 L199,65 L199,66 L198,66 L198,67 L199,67 L199,69 L198,69 L198,70 L197,70 L197,71 L198,71 L198,70 L199,70 L199,69 L200,69 L200,67 L201,67 L201,66 L202,66 L202,65 L203,65 L203,64 L205,64 L205,62 L206,62 L206,61 L207,61 L207,60 L209,60 L209,59 L210,59 L210,57 L209,57 L209,56 L210,56 L210,55 L211,55 L211,53 L212,53 L212,52 L213,52 L213,51 L212,51 L212,50 L214,50 L214,49 L215,49 L215,52 L216,52 L216,55 L217,55 L217,56 L218,56 L218,57 L219,57 L219,59 L220,59 L220,61 L221,61 L221,62 L222,62 L222,63 L223,63 L223,62 L222,62 L222,60 L221,60 L221,57 L220,57 L220,53 L221,53 L221,54 L223,54 L223,55 L224,55 L224,56 L225,56 L225,57 L226,57 L226,58 L227,58 L227,60 L228,60 L228,61 L229,61 L229,62 L230,62 L230,63 L231,63 L231,65 L233,65 L233,64 L232,64 L232,61 L231,61 L231,57 L236,57 L236,58 L238,58 L238,59 L241,59 L241,61 L242,61 L242,62 L243,62 L243,64 L244,64 L244,65 L245,65 L245,66 L246,66 L246,67 L247,67 L247,68 L248,68 L248,69 L247,69 L247,70 L248,70 L248,69 L249,69 L249,70 L258,70 L258,71 L256,71 L256,73 L262,73 L262,72 L263,72 L263,71 L264,71 L264,70 L267,70 L267,71 L270,71 L270,70 L271,70 L271,69 L272,69 L272,68 L269,68 L269,69 L268,69 L268,70 L267,70 L267,69 L264,69 L264,70 L263,70 L263,71 L261,71 L261,70 L258,70 L258,69 L259,69 L259,68 L261,68 L261,67 L264,67 L264,66 L267,66 L267,65 L271,65 L271,64 L272,64 L272,65 L273,65 L273,66 L274,66 L274,65 L273,65 L273,64 L275,64 L275,63 L276,63 L276,64 L277,64 L277,63 L278,63 L278,62 L279,62 L279,60 L280,60 L280,59 L281,59 L281,58 L282,58 L282,57 L283,57 L283,56 L284,56 L284,55 L285,55 L285,56 L287,56 L287,55 L288,55 L288,54 L289,54 L289,55 L292,55 L292,54 L295,54 L295,56 L294,56 L294,57 L295,57 L295,56 L296,56 L296,55 L297,55 L297,54 L298,54 L298,56 L297,56 L297,57 L299,57 L299,58 L300,58 L300,57 L299,57 L299,54 L300,54 L300,55 L301,55 L301,52 L302,52 L302,53 L304,53 L304,52 L306,52 L306,51 L308,51 L308,50 L309,50 L309,49 L310,49 L310,48 L311,48 L311,47 L312,47 L312,46 L313,46 L313,47 L315,47 L315,48 L317,48 L317,49 L318,49 L318,48 L320,48 L320,47 L321,47 L321,45 L325,45 L325,44 L316,44 L316,43 L315,43 L315,41 L314,41 L314,35 L313,35 L313,32 L314,32 L314,34 L315,34 L315,32 L316,32 L316,31 L318,31 L318,30 L320,30 L320,29 L323,29 L323,30 L324,30 L324,29 L325,29 L325,31 L326,31 L326,30 L327,30 L327,33 L328,33 L328,34 L330,34 L330,35 L331,35 L331,34 L332,34 L332,35 L333,35 L333,36 L334,36 L334,38 L335,38 L335,40 L336,40 L336,38 L338,38 L338,35 L339,35 L339,34 L341,34 L341,35 L343,35 L343,36 L344,36 L344,37 L345,37 L345,38 L346,38 L346,39 L347,39 L347,40 L350,40 L350,41 L351,41 L351,42 L352,42 L352,41 L351,41 L351,38 L352,38 L352,40 L353,40 L353,42 L354,42 L354,43 L355,43 L355,42 L354,42 L354,41 L356,41 L356,42 L357,42 L357,44 L358,44 L358,45 L360,45 L360,46 L361,46 L361,49 L362,49 L362,51 L363,51 L363,53 L362,53 L362,52 L361,52 L361,50 L360,50 L360,49 L359,49 L359,48 L358,48 L358,47 L356,47 L356,48 L355,48 L355,49 L354,49 L354,50 L353,50 L353,51 L352,51 L352,50 L348,50 L348,49 L346,49 L346,48 L347,48 L347,47 L346,47 L346,46 L345,46 L345,45 L344,45 L344,44 L343,44 L343,43 L342,43 L342,42 L338,42 L338,44 L339,44 L339,47 L338,47 L338,49 L339,49 L339,50 L340,50 L340,52 L341,52 L341,53 L344,53 L344,54 L343,54 L343,55 L345,55 L345,57 L346,57 L346,58 L344,58 L344,59 L343,59 L343,60 L342,60 L342,59 L341,59 L341,60 L340,60 L340,62 L339,62 L339,64 L338,64 L338,65 L336,65 L336,66 L335,66 L335,67 L333,67 L333,68 L332,68 L332,67 L331,67 L331,68 L328,68 L328,69 L332,69 L332,70 L330,70 L330,71 L329,71 L329,70 L327,70 L327,71 L324,71 L324,72 L321,72 L321,73 L319,73 L319,74 L316,74 L316,73 L314,73 L314,74 L316,74 L316,75 L324,75 L324,74 L326,74 L326,73 L327,73 L327,75 L326,75 L326,76 L327,76 L327,77 L326,77 L326,78 L325,78 L325,79 L326,79 L326,78 L328,78 L328,77 L329,77 L329,76 L330,76 L330,75 L331,75 L331,74 L333,74 L333,73 L334,73 L334,72 L335,72 L335,69 L336,69 L336,68 L337,68 L337,67 L338,67 L338,69 L340,69 L340,70 L344,70 L344,69 L346,69 L346,68 L348,68 L348,67 L353,67 L353,66 L355,66 L355,67 L356,67 L356,68 L360,68 L360,69 L361,69 L361,70 L364,70 L364,71 L363,71 L363,72 L364,72 L364,73 L365,73 L365,74 L366,74 L366,75 L368,75 L368,76 L369,76 L369,75 L368,75 L368,74 L367,74 L367,73 L365,73 L365,72 L364,72 L364,71 L365,71 L365,70 L366,70 L366,71 L373,71 L373,72 L375,72 L375,73 L376,73 L376,75 L377,75 L377,72 L376,72 L376,71 L373,71 L373,70 L372,70 L372,67 L371,67 L371,66 L370,66 L370,65 L369,65 L369,67 L368,67 L368,66 L366,66 L366,65 L365,65 L365,64 L362,64 L362,63 L366,63 L366,64 L367,64 L367,62 L366,62 L366,61 L360,61 L360,59 L358,59 L358,60 L357,60 L357,57 L356,57 L356,55 L355,55 L355,54 L353,54 L353,53 L355,53 L355,52 L357,52 L357,53 L358,53 L358,54 L361,54 L361,55 L363,55 L363,56 L364,56 L364,57 L365,57 L365,59 L366,59 L366,60 L367,60 L367,59 L368,59 L368,58 L369,58 L369,59 L370,59 L370,60 L372,60 L372,61 L373,61 L373,62 L375,62 L375,64 L380,64 L380,65 L381,65 L381,64 L383,64 L383,63 L384,63 L384,65 L382,65 L382,66 L379,66 L379,67 L383,67 L383,68 L382,68 L382,69 L383,69 L383,68 L384,68 L384,165 L3,165 L3,164 L1,164 L1,165 L0,165 L0,66 L1,66 L1,67 L3,67 L3,66 L4,66 L4,65 L5,65 L5,66 L6,66 L6,65 L7,65 L7,63 L6,63 L6,64 L4,64 L4,62 L5,62 L5,61 L4,61 L4,60 L5,60 L5,59 L6,59 L6,58 L7,58 L7,57 L8,57 L8,56 L9,56 L9,54 L10,54 L10,53 L11,53 L11,52 L12,52 L12,53 L13,53 L13,54 L12,54 L12,55 L11,55 L11,56 L14,56 L14,55 L15,55 L15,54 L16,54 L16,53 L17,53 L17,52 L18,52 L18,51 L17,51 L17,50 L18,50 L18,49 L19,49 L19,50 L20,50 L20,49 L22,49 L22,51 L23,51 L23,52 L24,52 L24,53 L22,53 L22,54 L23,54 L23,55 L25,55 L25,56 L27,56 L27,57 L34,57 L34,58 L31,58 L31,59 L30,59 L30,60 L29,60 L29,61 L28,61 L28,63 L30,63 L30,62 L31,62 L31,61 L35,61 L35,60 L37,60 L37,59 L40,59 L40,58 L43,58 L43,57 L45,57 L45,56 L47,56 L47,57 L53,57 L53,58 L55,58 L55,59 L58,59 L58,57 L57,57 L57,55 L56,55 L56,54 L54,54 L54,53 L53,53 L53,51 L52,51 L52,50 L55,50 L55,51 L56,51 L56,49 L55,49 L55,47 L56,47 L56,48 L57,48 L57,50 L58,50 L58,49 L59,49 L59,50 L62,50 L62,51 L64,51 L64,52 L65,52 L65,53 L68,53 L68,52 L67,52 L67,51 L68,51 L68,50 L69,50 L69,51 L70,51 L70,52 L73,52 L73,51 L72,51 L72,50 L74,50 L74,51 L77,51 L77,52 L80,52 L80,51 L85,51 L85,52 L90,52 L90,54 L91,54 L91,56 L93,56 L93,57 L94,57 L94,58 L95,58 L95,61 L94,61 L94,60 L91,60 L91,59 L89,59 L89,58 L87,58 L87,59 L88,59 L88,60 L89,60 L89,61 L91,61 L91,62 L92,62 L92,63 L94,63 L94,64 L95,64 L95,65 L96,65 L96,68 L97,68 L97,69 L98,69 L98,71 L99,71 L99,72 L100,72 L100,73 L101,73 L101,74 L102,74 L102,71 L101,71 L101,70 L100,70 L100,67 L99,67 L99,61 L98,61 L98,60 L97,60 L97,59 L96,59 L96,58 L98,58 L98,59 L99,59 L99,60 L100,60 L100,62 L101,62 L101,63 L102,63 L102,64 L103,64 L103,62 L102,62 L102,61 L101,61 L101,59 L102,59 L102,58 L101,58 L101,59 L100,59 L100,58 L99,58 L99,57 L100,57 L100,55 L101,55 L101,56 L102,56 L102,57 L103,57 L103,54 L104,54 L104,55 L105,55 L105,56 L106,56 L106,57 L107,57 L107,58 L108,58 L108,60 L109,60 L109,61 L110,61 L110,62 L111,62 L111,63 L112,63 L112,64 L113,64 L113,65 L114,65 L114,66 L116,66 L116,65 L118,65 L118,67 L119,67 L119,66 L120,66 L120,67 L121,67 L121,66 L122,66 L122,67 L123,67 L123,68 L125,68 L125,67 L131,67 L131,68 L132,68 L132,67 L134,67 L134,66 L135,66 L135,65 L136,65 L136,64 L137,64 L137,62 L138,62 L138,61 L139,61 L139,59 L140,59 L140,58 L141,58 L141,57 L142,57 L142,56 L143,56 L143,55 L144,55 L144,52 L145,52 L145,51 L146,51 L146,50 L147,50 L147,54 L148,54 L148,52 L149,52 L149,51 L150,51 L150,50 L151,50 L151,49 L152,49 L152,48 L151,48 L151,47 L152,47 L152,46 L153,46 L153,45 L155,45 L155,44 L156,44 L156,42 L155,42 L155,43 L154,43 L154,44 L152,44 L152,43 L153,43 L153,42 L154,42 L154,41 L155,41 L155,40 L157,40 L157,39 L159,39 L159,38 L161,38 L161,37 L162,37 L162,34 L163,34 L163,32 L164,32 L164,31 L169,31 L169,32 L167,32 L167,33 L169,33 L169,32 L170,32 L170,31 L171,31 L171,30 L172,30 L172,28 L173,28 L173,30 L174,30 L174,31 L173,31 L173,32 L171,32 L171,34 L168,34 L168,35 L169,35 L169,36 L166,36 L166,37 L165,37 L165,38 L164,38 L164,39 L163,39 L163,40 L164,40 L164,39 L166,39 L166,40 L165,40 L165,42 L166,42 L166,41 L167,41 L167,40 L168,40 L168,39 L169,39 L169,38 L170,38 L170,37 L171,37 L171,39 L170,39 L170,41 L169,41 L169,42 L168,42 L168,44 L167,44 L167,45 L166,45 L166,46 L165,46 L165,47 L164,47 L164,48 L163,48 L163,49 L162,49 L162,50 L163,50 L163,49 L166,49 L166,51 L165,51 L165,52 L164,52 L164,51 L163,51 L163,52 L161,52 L161,54 L160,54 L160,55 L158,55 L158,56 L157,56 L157,57 L158,57 L158,58 L162,58 L162,57 L165,57 L165,56 L169,56 L169,55 L170,55 L170,54 L171,54 L171,53 L170,53 L170,52 L172,52 L172,51 L171,51 L171,50 L177,50 L177,51 L179,51 L179,52 L180,52 L180,53 L183,53 L183,54 L185,54 L185,52 L184,52 L184,51 L183,51 L183,50 L182,50 L182,48 L183,48 L183,47 L184,47 L184,46 L185,46 L185,45 L187,45 L187,44 L188,44 L188,43 L190,43 L190,44 L191,44 L191,42 L192,42 L192,41 L191,41 L191,40 L190,40 L190,39 L188,39 L188,40 L187,40 L187,42 L185,42 L185,44 L182,44 L182,45 L177,45 L177,44 L179,44 L179,42 L180,42 L180,43 L181,43 L181,41 L180,41 L180,39 L181,39 L181,38 L185,38 L185,37 L189,37 L189,38 L191,38 L191,39 L194,39 L194,38 L195,38 L195,40 L196,40 L196,41 L197,41 L197,42 L198,42 L198,41 L199,41 L199,40 L198,40 L198,39 L197,39 L197,37 L193,37 L193,36 L192,36 L192,33 L191,33 L191,29 L190,29 L190,28 L189,28 L189,26 L191,26 L191,22 L190,22 L190,21 L191,21 L191,20 Z" id="Shape" fill="#5E83A6" fill-rule="nonzero"></path>
            <polygon id="Path" fill="#FFFFFF" points="198 20 199 20 199 21 198 21"></polygon>
            <path d="M177,21 L178,21 L178,22 L179,22 L179,23 L178,23 L178,25 L179,25 L179,26 L178,26 L178,27 L177,27 L177,28 L176,28 L176,29 L175,29 L175,30 L174,30 L174,28 L175,28 L175,27 L176,27 L176,26 L174,26 L174,25 L175,25 L175,24 L176,24 L176,22 L177,22 L177,21 Z M181,21 L182,21 L182,22 L181,22 L181,21 Z" id="Shape" fill="#5E83A6" fill-rule="nonzero"></path>
            <polygon id="Path" fill="#FFFFFF" points="188 21 189 21 189 22 188 22"></polygon>
            <polygon id="Path" fill="#FFFFFF" points="187 22 188 22 188 23 187 23"></polygon>
            <polygon id="Path" fill="#5E83A6" points="323 22 324 22 324 23 323 23"></polygon>
            <polygon id="Path" fill="#7BC0E7" points="168 23 169 23 169 26 170 26 170 25 172 25 172 26 171 26 171 28 169 28 169 31 165 31 165 29 166 29 166 27 167 27 167 26 168 26"></polygon>
            <path d="M200,23 L201,23 L201,25 L200,25 L200,23 Z M207,23 L208,23 L208,25 L207,25 L207,23 Z M325,23 L326,23 L326,24 L327,24 L327,25 L325,25 L325,23 Z M179,24 L180,24 L180,25 L179,25 L179,24 Z M184,24 L185,24 L185,26 L184,26 L184,24 Z M205,24 L206,24 L206,25 L205,25 L205,24 Z" id="Shape" fill="#5E83A6" fill-rule="nonzero"></path>
            <polygon id="Path" fill="#7BC0E7" points="328 25 329 25 329 27 330 27 330 28 331 28 331 29 332 29 332 30 333 30 333 33 332 33 332 34 331 34 331 35 330 35 330 34 328 34 328 33 327 33 327 30 326 30 326 31 325 31 325 28 326 28 326 27 327 27 327 26 328 26"></polygon>
            <path d="M171,26 L172,26 L172,27 L171,27 L171,26 Z M173,26 L174,26 L174,27 L173,27 L173,26 Z" id="Shape" fill="#5E83A6" fill-rule="nonzero"></path>
            <polygon id="Path" fill="#7BC0E7" points="184 26 185 26 185 30 186 30 186 31 184 31 184 33 183 33 183 32 181 32 181 33 180 33 180 34 179 34 179 35 181 35 181 34 183 34 183 35 182 35 182 36 181 36 181 37 179 37 179 36 178 36 178 35 177 35 177 34 174 34 174 33 176 33 176 32 178 32 178 31 179 31 179 30 181 30 181 29 182 29 182 28 183 28 183 27 184 27"></polygon>
            <path d="M203,26 L204,26 L204,27 L203,27 L203,26 Z M212,26 L213,26 L213,27 L214,27 L214,29 L212,29 L212,26 Z" id="Shape" fill="#5E83A6" fill-rule="nonzero"></path>
            <path d="M204,27 L205,27 L205,28 L204,28 L204,27 Z M169,28 L170,28 L170,29 L169,29 L169,28 Z" id="Shape" fill="#5E83A6" fill-rule="nonzero"></path>
            <path d="M180,28 L181,28 L181,29 L180,29 L180,28 Z M214,28 L215,28 L215,29 L214,29 L214,28 Z" id="Shape" fill="#7BC0E7" fill-rule="nonzero"></path>
            <polygon id="Path" fill="#5E83A6" points="313 28 316 28 316 30 313 30 313 31 312 31 312 33 311 33 311 31 310 31 310 30 311 30 311 29 313 29"></polygon>
            <polygon id="Path" fill="#FFFFFF" points="189 29 191 29 191 30 189 30"></polygon>
            <path d="M208,29 L209,29 L209,30 L208,30 L208,29 Z M214,29 L215,29 L215,30 L214,30 L214,29 Z M216,29 L217,29 L217,30 L218,30 L218,34 L219,34 L219,36 L217,36 L217,33 L216,33 L216,32 L215,32 L215,31 L216,31 L216,29 Z" id="Shape" fill="#5E83A6" fill-rule="nonzero"></path>
            <path d="M323,29 L324,29 L324,30 L323,30 L323,29 Z M342,29 L343,29 L343,30 L342,30 L342,29 Z M189,30 L191,30 L191,31 L189,31 L189,30 Z M201,30 L202,30 L202,31 L201,31 L201,30 Z" id="Shape" fill="#7BC0E7" fill-rule="nonzero"></path>
            <path d="M209,30 L210,30 L210,31 L209,31 L209,30 Z M201,31 L202,31 L202,32 L201,32 L201,31 Z" id="Shape" fill="#5E83A6" fill-rule="nonzero"></path>
            <polygon id="Path" fill="#7BC0E7" points="202 31 204 31 204 32 202 32"></polygon>
            <polygon id="Path" fill="#5E83A6" points="210 31 211 31 211 32 212 32 212 33 210 33"></polygon>
            <polygon id="Path" fill="#7BC0E7" points="344 31 346 31 346 33 347 33 347 35 348 35 348 37 350 37 350 38 351 38 351 41 350 41 350 40 347 40 347 38 345 38 345 37 344 37 344 36 343 36 343 35 341 35 341 33 342 33 342 32 344 32"></polygon>
            <polygon id="Path" fill="#FFFFFF" points="167 32 169 32 169 33 167 33"></polygon>
            <path d="M190,32 L191,32 L191,34 L192,34 L192,36 L193,36 L193,38 L189,38 L189,37 L185,37 L185,36 L187,36 L187,35 L190,35 L190,32 Z M218,32 L219,32 L219,33 L220,33 L220,35 L221,35 L221,39 L222,39 L222,40 L223,40 L223,42 L224,42 L224,43 L223,43 L223,44 L224,44 L224,45 L223,45 L223,46 L224,46 L224,47 L225,47 L225,48 L224,48 L224,49 L223,49 L223,48 L222,48 L222,49 L223,49 L223,50 L224,50 L224,52 L225,52 L225,50 L226,50 L226,52 L227,52 L227,51 L229,51 L229,53 L230,53 L230,54 L231,54 L231,55 L232,55 L232,56 L234,56 L234,55 L236,55 L236,54 L238,54 L238,55 L237,55 L237,56 L238,56 L238,55 L240,55 L240,56 L241,56 L241,58 L242,58 L242,59 L243,59 L243,60 L244,60 L244,62 L245,62 L245,63 L246,63 L246,65 L247,65 L247,66 L248,66 L248,67 L249,67 L249,68 L250,68 L250,69 L251,69 L251,70 L249,70 L249,69 L248,69 L248,68 L247,68 L247,67 L246,67 L246,66 L245,66 L245,65 L244,65 L244,64 L243,64 L243,62 L242,62 L242,61 L241,61 L241,59 L238,59 L238,58 L236,58 L236,57 L231,57 L231,61 L232,61 L232,64 L233,64 L233,65 L231,65 L231,63 L230,63 L230,62 L229,62 L229,61 L228,61 L228,60 L227,60 L227,58 L226,58 L226,57 L225,57 L225,56 L224,56 L224,55 L223,55 L223,54 L221,54 L221,53 L220,53 L220,57 L221,57 L221,60 L222,60 L222,62 L221,62 L221,61 L220,61 L220,59 L219,59 L219,57 L218,57 L218,56 L217,56 L217,55 L216,55 L216,52 L215,52 L215,49 L214,49 L214,50 L213,50 L213,48 L212,48 L212,47 L211,47 L211,42 L212,42 L212,40 L211,40 L211,39 L215,39 L215,41 L216,41 L216,42 L217,42 L217,43 L216,43 L216,44 L218,44 L218,43 L220,43 L220,42 L221,42 L221,40 L220,40 L220,36 L219,36 L219,34 L218,34 L218,32 Z M60,33 L61,33 L61,34 L62,34 L62,33 L63,33 L63,34 L64,34 L64,35 L65,35 L65,36 L66,36 L66,37 L67,37 L67,39 L69,39 L69,40 L70,40 L70,41 L71,41 L71,42 L72,42 L72,43 L74,43 L74,44 L76,44 L76,45 L77,45 L77,44 L78,44 L78,45 L81,45 L81,46 L76,46 L76,48 L75,48 L75,49 L76,49 L76,50 L77,50 L77,51 L74,51 L74,50 L72,50 L72,49 L70,49 L70,48 L69,48 L69,49 L70,49 L70,51 L69,51 L69,50 L68,50 L68,51 L67,51 L67,52 L66,52 L66,50 L64,50 L64,49 L63,49 L63,48 L64,48 L64,47 L63,47 L63,46 L62,46 L62,45 L60,45 L60,44 L62,44 L62,42 L63,42 L63,39 L62,39 L62,38 L61,38 L61,36 L60,36 L60,33 Z M162,33 L163,33 L163,34 L162,34 L162,33 Z" id="Shape" fill="#7BC0E7" fill-rule="nonzero"></path>
            <polygon id="Path" fill="#FFFFFF" points="180 33 181 33 181 34 180 34"></polygon>
            <polygon id="Path" fill="#5E83A6" points="181 33 182 33 182 34 181 34"></polygon>
            <polygon id="Path" fill="#FFFFFF" points="191 33 192 33 192 34 191 34"></polygon>
            <path d="M212,33 L213,33 L213,34 L212,34 L212,33 Z M215,33 L216,33 L216,34 L215,34 L215,33 Z" id="Shape" fill="#5E83A6" fill-rule="nonzero"></path>
            <path d="M314,33 L315,33 L315,34 L314,34 L314,33 Z M319,33 L321,33 L321,36 L322,36 L322,37 L323,37 L323,38 L324,38 L324,39 L325,39 L325,40 L324,40 L324,41 L321,41 L321,42 L319,42 L319,41 L318,41 L318,34 L319,34 L319,33 Z" id="Shape" fill="#7BC0E7" fill-rule="nonzero"></path>
            <path d="M343,33 L345,33 L345,35 L344,35 L344,34 L343,34 L343,33 Z M176,34 L177,34 L177,35 L178,35 L178,36 L179,36 L179,37 L177,37 L177,36 L176,36 L176,34 Z" id="Shape" fill="#5E83A6" fill-rule="nonzero"></path>
            <polygon id="Path" fill="#FFFFFF" points="179 34 180 34 180 35 179 35"></polygon>
            <polygon id="Path" fill="#5E83A6" points="180 34 181 34 181 35 180 35"></polygon>
            <polygon id="Path" fill="#7BC0E7" points="203 34 204 34 204 35 203 35"></polygon>
            <polygon id="Path" fill="#5E83A6" points="220 34 221 34 221 35 220 35"></polygon>
            <polygon id="Path" fill="#7BC0E7" points="326 34 327 34 327 35 326 35"></polygon>
            <polygon id="Path" fill="#5E83A6" points="347 34 348 34 348 35 347 35"></polygon>
            <polygon id="Path" fill="#FFFFFF" points="214 35 215 35 215 36 214 36"></polygon>
            <polygon id="Path" fill="#5E83A6" points="221 35 222 35 222 39 221 39"></polygon>
            <polygon id="Path" fill="#7BC0E7" points="312 35 314 35 314 41 313 41 313 43 312 43 312 44 313 44 313 43 314 43 314 41 315 41 315 43 316 43 316 44 315 44 315 45 313 45 313 46 312 46 312 47 311 47 311 48 310 48 310 49 309 49 309 50 308 50 308 51 306 51 306 52 304 52 304 53 302 53 302 52 303 52 303 51 305 51 305 50 306 50 306 48 307 48 307 46 308 46 308 44 309 44 309 42 310 42 310 38 311 38 311 36 312 36"></polygon>
            <path d="M345,35 L346,35 L346,36 L345,36 L345,35 Z M348,35 L349,35 L349,37 L348,37 L348,35 Z" id="Shape" fill="#5E83A6" fill-rule="nonzero"></path>
            <polygon id="Path" fill="#7BC0E7" points="163 36 164 36 164 37 163 37"></polygon>
            <polygon id="Path" fill="#5E83A6" points="216 36 217 36 217 37 216 37"></polygon>
            <polygon id="Path" fill="#FFFFFF" points="217 36 219 36 219 37 220 37 220 40 221 40 221 42 220 42 220 43 218 43 218 44 216 44 216 43 217 43 217 42 218 42 218 40 217 40 217 39 216 39 216 38 213 38 213 39 212 39 212 38 211 38 211 37 217 37"></polygon>
            <polygon id="Path" fill="#5E83A6" points="219 36 220 36 220 37 219 37"></polygon>
            <polygon id="Path" fill="#5E83A6" points="346 36 347 36 347 37 346 37"></polygon>
            <path d="M160,37 L161,37 L161,38 L160,38 L160,37 Z M176,37 L179,37 L179,38 L181,38 L181,39 L180,39 L180,41 L181,41 L181,43 L180,43 L180,42 L179,42 L179,44 L177,44 L177,45 L176,45 L176,46 L173,46 L173,47 L171,47 L171,48 L175,48 L175,49 L176,49 L176,48 L177,48 L177,47 L180,47 L180,46 L182,46 L182,45 L185,45 L185,46 L184,46 L184,47 L183,47 L183,48 L182,48 L182,50 L183,50 L183,51 L184,51 L184,52 L185,52 L185,54 L183,54 L183,53 L180,53 L180,52 L179,52 L179,51 L177,51 L177,50 L171,50 L171,51 L172,51 L172,52 L170,52 L170,53 L171,53 L171,54 L170,54 L170,55 L169,55 L169,56 L165,56 L165,57 L162,57 L162,56 L163,56 L163,55 L164,55 L164,54 L166,54 L166,53 L168,53 L168,52 L169,52 L169,51 L168,51 L168,49 L170,49 L170,48 L169,48 L169,47 L170,47 L170,46 L172,46 L172,45 L174,45 L174,44 L173,44 L173,43 L174,43 L174,40 L175,40 L175,39 L176,39 L176,37 Z" id="Shape" fill="#7BC0E7" fill-rule="nonzero"></path>
            <polygon id="Path" fill="#5E83A6" points="179 37 181 37 181 38 179 38"></polygon>
            <polygon id="Path" fill="#7BC0E7" points="181 37 185 37 185 38 181 38"></polygon>
            <polygon id="Path" fill="#FFFFFF" points="193 37 195 37 195 38 194 38 194 39 191 39 191 38 193 38"></polygon>
            <polygon id="Path" fill="#7BC0E7" points="195 37 197 37 197 39 198 39 198 40 199 40 199 41 198 41 198 42 197 42 197 41 196 41 196 40 195 40"></polygon>
            <polygon id="Path" fill="#FFFFFF" points="201 37 202 37 202 38 201 38"></polygon>
            <path d="M320,37 L321,37 L321,38 L320,38 L320,37 Z M350,37 L351,37 L351,38 L350,38 L350,37 Z" id="Shape" fill="#5E83A6" fill-rule="nonzero"></path>
            <polygon id="Path" fill="#5E83A6" points="213 38 216 38 216 39 217 39 217 40 218 40 218 42 216 42 216 41 215 41 215 39 213 39"></polygon>
            <polygon id="Path" fill="#7BC0E6" points="346 38 347 38 347 39 346 39"></polygon>
            <polygon id="Path" fill="#FFFFFF" points="161 39 162 39 162 40 161 40"></polygon>
            <polygon id="Path" fill="#7BC0E7" points="163 39 164 39 164 40 163 40"></polygon>
            <polygon id="Path" fill="#FFFFFF" points="170 39 171 39 171 41 170 41"></polygon>
            <polygon id="Path" fill="#7BC0E7" points="171 39 172 39 172 41 171 41"></polygon>
            <g id="Group" transform="translate(185.000000, 39.000000)" fill="#FFFFFF">
                <path d="M3,0 L5,0 L5,1 L4,1 L4,3 L3,3 L3,4 L1,4 L1,5 L0,5 L0,3 L2,3 L2,1 L3,1 L3,0 Z M21,0 L23,0 L23,1 L24,1 L24,2 L26,2 L26,1 L27,1 L27,3 L26,3 L26,8 L27,8 L27,9 L28,9 L28,11 L27,11 L27,12 L28,12 L28,13 L27,13 L27,14 L26,14 L26,16 L25,16 L25,17 L24,17 L24,18 L23,18 L23,15 L24,15 L24,13 L23,13 L23,14 L22,14 L22,16 L21,16 L21,18 L20,18 L20,19 L22,19 L22,18 L23,18 L23,19 L24,19 L24,18 L25,18 L25,20 L24,20 L24,21 L22,21 L22,22 L21,22 L21,23 L20,23 L20,25 L18,25 L18,26 L17,26 L17,27 L16,27 L16,28 L15,28 L15,30 L14,30 L14,28 L13,28 L13,27 L14,27 L14,26 L16,26 L16,25 L17,25 L17,24 L18,24 L18,22 L19,22 L19,19 L17,19 L17,18 L16,18 L16,19 L15,19 L15,20 L13,20 L13,21 L11,21 L11,20 L12,20 L12,18 L14,18 L14,17 L15,17 L15,16 L17,16 L17,15 L16,15 L16,14 L18,14 L18,13 L20,13 L20,9 L21,9 L21,8 L20,8 L20,7 L21,7 L21,6 L22,6 L22,4 L21,4 L21,0 Z" id="Shape" fill-rule="nonzero"></path>
                <polygon id="Path" points="25 0 26 0 26 1 25 1"></polygon>
            </g>
            <polygon id="Path" fill="#5E83A6" points="222 39 223 39 223 40 222 40"></polygon>
            <polygon id="Path" fill="#5E83A6" points="61 40 62 40 62 41 61 41"></polygon>
            <polygon id="Path" fill="#FFFFFF" points="159 40 161 40 161 41 159 41"></polygon>
            <polygon id="Path" fill="#5E83A6" points="172 40 173 40 173 41 172 41"></polygon>
            <polygon id="Path" fill="#7BC0E7" points="189 40 191 40 191 41 192 41 192 42 191 42 191 44 190 44 190 43 188 43 188 42 189 42"></polygon>
            <path d="M213,40 L214,40 L214,41 L213,41 L213,40 Z M223,40 L224,40 L224,42 L223,42 L223,40 Z" id="Shape" fill="#5E83A6" fill-rule="nonzero"></path>
            <polygon id="Path" fill="#FFFFFF" points="324 40 327 40 327 41 326 41 326 42 323 42 323 43 322 43 322 42 321 42 321 41 324 41"></polygon>
            <polygon id="Path" fill="#5E83A6" points="59 41 60 41 60 42 59 42"></polygon>
            <polygon id="Path" fill="#FFFFFF" points="157 41 159 41 159 42 157 42"></polygon>
            <polygon id="Path" fill="#7BC0E7" points="170 41 171 41 171 42 170 42"></polygon>
            <path d="M171,41 L172,41 L172,42 L171,42 L171,41 Z M313,41 L314,41 L314,43 L313,43 L313,41 Z" id="Shape" fill="#5E83A6" fill-rule="nonzero"></path>
            <polygon id="Path" fill="#7BC0E7" points="351 41 352 41 352 42 351 42"></polygon>
            <polygon id="Path" fill="#FFFFFF" points="155 42 156 42 156 44 155 44 155 45 153 45 153 46 152 46 152 47 151 47 151 48 152 48 152 49 151 49 151 50 150 50 150 51 149 51 149 52 148 52 148 54 147 54 147 50 148 50 148 49 149 49 149 48 150 48 150 46 151 46 151 45 152 45 152 44 154 44 154 43 155 43"></polygon>
            <polygon id="Path" fill="#5E83A6" points="170 42 171 42 171 43 170 43"></polygon>
            <path d="M171,42 L172,42 L172,43 L171,43 L171,42 Z M198,42 L199,42 L199,43 L198,43 L198,42 Z" id="Shape" fill="#7BC0E7" fill-rule="nonzero"></path>
            <path d="M212,42 L213,42 L213,43 L212,43 L212,42 Z M224,42 L225,42 L225,43 L224,43 L224,42 Z" id="Shape" fill="#5E83A6" fill-rule="nonzero"></path>
            <path d="M338,42 L342,42 L342,43 L341,43 L341,44 L340,44 L340,45 L341,45 L341,46 L342,46 L342,43 L343,43 L343,49 L342,49 L342,50 L339,50 L339,49 L338,49 L338,47 L339,47 L339,44 L338,44 L338,42 Z M354,42 L355,42 L355,43 L354,43 L354,42 Z" id="Shape" fill="#FFFFFF" fill-rule="nonzero"></path>
            <polygon id="Path" fill="#7BC0E7" points="82 43 84 43 84 44 82 44"></polygon>
            <polygon id="Path" fill="#FFFFFF" points="164 43 165 43 165 44 164 44"></polygon>
            <polygon id="Path" fill="#7BC0E7" points="169 43 170 43 170 44 169 44"></polygon>
            <polygon id="Path" fill="#5E83A6" points="186 43 187 43 187 44 186 44"></polygon>
            <path d="M187,43 L188,43 L188,44 L187,44 L187,43 Z M192,43 L193,43 L193,45 L195,45 L195,46 L191,46 L191,44 L192,44 L192,43 Z" id="Shape" fill="#7BC0E7" fill-rule="nonzero"></path>
            <path d="M213,43 L214,43 L214,44 L213,44 L213,43 Z M223,43 L224,43 L224,44 L223,44 L223,43 Z" id="Shape" fill="#5E83A6" fill-rule="nonzero"></path>
            <polygon id="Path" fill="#7BC0E7" points="224 43 225 43 225 44 224 44"></polygon>
            <path d="M225,43 L226,43 L226,47 L224,47 L224,46 L223,46 L223,45 L224,45 L224,44 L225,44 L225,43 Z M312,43 L313,43 L313,44 L312,44 L312,43 Z M341,43 L342,43 L342,46 L341,46 L341,45 L340,45 L340,44 L341,44 L341,43 Z" id="Shape" fill="#5E83A6" fill-rule="nonzero"></path>
            <polygon id="Path" fill="#7BC0E7" points="51 44 52 44 52 45 54 45 54 46 56 46 56 47 55 47 55 49 56 49 56 51 55 51 55 50 52 50 52 49 51 49 51 50 52 50 52 51 53 51 53 53 54 53 54 54 56 54 56 55 57 55 57 56 53 56 53 55 51 55 51 56 50 56 50 55 49 55 49 54 47 54 47 53 48 53 48 52 49 52 49 51 48 51 48 50 47 50 47 49 48 49 48 48 51 48 51 47 49 47 49 46 50 46 50 45 51 45"></polygon>
            <path d="M76,44 L77,44 L77,45 L76,45 L76,44 Z M78,44 L85,44 L85,45 L86,45 L86,46 L81,46 L81,45 L78,45 L78,44 Z" id="Shape" fill="#5E83A6" fill-rule="nonzero"></path>
            <polygon id="Path" fill="#7BC0E7" points="85 44 86 44 86 45 85 45"></polygon>
            <polygon id="Path" fill="#5E83A6" points="86 44 87 44 87 45 86 45"></polygon>
            <polygon id="Path" fill="#7BC0E7" points="87 44 89 44 89 45 88 45 88 47 84 47 84 46 86 46 86 45 87 45"></polygon>
            <polygon id="Path" fill="#5E83A6" points="151 44 152 44 152 45 151 45"></polygon>
            <path d="M163,44 L164,44 L164,45 L163,45 L163,44 Z M182,44 L185,44 L185,45 L182,45 L182,44 Z" id="Shape" fill="#FFFFFF" fill-rule="nonzero"></path>
            <polygon id="Path" fill="#7BC0E7" points="185 44 187 44 187 45 185 45"></polygon>
            <path d="M214,44 L215,44 L215,45 L214,45 L214,44 Z M315,44 L316,44 L316,45 L315,45 L315,44 Z" id="Shape" fill="#5E83A6" fill-rule="nonzero"></path>
            <polygon id="Path" fill="#FFFFFF" points="316 44 325 44 325 45 321 45 321 47 320 47 320 46 317 46 317 47 320 47 320 48 318 48 318 49 317 49 317 48 315 48 315 47 313 47 313 46 314 46 314 45 316 45"></polygon>
            <polygon id="Path" fill="#7BC0E7" points="343 44 344 44 344 45 345 45 345 46 346 46 346 47 347 47 347 48 346 48 346 49 348 49 348 50 352 50 352 51 349 51 349 52 348 52 348 54 347 54 347 55 346 55 346 57 345 57 345 55 343 55 343 54 344 54 344 53 341 53 341 52 340 52 340 50 342 50 342 49 343 49"></polygon>
            <polygon id="Path" fill="#FFFFFF" points="88 45 89 45 89 46 95 46 95 48 94 48 94 47 93 47 93 48 94 48 94 49 92 49 92 50 91 50 91 51 89 51 89 52 88 52 88 51 87 51 87 52 85 52 85 51 80 51 80 50 77 50 77 49 76 49 76 46 84 46 84 47 88 47"></polygon>
            <polygon id="Path" fill="#5E83A6" points="89 45 96 45 96 46 99 46 99 47 100 47 100 48 99 48 99 49 100 49 100 51 101 51 101 52 102 52 102 53 103 53 103 54 101 54 101 53 100 53 100 52 99 52 99 51 98 51 98 52 99 52 99 53 100 53 100 55 99 55 99 54 97 54 97 51 94 51 94 50 95 50 95 46 89 46"></polygon>
            <polygon id="Path" fill="#5E83A6" points="150 45 151 45 151 46 150 46"></polygon>
            <polygon id="Path" fill="#FFFFFF" points="176 45 182 45 182 46 180 46 180 47 177 47 177 48 173 48 173 47 175 47 175 46 176 46"></polygon>
            <g id="Group" transform="translate(49.000000, 45.000000)" fill="#5E83A6" fill-rule="nonzero">
                <path d="M159,0 L161,0 L161,1 L159,1 L159,0 Z M166,0 L167,0 L167,1 L166,1 L166,0 Z M264,0 L265,0 L265,1 L264,1 L264,0 Z M99,1 L101,1 L101,3 L100,3 L100,4 L99,4 L99,5 L98,5 L98,2 L99,2 L99,1 Z" id="Shape"></path>
                <path d="M124,1 L126,1 L126,2 L124,2 L124,1 Z M167,1 L168,1 L168,2 L169,2 L169,3 L170,3 L170,4 L169,4 L169,5 L168,5 L168,3 L167,3 L167,1 Z M259,1 L260,1 L260,2 L259,2 L259,1 Z M268,1 L271,1 L271,2 L268,2 L268,1 Z M0,2 L1,2 L1,3 L0,3 L0,2 Z" id="Shape"></path>
            </g>
            <polygon id="Path" fill="#FFFFFF" points="50 47 51 47 51 48 50 48"></polygon>
            <polygon id="Path" fill="#5E83A6" points="53 47 54 47 54 48 53 48"></polygon>
            <polygon id="Path" fill="#7BC0E7" points="56 47 57 47 57 48 56 48"></polygon>
            <path d="M57,47 L58,47 L58,48 L57,48 L57,47 Z M93,47 L94,47 L94,48 L93,48 L93,47 Z M171,47 L173,47 L173,48 L171,48 L171,47 Z" id="Shape" fill="#5E83A6" fill-rule="nonzero"></path>
            <polygon id="Path" fill="#7BC0E7" points="204 47 205 47 205 52 203 52 203 53 201 53 201 52 202 52 202 50 203 50 203 49 204 49"></polygon>
            <path d="M205,47 L206,47 L206,48 L205,48 L205,47 Z M219,47 L220,47 L220,48 L219,48 L219,47 Z" id="Shape" fill="#5E83A6" fill-rule="nonzero"></path>
            <polygon id="Path" fill="#FFFFFF" points="225 47 226 47 226 48 225 48"></polygon>
            <path d="M226,47 L227,47 L227,48 L228,48 L228,50 L229,50 L229,51 L227,51 L227,52 L226,52 L226,50 L225,50 L225,52 L224,52 L224,50 L223,50 L223,49 L224,49 L224,48 L226,48 L226,47 Z M306,47 L307,47 L307,48 L306,48 L306,47 Z" id="Shape" fill="#5E83A6" fill-rule="nonzero"></path>
            <polygon id="Path" fill="#FFFFFF" points="326 47 329 47 329 48 326 48"></polygon>
            <polygon id="Path" fill="#5E83A6" points="340 47 341 47 341 48 340 48"></polygon>
            <polygon id="Path" fill="#FFFFFF" points="356 47 358 47 358 50 357 50 357 52 355 52 355 53 353 53 353 56 354 56 354 58 352 58 352 59 351 59 351 60 349 60 349 61 348 61 348 62 347 62 347 63 350 63 350 62 353 62 353 63 354 63 354 65 355 65 355 66 353 66 353 67 348 67 348 68 346 68 346 67 347 67 347 66 348 66 348 65 347 65 347 64 344 64 344 62 343 62 343 61 342 61 342 60 343 60 343 59 344 59 344 58 346 58 346 55 347 55 347 54 348 54 348 52 349 52 349 51 353 51 353 50 354 50 354 49 355 49 355 48 356 48"></polygon>
            <polygon id="Path" fill="#5E83A6" points="16 48 18 48 18 49 17 49 17 50 15 50 15 49 16 49"></polygon>
            <polygon id="Path" fill="#7BC0E7" points="57 48 58 48 58 50 57 50"></polygon>
            <path d="M59,48 L60,48 L60,49 L59,49 L59,48 Z M69,48 L70,48 L70,49 L69,49 L69,48 Z M75,48 L76,48 L76,49 L75,49 L75,48 Z" id="Shape" fill="#5E83A6" fill-rule="nonzero"></path>
            <path d="M94,48 L95,48 L95,49 L94,49 L94,48 Z M99,48 L101,48 L101,51 L100,51 L100,49 L99,49 L99,48 Z" id="Shape" fill="#7BC0E7" fill-rule="nonzero"></path>
            <path d="M166,48 L167,48 L167,49 L166,49 L166,48 Z M169,48 L170,48 L170,49 L169,49 L169,48 Z M175,48 L176,48 L176,49 L175,49 L175,48 Z" id="Shape" fill="#5E83A6" fill-rule="nonzero"></path>
            <polygon id="Path" fill="#7BC0E7" points="199 48 200 48 200 49 199 49"></polygon>
            <path d="M208,48 L210,48 L210,49 L208,49 L208,48 Z M222,48 L223,48 L223,49 L222,49 L222,48 Z M300,48 L301,48 L301,49 L300,49 L300,48 Z M302,48 L303,48 L303,49 L302,49 L302,48 Z M305,48 L306,48 L306,50 L305,50 L305,51 L303,51 L303,50 L304,50 L304,49 L305,49 L305,48 Z M307,48 L308,48 L308,49 L307,49 L307,48 Z" id="Shape" fill="#5E83A6" fill-rule="nonzero"></path>
            <path d="M331,48 L332,48 L332,49 L331,49 L331,48 Z M335,48 L336,48 L336,49 L335,49 L335,48 Z" id="Shape" fill="#FFFFFF" fill-rule="nonzero"></path>
            <polygon id="Path" fill="#5E83A6" points="339 48 340 48 340 49 339 49"></polygon>
            <polygon id="Path" fill="#7BC0E7" points="358 48 359 48 359 49 360 49 360 50 361 50 361 52 362 52 362 53 364 53 364 54 365 54 365 57 364 57 364 56 363 56 363 55 361 55 361 54 358 54 358 53 357 53 357 50 358 50"></polygon>
            <polygon id="Path" fill="#FFFFFF" points="17 49 18 49 18 50 17 50"></polygon>
            <path d="M51,49 L52,49 L52,50 L51,50 L51,49 Z M70,49 L72,49 L72,50 L71,50 L71,51 L70,51 L70,49 Z M76,49 L77,49 L77,50 L76,50 L76,49 Z" id="Shape" fill="#5E83A6" fill-rule="nonzero"></path>
            <polygon id="Path" fill="#7BC0E7" points="92 49 94 49 94 51 93 51 93 52 94 52 94 53 95 53 95 55 96 55 96 53 95 53 95 52 94 52 94 51 97 51 97 54 99 54 99 55 100 55 100 57 99 57 99 58 100 58 100 59 101 59 101 61 102 61 102 62 103 62 103 64 102 64 102 63 101 63 101 62 100 62 100 60 99 60 99 59 98 59 98 58 96 58 96 59 97 59 97 60 98 60 98 61 99 61 99 67 100 67 100 70 101 70 101 71 102 71 102 74 101 74 101 73 100 73 100 72 99 72 99 71 98 71 98 69 97 69 97 68 96 68 96 65 95 65 95 64 94 64 94 63 92 63 92 62 91 62 91 61 89 61 89 60 88 60 88 59 87 59 87 58 89 58 89 59 91 59 91 60 94 60 94 61 95 61 95 58 94 58 94 57 93 57 93 56 91 56 91 54 90 54 90 52 89 52 89 51 91 51 91 50 92 50"></polygon>
            <polygon id="Path" fill="#FFFFFF" points="94 49 95 49 95 50 94 50"></polygon>
            <polygon id="Path" fill="#7BC0E7" points="96 49 97 49 97 50 96 50"></polygon>
            <polygon id="Path" fill="#FFFFFF" points="162 49 163 49 163 50 162 50"></polygon>
            <path d="M190,49 L192,49 L192,50 L190,50 L190,49 Z M302,49 L304,49 L304,50 L303,50 L303,51 L302,51 L302,52 L301,52 L301,50 L302,50 L302,49 Z" id="Shape" fill="#7BC0E7" fill-rule="nonzero"></path>
            <polygon id="Path" fill="#FFFFFF" points="325 49 327 49 327 50 332 50 332 51 326 51 326 50 325 50"></polygon>
            <polygon id="Path" fill="#5E83A7" points="329 49 330 49 330 50 329 50"></polygon>
            <polygon id="Path" fill="#FFFFFF" points="336 49 337 49 337 50 338 50 338 51 337 51 337 53 336 53 336 52 335 52 335 51 336 51"></polygon>
            <polygon id="Path" fill="#5E83A6" points="14 50 15 50 15 51 14 51"></polygon>
            <polygon id="Path" fill="#7BC0E7" points="71 50 72 50 72 51 73 51 73 52 70 52 70 51 71 51"></polygon>
            <polygon id="Path" fill="#5E83A6" points="77 50 80 50 80 51 77 51"></polygon>
            <polygon id="Path" fill="#7BC0E7" points="192 50 193 50 193 51 192 51"></polygon>
            <polygon id="Path" fill="#FFFFFF" points="310 50 312 50 312 51 310 51"></polygon>
            <polygon id="Path" fill="#5E83A6" points="12 51 13 51 13 52 12 52"></polygon>
            <polygon id="Path" fill="#7BC0E7" points="47 51 48 51 48 52 47 52"></polygon>
            <polygon id="Path" fill="#FFFFFF" points="48 51 49 51 49 52 48 52"></polygon>
            <path d="M56,51 L57,51 L57,52 L56,52 L56,51 Z M77,51 L80,51 L80,52 L77,52 L77,51 Z M87,51 L88,51 L88,52 L87,52 L87,51 Z" id="Shape" fill="#7BC0E7" fill-rule="nonzero"></path>
            <polygon id="Path" fill="#5E83A6" points="93 51 94 51 94 52 93 52"></polygon>
            <path d="M98,51 L99,51 L99,52 L98,52 L98,51 Z M101,51 L102,51 L102,52 L101,52 L101,51 Z" id="Shape" fill="#7BC0E7" fill-rule="nonzero"></path>
            <polygon id="Path" fill="#FFFFFF" points="163 51 164 51 164 52 165 52 165 53 162 53 162 54 161 54 161 52 163 52"></polygon>
            <path d="M168,51 L169,51 L169,52 L168,52 L168,51 Z M300,51 L301,51 L301,52 L300,52 L300,51 Z M302,51 L303,51 L303,52 L302,52 L302,51 Z" id="Shape" fill="#5E83A6" fill-rule="nonzero"></path>
            <polygon id="Path" fill="#FFFFFF" points="309 51 310 51 310 52 309 52"></polygon>
            <polygon id="Path" fill="#5E83A6" points="343 51 345 51 345 52 343 52"></polygon>
            <polygon id="Path" fill="#FFFFFF" points="12 52 13 52 13 53 12 53"></polygon>
            <polygon id="Path" fill="#5E83A6" points="13 52 14 52 14 53 13 53"></polygon>
            <polygon id="Path" fill="#FFFFFF" points="19 52 20 52 20 53 19 53"></polygon>
            <path d="M34,52 L36,52 L36,53 L34,53 L34,52 Z M41,52 L42,52 L42,53 L41,53 L41,52 Z" id="Shape" fill="#5E83A6" fill-rule="nonzero"></path>
            <path d="M67,52 L68,52 L68,53 L67,53 L67,52 Z M82,52 L85,52 L85,53 L86,53 L86,54 L87,54 L87,55 L84,55 L84,53 L82,53 L82,52 Z" id="Shape" fill="#7BC0E7" fill-rule="nonzero"></path>
            <polygon id="Path" fill="#FFFFFF" points="91 52 92 52 92 53 91 53"></polygon>
            <polygon id="Path" fill="#5E83A6" points="94 52 95 52 95 53 94 53"></polygon>
            <polygon id="Path" fill="#7BC0E7" points="99 52 100 52 100 53 99 53"></polygon>
            <polygon id="Path" fill="#FFFFFF" points="150 52 151 52 151 53 150 53"></polygon>
            <polygon id="Path" fill="#7BC0E7" points="165 52 166 52 166 53 165 53"></polygon>
            <polygon id="Path" fill="#5E83A6" points="166 52 168 52 168 53 166 53"></polygon>
            <polygon id="Path" fill="#FFFFFF" points="177 52 179 52 179 53 177 53"></polygon>
            <polygon id="Path" fill="#7BC0E7" points="208 52 209 52 209 54 208 54 208 56 206 56 206 55 207 55 207 53 208 53"></polygon>
            <polygon id="Path" fill="#5E83A6" points="222 52 223 52 223 53 222 53"></polygon>
            <path d="M296,52 L297,52 L297,53 L296,53 L296,52 Z M299,52 L300,52 L300,53 L299,53 L299,52 Z" id="Shape" fill="#5E83A6" fill-rule="nonzero"></path>
            <path d="M300,52 L301,52 L301,55 L300,55 L300,54 L299,54 L299,53 L300,53 L300,52 Z M308,52 L309,52 L309,53 L308,53 L308,52 Z M334,52 L335,52 L335,54 L334,54 L334,52 Z" id="Shape" fill="#FFFFFF" fill-rule="nonzero"></path>
            <path d="M337,52 L339,52 L339,53 L340,53 L340,54 L337,54 L337,55 L336,55 L336,53 L337,53 L337,52 Z M22,53 L26,53 L26,54 L30,54 L30,55 L31,55 L31,56 L32,56 L32,55 L35,55 L35,56 L34,56 L34,57 L27,57 L27,56 L25,56 L25,55 L23,55 L23,54 L22,54 L22,53 Z" id="Shape" fill="#7BC0E7" fill-rule="nonzero"></path>
            <polygon id="Path" fill="#5E83A6" points="26 53 32 53 32 54 31 54 31 55 30 55 30 54 26 54"></polygon>
            <polygon id="Path" fill="#FFFFFF" points="70 53 73 53 73 54 70 54"></polygon>
            <polygon id="Path" fill="#5E83A6" points="95 53 96 53 96 55 95 55"></polygon>
            <g id="Group" transform="translate(100.000000, 53.000000)" fill="#7BC0E7">
                <polygon id="Path" points="0 0 1 0 1 1 3 1 3 4 2 4 2 3 1 3 1 2 0 2"></polygon>
                <path d="M3,0 L4,0 L4,1 L3,1 L3,0 Z M62,0 L63,0 L63,1 L62,1 L62,0 Z" id="Shape" fill-rule="nonzero"></path>
            </g>
            <polygon id="Path" fill="#5E83A6" points="163 53 166 53 166 54 164 54 164 55 163 55 163 56 162 56 162 57 160 57 160 56 161 56 161 55 162 55 162 54 163 54"></polygon>
            <polygon id="Path" fill="#FFFFFF" points="174 53 176 53 176 54 174 54"></polygon>
            <path d="M225,53 L227,53 L227,54 L225,54 L225,53 Z M298,53 L299,53 L299,54 L298,54 L298,53 Z" id="Shape" fill="#5E83A6" fill-rule="nonzero"></path>
            <polygon id="Path" fill="#FFFFFF" points="307 53 308 53 308 54 307 54"></polygon>
            <polygon id="Path" fill="#5E83A6" points="364 53 365 53 365 54 364 54"></polygon>
            <polygon id="Path" fill="#FFFFFF" points="17 54 18 54 18 55 17 55"></polygon>
            <polygon id="Path" fill="#5E83A6" points="45 54 46 54 46 55 45 55"></polygon>
            <polygon id="Path" fill="#7BC0E7" points="104 54 105 54 105 55 104 55"></polygon>
            <polygon id="Path" fill="#FFFFFF" points="160 54 161 54 161 56 160 56 160 57 157 57 157 56 158 56 158 55 160 55"></polygon>
            <path d="M161,54 L162,54 L162,55 L161,55 L161,54 Z M185,54 L186,54 L186,55 L185,55 L185,54 Z" id="Shape" fill="#7BC0E7" fill-rule="nonzero"></path>
            <path d="M227,54 L228,54 L228,55 L227,55 L227,54 Z M231,54 L236,54 L236,55 L234,55 L234,56 L232,56 L232,55 L231,55 L231,54 Z" id="Shape" fill="#5E83A6" fill-rule="nonzero"></path>
            <path d="M298,54 L299,54 L299,57 L297,57 L297,56 L298,56 L298,54 Z M305,54 L306,54 L306,55 L305,55 L305,54 Z M333,54 L334,54 L334,55 L333,55 L333,54 Z" id="Shape" fill="#FFFFFF" fill-rule="nonzero"></path>
            <polygon id="Path" fill="#7BC0E7" points="353 54 355 54 355 55 356 55 356 57 357 57 357 60 358 60 358 59 360 59 360 61 359 61 359 62 358 62 358 63 359 63 359 64 361 64 361 63 359 63 359 62 360 62 360 61 366 61 366 62 367 62 367 64 366 64 366 63 362 63 362 64 365 64 365 65 366 65 366 66 368 66 368 67 369 67 369 65 370 65 370 66 371 66 371 67 372 67 372 70 373 70 373 71 366 71 366 70 365 70 365 71 364 71 364 70 361 70 361 69 360 69 360 68 356 68 356 66 355 66 355 65 354 65 354 63 353 63 353 61 351 61 351 62 348 62 348 61 349 61 349 60 351 60 351 59 352 59 352 58 354 58 354 56 353 56"></polygon>
            <polygon id="Path" fill="#5E83A6" points="35 55 37 55 37 56 35 56"></polygon>
            <polygon id="Path" fill="#FFFFFF" points="68 55 71 55 71 56 69 56 69 57 68 57 68 58 66 58 66 59 67 59 67 61 65 61 65 62 64 62 64 61 63 61 63 60 64 60 64 58 65 58 65 57 66 57 66 56 68 56"></polygon>
            <path d="M237,55 L238,55 L238,56 L237,56 L237,55 Z M240,55 L241,55 L241,56 L240,56 L240,55 Z" id="Shape" fill="#5E83A6" fill-rule="nonzero"></path>
            <polygon id="Path" fill="#FFFFFF" points="302 55 303 55 303 56 302 56"></polygon>
            <polygon id="Path" fill="#7BC0E7" points="335 55 336 55 336 56 335 56"></polygon>
            <polygon id="Path" fill="#5E83A6" points="347 55 348 55 348 56 347 56"></polygon>
            <polygon id="Path" fill="#7BC0E7" points="359 55 361 55 361 56 359 56"></polygon>
            <polygon id="Path" fill="#5E83A6" points="365 55 366 55 366 57 365 57"></polygon>
            <polygon id="Path" fill="#FFFFFF" points="10 56 11 56 11 57 10 57"></polygon>
            <polygon id="Path" fill="#5E83A6" points="34 56 35 56 35 57 34 57"></polygon>
            <polygon id="Path" fill="#7BC0E7" points="81 56 82 56 82 57 81 57"></polygon>
            <polygon id="Path" fill="#FFFFFF" points="148 56 149 56 149 59 148 59 148 60 147 60 147 61 146 61 146 59 147 59 147 57 148 57"></polygon>
            <polygon id="Path" fill="#5E83A6" points="206 56 208 56 208 57 207 57 207 58 205 58 205 57 206 57"></polygon>
            <polygon id="Path" fill="#FFFFFF" points="294 56 295 56 295 57 294 57"></polygon>
            <polygon id="Path" fill="#7BC0E7" points="361 56 362 56 362 57 361 57"></polygon>
            <polygon id="Path" fill="#5E83A6" points="36 57 38 57 38 58 37 58 37 59 35 59 35 58 36 58"></polygon>
            <polygon id="Path" fill="#7BC0E7" points="53 57 54 57 54 58 53 58"></polygon>
            <polygon id="Path" fill="#FFFFFF" points="78 57 79 57 79 64 80 64 80 67 81 67 81 69 82 69 82 70 83 70 83 72 82 72 82 74 80 74 80 75 77 75 77 76 75 76 75 77 74 77 74 78 73 78 73 79 72 79 72 81 70 81 70 83 67 83 67 84 66 84 66 85 65 85 65 86 64 86 64 87 63 87 63 86 61 86 61 85 64 85 64 84 65 84 65 83 66 83 66 82 68 82 68 81 69 81 69 80 70 80 70 79 71 79 71 78 70 78 70 77 73 77 73 76 74 76 74 75 76 75 76 74 78 74 78 70 76 70 76 71 74 71 74 72 72 72 72 73 70 73 70 74 68 74 68 75 64 75 64 76 61 76 61 75 63 75 63 74 65 74 65 73 66 73 66 72 68 72 68 71 69 71 69 68 71 68 71 67 72 67 72 66 70 66 70 65 71 65 71 63 72 63 72 61 74 61 74 60 75 60 75 62 76 62 76 61 77 61 77 58 78 58"></polygon>
            <path d="M79,57 L80,57 L80,59 L82,59 L82,60 L83,60 L83,61 L84,61 L84,62 L85,62 L85,63 L86,63 L86,64 L83,64 L83,65 L84,65 L84,66 L85,66 L85,67 L89,67 L89,68 L91,68 L91,70 L92,70 L92,72 L93,72 L93,74 L92,74 L92,73 L90,73 L90,72 L89,72 L89,73 L88,73 L88,72 L87,72 L87,73 L86,73 L86,74 L85,74 L85,72 L84,72 L84,71 L83,71 L83,70 L82,70 L82,69 L81,69 L81,67 L80,67 L80,64 L79,64 L79,62 L80,62 L80,61 L79,61 L79,57 Z M104,57 L105,57 L105,60 L106,60 L106,61 L104,61 L104,60 L103,60 L103,58 L104,58 L104,57 Z M158,57 L160,57 L160,58 L158,58 L158,57 Z" id="Shape" fill="#7BC0E7" fill-rule="nonzero"></path>
            <polygon id="Path" fill="#FFFFFF" points="160 57 162 57 162 58 160 58"></polygon>
            <polygon id="Path" fill="#7BC0E7" points="201 57 202 57 202 58 203 58 203 60 202 60 202 59 200 59 200 58 201 58"></polygon>
            <path d="M208,57 L209,57 L209,58 L208,58 L208,57 Z M241,57 L242,57 L242,58 L241,58 L241,57 Z" id="Shape" fill="#5E83A6" fill-rule="nonzero"></path>
            <g id="Group" transform="translate(283.000000, 57.000000)" fill="#FFFFFF">
                <polygon id="Path" points="1 0 3 0 3 1 4 1 4 2 0 2 0 1 1 1"></polygon>
                <path d="M4,0 L5,0 L5,1 L4,1 L4,0 Z M6,0 L7,0 L7,1 L6,1 L6,0 Z M16,0 L17,0 L17,1 L16,1 L16,0 Z M21,0 L22,0 L22,1 L21,1 L21,0 Z" id="Shape" fill-rule="nonzero"></path>
            </g>
            <polygon id="Path" fill="#7BC0E7" points="365 57 366 57 366 58 368 58 368 59 367 59 367 60 366 60 366 59 365 59"></polygon>
            <polygon id="Path" fill="#5E83A6" points="366 57 368 57 368 58 366 58"></polygon>
            <polygon id="Path" fill="#FFFFFF" points="10 58 11 58 11 59 10 59"></polygon>
            <path d="M55,58 L57,58 L57,59 L55,59 L55,58 Z M101,58 L102,58 L102,59 L101,59 L101,58 Z" id="Shape" fill="#7BC0E7" fill-rule="nonzero"></path>
            <g id="Group" transform="translate(153.000000, 58.000000)" fill="#FFFFFF">
                <polygon id="Path" points="0 0 1 0 1 1 0 1"></polygon>
                <polygon id="Path" points="2 0 4 0 4 1 3 1 3 2 1 2 1 1 2 1"></polygon>
            </g>
            <polygon id="Path" fill="#7BC0E7" points="192 58 193 58 193 59 192 59"></polygon>
            <polygon id="Path" fill="#5E83A6" points="203 58 204 58 204 61 203 61"></polygon>
            <polygon id="Path" fill="#7BC0E7" points="232 58 233 58 233 59 232 59"></polygon>
            <polygon id="Path" fill="#FFFFFF" points="303 58 304 58 304 59 303 59"></polygon>
            <polygon id="Path" fill="#5E83A6" points="349 58 350 58 350 59 349 59"></polygon>
            <path d="M7,59 L8,59 L8,60 L7,60 L7,59 Z M18,59 L19,59 L19,60 L18,60 L18,59 Z" id="Shape" fill="#FFFFFF" fill-rule="nonzero"></path>
            <polygon id="Path" fill="#5E83A6" points="31 59 32 59 32 60 31 60"></polygon>
            <polygon id="Path" fill="#7BC0E7" points="58 59 59 59 59 60 58 60"></polygon>
            <polygon id="Path" fill="#FFFFFF" points="152 59 153 59 153 60 154 60 154 61 152 61"></polygon>
            <polygon id="Path" fill="#5E83A6" points="153 59 154 59 154 60 153 60"></polygon>
            <polygon id="Path" fill="#5E83A7" points="187 59 188 59 188 60 187 60"></polygon>
            <path d="M198,59 L199,59 L199,60 L198,60 L198,59 Z M233,59 L234,59 L234,60 L233,60 L233,59 Z" id="Shape" fill="#7BC0E7" fill-rule="nonzero"></path>
            <path d="M288,59 L289,59 L289,60 L288,60 L288,59 Z M341,59 L342,59 L342,60 L341,60 L341,59 Z M13,60 L14,60 L14,61 L13,61 L13,60 Z M26,60 L27,60 L27,61 L26,61 L26,60 Z M142,60 L143,60 L143,61 L142,61 L142,60 Z M144,60 L145,60 L145,61 L144,61 L144,60 Z M190,60 L191,60 L191,61 L190,61 L190,60 Z" id="Shape" fill="#FFFFFF" fill-rule="nonzero"></path>
            <polygon id="Path" fill="#7BC0E7" points="201 60 202 60 202 62 201 62"></polygon>
            <path d="M202,60 L203,60 L203,61 L202,61 L202,60 Z M290,60 L291,60 L291,61 L290,61 L290,60 Z M292,60 L293,60 L293,61 L292,61 L292,60 Z M299,60 L301,60 L301,61 L299,61 L299,60 Z M340,60 L341,60 L341,61 L342,61 L342,68 L346,68 L346,69 L342,69 L342,70 L340,70 L340,69 L338,69 L338,67 L337,67 L337,68 L336,68 L336,69 L335,69 L335,72 L334,72 L334,73 L331,73 L331,75 L330,75 L330,76 L329,76 L329,77 L328,77 L328,78 L326,78 L326,77 L327,77 L327,76 L328,76 L328,75 L327,75 L327,73 L328,73 L328,72 L326,72 L326,73 L324,73 L324,74 L322,74 L322,75 L316,75 L316,74 L319,74 L319,73 L321,73 L321,72 L324,72 L324,71 L327,71 L327,70 L329,70 L329,71 L330,71 L330,70 L332,70 L332,69 L328,69 L328,68 L333,68 L333,67 L335,67 L335,66 L336,66 L336,65 L338,65 L338,64 L339,64 L339,62 L340,62 L340,60 Z" id="Shape" fill="#FFFFFF" fill-rule="nonzero"></path>
            <path d="M341,60 L342,60 L342,61 L341,61 L341,60 Z M368,60 L369,60 L369,61 L368,61 L368,60 Z" id="Shape" fill="#7BC0E7" fill-rule="nonzero"></path>
            <polygon id="Path" fill="#5E83A6" points="3 61 4 61 4 62 3 62"></polygon>
            <path d="M4,61 L5,61 L5,62 L4,62 L4,61 Z M7,61 L8,61 L8,62 L7,62 L7,61 Z M9,61 L10,61 L10,62 L9,62 L9,61 Z" id="Shape" fill="#FFFFFF" fill-rule="nonzero"></path>
            <polygon id="Path" fill="#5E83A6" points="79 61 80 61 80 62 79 62"></polygon>
            <polygon id="Path" fill="#7BC0E6" points="81 61 82 61 82 62 81 62"></polygon>
            <polygon id="Path" fill="#7BC0E7" points="107 61 108 61 108 62 107 62"></polygon>
            <path d="M141,61 L142,61 L142,62 L141,62 L141,61 Z M147,61 L148,61 L148,63 L147,63 L147,64 L145,64 L145,63 L146,63 L146,62 L147,62 L147,61 Z M281,61 L284,61 L284,62 L285,62 L285,63 L283,63 L283,64 L280,64 L280,63 L281,63 L281,61 Z" id="Shape" fill="#FFFFFF" fill-rule="nonzero"></path>
            <polygon id="Path" fill="#7BC0E7" points="342 61 343 61 343 62 344 62 344 64 345 64 345 65 344 65 344 66 343 66 343 67 342 67"></polygon>
            <path d="M351,61 L353,61 L353,62 L351,62 L351,61 Z M359,61 L360,61 L360,62 L359,62 L359,61 Z" id="Shape" fill="#5E83A6" fill-rule="nonzero"></path>
            <polygon id="Path" fill="#7BC0E7" points="369 61 370 61 370 62 369 62"></polygon>
            <polygon id="Path" fill="#5E83A6" points="1 62 3 62 3 63 1 63"></polygon>
            <path d="M3,62 L4,62 L4,64 L2,64 L2,65 L1,65 L1,66 L0,66 L0,64 L1,64 L1,63 L3,63 L3,62 Z M8,62 L9,62 L9,63 L8,63 L8,62 Z" id="Shape" fill="#FFFFFF" fill-rule="nonzero"></path>
            <polygon id="Path" fill="#7BC0E7" points="62 62 63 62 63 63 62 63"></polygon>
            <polygon id="Path" fill="#FFFFFE" points="115 62 116 62 116 63 115 63"></polygon>
            <polygon id="Path" fill="#FFFFFF" points="140 62 141 62 141 63 140 63"></polygon>
            <polygon id="Path" fill="#5E83A6" points="141 62 142 62 142 63 141 63"></polygon>
            <polygon id="Path" fill="#FFFFFF" points="142 62 143 62 143 65 142 65 142 66 140 66 140 67 139 67 139 65 140 65 140 64 141 64 141 63 142 63"></polygon>
            <path d="M199,62 L200,62 L200,64 L199,64 L199,65 L197,65 L197,64 L198,64 L198,63 L199,63 L199,62 Z M222,62 L223,62 L223,63 L222,63 L222,62 Z" id="Shape" fill="#7BC0E7" fill-rule="nonzero"></path>
            <polygon id="Path" fill="#FFFFFF" points="298 62 299 62 299 63 298 63"></polygon>
            <polygon id="Path" fill="#7BC0E7" points="347 62 348 62 348 63 347 63"></polygon>
            <path d="M348,62 L350,62 L350,63 L348,63 L348,62 Z M354,62 L355,62 L355,63 L354,63 L354,62 Z M358,62 L359,62 L359,63 L358,63 L358,62 Z" id="Shape" fill="#5E83A6" fill-rule="nonzero"></path>
            <polygon id="Path" fill="#7BC0E7" points="370 62 372 62 372 63 370 63"></polygon>
            <polygon id="Path" fill="#5E83A6" points="0 63 1 63 1 64 0 64"></polygon>
            <polygon id="Path" fill="#FFFFFF" points="6 63 7 63 7 65 6 65 6 66 5 66 5 65 4 65 4 64 6 64"></polygon>
            <path d="M108,63 L109,63 L109,64 L108,64 L108,63 Z M115,63 L116,63 L116,64 L117,64 L117,65 L116,65 L116,66 L114,66 L114,65 L113,65 L113,64 L115,64 L115,63 Z M118,63 L120,63 L120,64 L121,64 L121,65 L123,65 L123,66 L125,66 L125,68 L123,68 L123,67 L122,67 L122,66 L121,66 L121,67 L120,67 L120,66 L119,66 L119,67 L118,67 L118,65 L119,65 L119,64 L118,64 L118,63 Z" id="Shape" fill="#7BC0E7" fill-rule="nonzero"></path>
            <polygon id="Path" fill="#FFFFFF" points="139 63 140 63 140 64 139 64"></polygon>
            <polygon id="Path" fill="#5E83A6" points="140 63 141 63 141 64 140 64"></polygon>
            <polygon id="Path" fill="#FFFFFF" points="193 63 194 63 194 64 193 64"></polygon>
            <polygon id="Path" fill="#7BC0E7" points="234 63 235 63 235 64 236 64 236 66 235 66 235 65 234 65"></polygon>
            <polygon id="Path" fill="#FFC599" points="276 63 277 63 277 64 276 64"></polygon>
            <polygon id="Path" fill="#FFFFFF" points="297 63 298 63 298 64 297 64"></polygon>
            <path d="M356,63 L357,63 L357,64 L356,64 L356,63 Z M359,63 L361,63 L361,64 L359,64 L359,63 Z M2,64 L4,64 L4,65 L2,65 L2,64 Z" id="Shape" fill="#5E83A6" fill-rule="nonzero"></path>
            <polygon id="Path" fill="#FFFFFF" points="8 64 9 64 9 65 8 65"></polygon>
            <path d="M86,64 L87,64 L87,65 L86,65 L86,64 Z M103,64 L104,64 L104,65 L103,65 L103,64 Z" id="Shape" fill="#7BC0E7" fill-rule="nonzero"></path>
            <polygon id="Path" fill="#FFFFFF" points="144 64 145 64 145 65 144 65"></polygon>
            <polygon id="Path" fill="#FFC599" points="272 64 273 64 273 65 272 65"></polygon>
            <path d="M279,64 L280,64 L280,65 L279,65 L279,64 Z M283,64 L284,64 L284,65 L283,65 L283,64 Z" id="Shape" fill="#FFFFFF" fill-rule="nonzero"></path>
            <path d="M345,64 L347,64 L347,65 L348,65 L348,66 L347,66 L347,67 L346,67 L346,68 L342,68 L342,67 L343,67 L343,66 L344,66 L344,65 L345,65 L345,64 Z M1,65 L2,65 L2,66 L1,66 L1,65 Z" id="Shape" fill="#5E83A6" fill-rule="nonzero"></path>
            <polygon id="Path" fill="#FFFFFF" points="2 65 4 65 4 66 3 66 3 67 1 67 1 66 2 66"></polygon>
            <polygon id="Path" fill="#5E83A6" points="72 65 73 65 73 66 72 66"></polygon>
            <polygon id="Path" fill="#7BC0E7" points="91 65 92 65 92 67 91 67"></polygon>
            <polygon id="Path" fill="#5E83A7" points="179 65 180 65 180 66 179 66"></polygon>
            <polygon id="Path" fill="#FFFFFF" points="195 65 196 65 196 66 195 66"></polygon>
            <polygon id="Path" fill="#7BC0E7" points="196 65 197 65 197 66 196 66"></polygon>
            <polygon id="Path" fill="#FFFFFF" points="273 65 274 65 274 66 273 66"></polygon>
            <path d="M340,65 L341,65 L341,66 L340,66 L340,65 Z M357,65 L359,65 L359,66 L357,66 L357,65 Z" id="Shape" fill="#5E83A6" fill-rule="nonzero"></path>
            <path d="M373,65 L375,65 L375,66 L373,66 L373,65 Z M382,65 L384,65 L384,66 L383,66 L383,67 L379,67 L379,66 L382,66 L382,65 Z M10,66 L11,66 L11,67 L10,67 L10,66 Z M55,66 L56,66 L56,67 L55,67 L55,66 Z" id="Shape" fill="#FFFFFF" fill-rule="nonzero"></path>
            <path d="M109,66 L110,66 L110,67 L113,67 L113,68 L112,68 L112,69 L110,69 L110,68 L109,68 L109,66 Z M195,66 L196,66 L196,68 L195,68 L195,66 Z" id="Shape" fill="#7BC0E7" fill-rule="nonzero"></path>
            <path d="M281,66 L282,66 L282,67 L281,67 L281,66 Z M355,66 L356,66 L356,67 L355,67 L355,66 Z" id="Shape" fill="#FFFFFF" fill-rule="nonzero"></path>
            <polygon id="Path" fill="#5E83A6" points="360 66 361 66 361 67 360 67"></polygon>
            <polygon id="Path" fill="#FFFFFF" points="375 66 376 66 376 67 375 67"></polygon>
            <polygon id="Path" fill="#5E83A6" points="383 66 384 66 384 67 383 67"></polygon>
            <path d="M4,67 L5,67 L5,70 L4,70 L4,69 L3,69 L3,68 L4,68 L4,67 Z M56,67 L57,67 L57,68 L56,68 L56,67 Z" id="Shape" fill="#FFFFFF" fill-rule="nonzero"></path>
            <path d="M92,67 L93,67 L93,68 L94,68 L94,69 L93,69 L93,70 L92,70 L92,67 Z M117,67 L118,67 L118,68 L117,68 L117,67 Z" id="Shape" fill="#7BC0E7" fill-rule="nonzero"></path>
            <path d="M135,67 L136,67 L136,68 L135,68 L135,67 Z M138,67 L139,67 L139,68 L138,68 L138,67 Z" id="Shape" fill="#FFFFFF" fill-rule="nonzero"></path>
            <polygon id="Path" fill="#5E83A7" points="163 67 164 67 164 68 163 68"></polygon>
            <path d="M276,67 L278,67 L278,68 L276,68 L276,67 Z M280,67 L281,67 L281,68 L280,68 L280,67 Z" id="Shape" fill="#FFFFFF" fill-rule="nonzero"></path>
            <polygon id="Path" fill="#5E83A7" points="331 67 332 67 332 68 331 68"></polygon>
            <polygon id="Path" fill="#5E83A6" points="361 67 362 67 362 68 361 68"></polygon>
            <path d="M377,67 L379,67 L379,68 L377,68 L377,67 Z M383,67 L384,67 L384,68 L383,68 L383,67 Z M54,68 L55,68 L55,70 L54,70 L54,68 Z" id="Shape" fill="#FFFFFF" fill-rule="nonzero"></path>
            <polygon id="Path" fill="#5E83A6" points="112 68 113 68 113 69 112 69"></polygon>
            <polygon id="Path" fill="#7BC0E7" points="113 68 115 68 115 69 117 69 117 70 122 70 122 71 123 71 123 72 124 72 124 75 123 75 123 74 121 74 121 73 120 73 120 71 119 71 119 75 120 75 120 76 121 76 121 77 122 77 122 78 124 78 124 79 125 79 125 80 120 80 120 79 119 79 119 80 118 80 118 79 117 79 117 78 115 78 115 79 110 79 110 80 112 80 112 81 115 81 115 80 117 80 117 81 118 81 118 82 120 82 120 83 121 83 121 84 123 84 123 85 129 85 129 87 124 87 124 86 119 86 119 85 117 85 117 86 114 86 114 85 111 85 111 86 109 86 109 87 104 87 104 86 103 86 103 85 102 85 102 83 104 83 104 84 106 84 106 85 108 85 108 84 110 84 110 83 109 83 109 81 107 81 107 80 105 80 105 79 106 79 106 78 110 78 110 77 111 77 111 78 113 78 113 77 112 77 112 76 111 76 111 75 110 75 110 74 109 74 109 73 108 73 108 72 107 72 107 70 106 70 106 69 109 69 109 70 112 70 112 69 113 69"></polygon>
            <g id="Group" transform="translate(119.000000, 68.000000)" fill="#FFFFFF">
                <polygon id="Path" points="14 0 15 0 15 1 14 1"></polygon>
                <polygon id="Path" points="21 0 22 0 22 3 21 3 21 4 20 4 20 5 19 5 19 8 18 8 18 7 17 7 17 6 16 6 16 5 14 5 14 4 11 4 11 5 13 5 13 7 15 7 15 8 16 8 16 9 14 9 14 10 11 10 11 11 9 11 9 10 7 10 7 11 9 11 9 12 6 12 6 11 5 11 5 10 3 10 3 9 2 9 2 8 1 8 1 7 0 7 0 3 1 3 1 5 2 5 2 6 4 6 4 7 5 7 5 4 4 4 4 3 3 3 3 2 6 2 6 3 10 3 10 2 12 2 12 3 13 3 13 2 15 2 15 1 16 1 16 2 17 2 17 1 18 1 18 2 19 2 19 1 21 1"></polygon>
            </g>
            <polygon id="Path" fill="#7BC0E7" points="235 68 236 68 236 69 235 69"></polygon>
            <polygon id="Path" fill="#FFFFFF" points="269 68 270 68 270 69 271 69 271 70 270 70 270 71 267 71 267 70 268 70 268 69 269 69"></polygon>
            <polygon id="Path" fill="#FFFFFE" points="270 68 271 68 271 69 270 69"></polygon>
            <path d="M271,68 L272,68 L272,69 L271,69 L271,68 Z M279,68 L280,68 L280,69 L279,69 L279,68 Z" id="Shape" fill="#FFFFFF" fill-rule="nonzero"></path>
            <polygon id="Path" fill="#5E83A7" points="315 68 316 68 316 69 315 69"></polygon>
            <path d="M364,68 L366,68 L366,69 L364,69 L364,68 Z M368,68 L371,68 L371,69 L368,69 L368,68 Z" id="Shape" fill="#5E83A6" fill-rule="nonzero"></path>
            <path d="M382,68 L383,68 L383,69 L382,69 L382,68 Z M9,69 L10,69 L10,70 L9,70 L9,69 Z M52,69 L53,69 L53,70 L52,70 L52,69 Z M131,69 L132,69 L132,70 L131,70 L131,69 Z M198,69 L199,69 L199,70 L198,70 L198,69 Z" id="Shape" fill="#FFFFFF" fill-rule="nonzero"></path>
            <path d="M247,69 L248,69 L248,70 L247,70 L247,69 Z M252,69 L253,69 L253,70 L252,70 L252,69 Z M264,69 L267,69 L267,70 L264,70 L264,69 Z" id="Shape" fill="#7BC0E7" fill-rule="nonzero"></path>
            <polygon id="Path" fill="#FFFFFF" points="274 69 275 69 275 70 274 70"></polygon>
            <polygon id="Path" fill="#7BC0E7" points="342 69 344 69 344 70 342 70"></polygon>
            <polygon id="Path" fill="#5E83A6" points="366 69 367 69 367 70 366 70"></polygon>
            <polygon id="Path" fill="#FFFFFF" points="53 70 54 70 54 71 53 71"></polygon>
            <path d="M76,70 L78,70 L78,71 L76,71 L76,70 Z M79,70 L80,70 L80,71 L79,71 L79,70 Z" id="Shape" fill="#5E83A6" fill-rule="nonzero"></path>
            <polygon id="Path" fill="#7BC0E7" points="93 70 94 70 94 71 93 71"></polygon>
            <polygon id="Path" fill="#5E83A6" points="131 70 132 70 132 71 131 71"></polygon>
            <polygon id="Path" fill="#FFFFFF" points="197 70 198 70 198 71 197 71"></polygon>
            <g id="Group" transform="translate(256.000000, 70.000000)" fill="#7BC0E7">
                <polygon id="Path" points="2 0 5 0 5 1 7 1 7 2 6 2 6 3 0 3 0 1 2 1"></polygon>
                <polygon id="Path" points="7 0 8 0 8 1 7 1"></polygon>
            </g>
            <polygon id="Path" fill="#5E83A7" points="294 70 295 70 295 71 294 71"></polygon>
            <polygon id="Path" fill="#FFFFFF" points="323 70 324 70 324 71 323 71"></polygon>
            <path d="M332,70 L333,70 L333,71 L332,71 L332,70 Z M74,71 L76,71 L76,72 L74,72 L74,71 Z" id="Shape" fill="#5E83A6" fill-rule="nonzero"></path>
            <polygon id="Path" fill="#7BC0E7" points="76 71 78 71 78 74 77 74 77 73 75 73 75 74 74 74 74 75 72 75 72 74 73 74 73 73 74 73 74 72 76 72"></polygon>
            <polygon id="Path" fill="#5E83A6" points="83 71 84 71 84 72 83 72"></polygon>
            <polygon id="Path" fill="#7BC0E6" points="110 71 111 71 111 72 110 72"></polygon>
            <polygon id="Path" fill="#5E83A6" points="136 71 137 71 137 72 136 72"></polygon>
            <polygon id="Path" fill="#FFFFFF" points="143 71 144 71 144 72 143 72"></polygon>
            <polygon id="Path" fill="#7BC0E7" points="251 71 255 71 255 72 253 72 253 73 252 73 252 72 251 72"></polygon>
            <path d="M317,71 L319,71 L319,72 L317,72 L317,71 Z M363,71 L364,71 L364,72 L363,72 L363,71 Z" id="Shape" fill="#FFFFFF" fill-rule="nonzero"></path>
            <polygon id="Path" fill="#7BC0E7" points="373 71 376 71 376 72 377 72 377 75 376 75 376 73 375 73 375 72 373 72"></polygon>
            <polygon id="Path" fill="#FFFFFF" points="9 72 10 72 10 73 9 73"></polygon>
            <polygon id="Path" fill="#7BC0E7" points="33 72 34 72 34 73 33 73"></polygon>
            <polygon id="Path" fill="#FFFFFF" points="52 72 53 72 53 73 52 73"></polygon>
            <polygon id="Path" fill="#5E83A6" points="79 72 80 72 80 73 79 73"></polygon>
            <polygon id="Path" fill="#7BC0E7" points="83 72 84 72 84 73 83 73"></polygon>
            <path d="M110,72 L111,72 L111,73 L110,73 L110,72 Z M130,72 L132,72 L132,73 L130,73 L130,72 Z" id="Shape" fill="#5E83A6" fill-rule="nonzero"></path>
            <polygon id="Path" fill="#7BC0E7" points="132 72 133 72 133 73 135 73 135 74 136 74 136 75 137 75 137 76 134 76 134 75 132 75"></polygon>
            <polygon id="Path" fill="#FFFFFF" points="191 72 193 72 193 73 192 73 192 74 190 74 190 73 191 73"></polygon>
            <polygon id="Path" fill="#7BC0E7" points="326 72 327 72 327 73 326 73"></polygon>
            <polygon id="Path" fill="#7BC0E6" points="327 72 328 72 328 73 327 73"></polygon>
            <path d="M364,72 L365,72 L365,73 L364,73 L364,72 Z M51,73 L52,73 L52,74 L51,74 L51,73 Z" id="Shape" fill="#FFFFFF" fill-rule="nonzero"></path>
            <polygon id="Path" fill="#5E83A6" points="75 73 77 73 77 74 76 74 76 75 74 75 74 74 75 74"></polygon>
            <polygon id="Path" fill="#7BC0E7" points="94 73 95 73 95 74 94 74"></polygon>
            <polygon id="Path" fill="#FFFFFF" points="274 73 276 73 276 74 275 74 275 75 273 75 273 74 274 74"></polygon>
            <polygon id="Path" fill="#FFFFFF" points="314 73 316 73 316 74 314 74"></polygon>
            <path d="M324,73 L326,73 L326,74 L324,74 L324,73 Z M331,73 L333,73 L333,74 L331,74 L331,73 Z" id="Shape" fill="#7BC0E7" fill-rule="nonzero"></path>
            <polygon id="Path" fill="#FFFFFF" points="365 73 366 73 366 74 365 74"></polygon>
            <polygon id="Path" fill="#7BC0E7" points="366 73 367 73 367 74 368 74 368 75 366 75"></polygon>
            <path d="M48,74 L49,74 L49,75 L48,75 L48,74 Z M50,74 L51,74 L51,75 L50,75 L50,74 Z M53,74 L54,74 L54,75 L53,75 L53,74 Z" id="Shape" fill="#FFFFFF" fill-rule="nonzero"></path>
            <polygon id="Path" fill="#7BC0E7" points="102 74 103 74 103 75 102 75"></polygon>
            <polygon id="Path" fill="#FFFFFF" points="189 74 190 74 190 75 189 75"></polygon>
            <path d="M260,74 L262,74 L262,75 L260,75 L260,74 Z M263,74 L264,74 L264,75 L263,75 L263,74 Z" id="Shape" fill="#7BC0E7" fill-rule="nonzero"></path>
            <polygon id="Path" fill="#FFFFFF" points="269 74 270 74 270 75 269 75"></polygon>
            <path d="M322,74 L324,74 L324,75 L322,75 L322,74 Z M34,75 L36,75 L36,76 L37,76 L37,77 L35,77 L35,78 L34,78 L34,77 L33,77 L33,76 L34,76 L34,75 Z" id="Shape" fill="#7BC0E7" fill-rule="nonzero"></path>
            <path d="M46,75 L48,75 L48,76 L47,76 L47,77 L45,77 L45,78 L47,78 L47,79 L46,79 L46,81 L44,81 L44,82 L46,82 L46,83 L45,83 L45,84 L44,84 L44,85 L41,85 L41,84 L40,84 L40,83 L41,83 L41,82 L42,82 L42,81 L41,81 L41,80 L40,80 L40,79 L41,79 L41,78 L42,78 L42,77 L44,77 L44,76 L46,76 L46,75 Z M52,75 L53,75 L53,76 L52,76 L52,75 Z" id="Shape" fill="#FFFFFF" fill-rule="nonzero"></path>
            <polygon id="Path" fill="#7BC0E7" points="71 75 72 75 72 76 71 76"></polygon>
            <path d="M72,75 L74,75 L74,76 L73,76 L73,77 L71,77 L71,76 L72,76 L72,75 Z M115,75 L116,75 L116,76 L115,76 L115,75 Z" id="Shape" fill="#5E83A6" fill-rule="nonzero"></path>
            <path d="M125,75 L126,75 L126,76 L125,76 L125,75 Z M252,75 L253,75 L253,76 L252,76 L252,75 Z M257,75 L258,75 L258,76 L257,76 L257,75 Z" id="Shape" fill="#7BC0E7" fill-rule="nonzero"></path>
            <path d="M272,75 L273,75 L273,76 L272,76 L272,75 Z M326,75 L327,75 L327,76 L326,76 L326,75 Z" id="Shape" fill="#FFFFFF" fill-rule="nonzero"></path>
            <polygon id="Path" fill="#5E83A6" points="327 75 328 75 328 76 327 76"></polygon>
            <polygon id="Path" fill="#7BC0E7" points="368 75 369 75 369 76 368 76"></polygon>
            <polygon id="Path" fill="#FFFFFF" points="49 76 50 76 50 77 49 77"></polygon>
            <polygon id="Path" fill="#7BC0E7" points="70 76 71 76 71 77 70 77"></polygon>
            <polygon id="Path" fill="#FFFFFF" points="140 76 141 76 141 77 140 77"></polygon>
            <polygon id="Path" fill="#5E83A7" points="203 76 204 76 204 77 203 77"></polygon>
            <polygon id="Path" fill="#7BC0E7" points="273 76 274 76 274 77 273 77"></polygon>
            <polygon id="Path" fill="#FFFFFF" points="48 77 49 77 49 79 48 79"></polygon>
            <polygon id="Path" fill="#7BC0E7" points="74 77 75 77 75 78 74 78"></polygon>
            <path d="M108,77 L110,77 L110,78 L108,78 L108,77 Z M271,77 L273,77 L273,78 L271,78 L271,77 Z" id="Shape" fill="#FFFFFF" fill-rule="nonzero"></path>
            <polygon id="Path" fill="#7BC0E7" points="371 77 372 77 372 78 371 78"></polygon>
            <polygon id="Path" fill="#5E83A7" points="3 78 4 78 4 79 3 79"></polygon>
            <polygon id="Path" fill="#FFFFFF" points="68 78 70 78 70 79 69 79 69 80 68 80"></polygon>
            <polygon id="Path" fill="#5E83A6" points="70 78 71 78 71 79 70 79"></polygon>
            <polygon id="Path" fill="#FFFFFF" points="101 78 106 78 106 79 105 79 105 80 107 80 107 81 109 81 109 83 110 83 110 84 108 84 108 85 106 85 106 84 104 84 104 83 100 83 100 84 102 84 102 85 103 85 103 86 102 86 102 87 104 87 104 88 100 88 100 89 97 89 97 90 95 90 95 88 97 88 97 87 94 87 94 86 87 86 87 87 84 87 84 86 82 86 82 85 88 85 88 84 96 84 96 83 98 83 98 81 99 81 99 80 100 80 100 79 101 79"></polygon>
            <polygon id="Path" fill="#5E83A6" points="126 78 128 78 128 79 126 79"></polygon>
            <polygon id="Path" fill="#5E83A7" points="211 78 212 78 212 79 211 79"></polygon>
            <polygon id="Path" fill="#FFFFFF" points="255 78 257 78 257 79 255 79"></polygon>
            <polygon id="Path" fill="#7BC0E7" points="258 78 261 78 261 79 258 79"></polygon>
            <path d="M265,78 L266,78 L266,79 L265,79 L265,78 Z M269,78 L271,78 L271,79 L269,79 L269,78 Z M325,78 L326,78 L326,79 L325,79 L325,78 Z M47,79 L48,79 L48,80 L47,80 L47,79 Z" id="Shape" fill="#FFFFFF" fill-rule="nonzero"></path>
            <polygon id="Path" fill="#5E83A6" points="69 79 70 79 70 80 69 80"></polygon>
            <polygon id="Path" fill="#7BC0E7" points="72 79 73 79 73 80 72 80"></polygon>
            <polygon id="Path" fill="#FFFFFF" points="266 79 269 79 269 80 266 80"></polygon>
            <polygon id="Path" fill="#5E83A7" points="331 79 332 79 332 80 331 80"></polygon>
            <path d="M38,80 L40,80 L40,82 L39,82 L39,81 L38,81 L38,80 Z M60,80 L63,80 L63,81 L60,81 L60,80 Z M135,80 L137,80 L137,81 L136,81 L136,82 L135,82 L135,80 Z" id="Shape" fill="#FFFFFF" fill-rule="nonzero"></path>
            <polygon id="Path" fill="#5E83A7" points="221 80 222 80 222 81 221 81"></polygon>
            <path d="M263,80 L265,80 L265,81 L263,81 L263,80 Z M54,81 L60,81 L60,82 L58,82 L58,83 L56,83 L56,84 L54,84 L54,85 L53,85 L53,86 L52,86 L52,87 L51,87 L51,88 L50,88 L50,89 L48,89 L48,90 L46,90 L46,89 L47,89 L47,88 L48,88 L48,87 L49,87 L49,85 L50,85 L50,84 L52,84 L52,83 L53,83 L53,82 L54,82 L54,81 Z" id="Shape" fill="#FFFFFF" fill-rule="nonzero"></path>
            <polygon id="Path" fill="#7BC0E7" points="70 81 71 81 71 82 70 82"></polygon>
            <polygon id="Path" fill="#FFFFFF" points="126 81 127 81 127 82 126 82"></polygon>
            <polygon id="Path" fill="#7BC0E7" points="269 81 270 81 270 82 269 82"></polygon>
            <polygon id="Path" fill="#5E83A7" points="91 82 92 82 92 83 91 83"></polygon>
            <polygon id="Path" fill="#5E83A6" points="110 82 113 82 113 83 110 83"></polygon>
            <polygon id="Path" fill="#FFFFFF" points="261 82 262 82 262 83 261 83"></polygon>
            <polygon id="Path" fill="#5E83A6" points="67 83 68 83 68 84 67 84"></polygon>
            <polygon id="Path" fill="#7BC0E7" points="68 83 69 83 69 84 68 84"></polygon>
            <path d="M100,83 L102,83 L102,84 L100,84 L100,83 Z M113,83 L114,83 L114,84 L113,84 L113,83 Z M115,83 L117,83 L117,84 L115,84 L115,83 Z" id="Shape" fill="#5E83A6" fill-rule="nonzero"></path>
            <polygon id="Path" fill="#FFFFFF" points="251 83 253 83 253 84 251 84"></polygon>
            <path d="M265,83 L266,83 L266,84 L265,84 L265,83 Z M66,84 L68,84 L68,85 L66,85 L66,84 Z" id="Shape" fill="#7BC0E7" fill-rule="nonzero"></path>
            <polygon id="Path" fill="#FFFFFF" points="123 84 124 84 124 85 123 85"></polygon>
            <path d="M65,85 L66,85 L66,86 L65,86 L65,85 Z M91,86 L94,86 L94,87 L97,87 L97,88 L95,88 L95,89 L92,89 L92,87 L91,87 L91,86 Z" id="Shape" fill="#7BC0E7" fill-rule="nonzero"></path>
            <polygon id="Path" fill="#5E83A6" points="102 86 104 86 104 87 102 87"></polygon>
            <path d="M238,86 L239,86 L239,87 L238,87 L238,86 Z M355,86 L356,86 L356,87 L355,87 L355,86 Z" id="Shape" fill="#5E83A7" fill-rule="nonzero"></path>
            <path d="M87,87 L90,87 L90,88 L87,88 L87,87 Z M130,87 L132,87 L132,88 L131,88 L131,89 L128,89 L128,88 L130,88 L130,87 Z" id="Shape" fill="#FFFFFF" fill-rule="nonzero"></path>
            <polygon id="Path" fill="#5E83A7" points="213 87 214 87 214 88 213 88"></polygon>
            <polygon id="Path" fill="#FFFFFF" points="90 89 94 89 94 90 95 90 95 91 89 91 89 92 86 92 86 91 87 91 87 90 90 90"></polygon>
            <polygon id="Path" fill="#5E83A6" points="94 89 95 89 95 90 94 90"></polygon>
            <polygon id="Path" fill="#FFFFFF" points="132 89 135 89 135 90 132 90"></polygon>
            <polygon id="Path" fill="#7BC0E7" points="135 89 138 89 138 90 135 90"></polygon>
            <polygon id="Path" fill="#5E83A7" points="352 89 353 89 353 90 352 90"></polygon>
            <polygon id="Path" fill="#5E83A7" points="20 90 21 90 21 91 20 91"></polygon>
            <path d="M44,90 L46,90 L46,91 L44,91 L44,90 Z M84,92 L86,92 L86,93 L84,93 L84,92 Z" id="Shape" fill="#FFFFFF" fill-rule="nonzero"></path>
            <polygon id="Path" fill="#5B88A6" points="1 164 3 164 3 165 1 165"></polygon>
        </g>
    </g>
</svg>