<?xml version="1.0" encoding="UTF-8"?>
<svg width="72px" height="72px" viewBox="0 0 72 72" version="1.1" xmlns="http://www.w3.org/2000/svg" xmlns:xlink="http://www.w3.org/1999/xlink">
    <!-- Generator: Sketch 52.6 (67491) - http://www.bohemiancoding.com/sketch -->
    <title>rim 2</title>
    <desc>Created with Sketch.</desc>
    <g id="Page-1" stroke="none" stroke-width="1" fill="none" fill-rule="evenodd">
        <g id="rim">
            <polygon id="Path" fill="#636363" points="18 0 54 0 54 9 18 9"></polygon>
            <polygon id="Path" fill="#636363" points="9 9 18 9 18 18 9 18"></polygon>
            <polygon id="Path" fill="#4F4F4F" points="18 9 54 9 54 18 45 18 45 27 27 27 27 18 18 18"></polygon>
            <polygon id="Path" fill="#636363" points="54 9 63 9 63 18 54 18"></polygon>
            <polygon id="Path" fill="#636363" points="0 18 9 18 9 54 0 54"></polygon>
            <polygon id="Path" fill="#4F4F4F" points="9 18 18 18 18 27 27 27 27 45 18 45 18 54 9 54"></polygon>
            <polygon id="Path" fill="#636363" points="18 18 27 18 27 27 18 27"></polygon>
            <polygon id="Path" fill="#636363" points="45 18 54 18 54 27 45 27"></polygon>
            <polygon id="Path" fill="#4F4F4F" points="54 18 63 18 63 54 54 54 54 45 45 45 45 27 54 27"></polygon>
            <polygon id="Path" fill="#636363" points="63 18 72 18 72 54 63 54"></polygon>
            <polygon id="Path" fill="#636363" points="27 27 45 27 45 45 27 45"></polygon>
            <polygon id="Path" fill="#636363" points="18 45 27 45 27 54 18 54"></polygon>
            <polygon id="Path" fill="#4F4F4F" points="27 45 45 45 45 54 54 54 54 63 18 63 18 54 27 54"></polygon>
            <polygon id="Path" fill="#636363" points="45 45 54 45 54 54 45 54"></polygon>
            <polygon id="Path" fill="#636363" points="9 54 18 54 18 63 9 63"></polygon>
            <polygon id="Path" fill="#636363" points="54 54 63 54 63 63 54 63"></polygon>
            <polygon id="Path" fill="#636363" points="18 63 54 63 54 72 18 72"></polygon>
        </g>
    </g>
</svg>