<?xml version="1.0" encoding="UTF-8"?>
<svg width="108px" height="108px" viewBox="0 0 108 108" version="1.1" xmlns="http://www.w3.org/2000/svg" xmlns:xlink="http://www.w3.org/1999/xlink">
    <!-- Generator: Sketch 52.6 (67491) - http://www.bohemiancoding.com/sketch -->
    <title>wheel 2</title>
    <desc>Created with Sketch.</desc>
    <g id="Page-1" stroke="none" stroke-width="1" fill="none" fill-rule="evenodd">
        <g id="wheel">
            <polygon id="Path" fill="#000000" points="36 0 72 0 72 9 90 9 90 18 99 18 99 36 108 36 108 72 99 72 99 90 90 90 90 99 72 99 72 108 36 108 36 99 18 99 18 90 9 90 9 72 0 72 0 36 9 36 9 18 18 18 18 9 36 9"></polygon>
            <polygon id="Path" fill="#636363" points="36 18 72 18 72 27 36 27"></polygon>
            <polygon id="Path" fill="#636363" points="27 27 36 27 36 36 27 36"></polygon>
            <polygon id="Path" fill="#4F4F4F" points="36 27 72 27 72 36 63 36 63 45 45 45 45 36 36 36"></polygon>
            <polygon id="Path" fill="#636363" points="72 27 81 27 81 36 72 36"></polygon>
            <polygon id="Path" fill="#636363" points="18 36 27 36 27 72 18 72"></polygon>
            <polygon id="Path" fill="#4F4F4F" points="27 36 36 36 36 45 45 45 45 63 36 63 36 72 27 72"></polygon>
            <polygon id="Path" fill="#636363" points="36 36 45 36 45 45 36 45"></polygon>
            <polygon id="Path" fill="#636363" points="63 36 72 36 72 45 63 45"></polygon>
            <polygon id="Path" fill="#4F4F4F" points="72 36 81 36 81 72 72 72 72 63 63 63 63 45 72 45"></polygon>
            <polygon id="Path" fill="#636363" points="81 36 90 36 90 72 81 72"></polygon>
            <polygon id="Path" fill="#636363" points="45 45 63 45 63 63 45 63"></polygon>
            <polygon id="Path" fill="#636363" points="36 63 45 63 45 72 36 72"></polygon>
            <polygon id="Path" fill="#4F4F4F" points="45 63 63 63 63 72 72 72 72 81 36 81 36 72 45 72"></polygon>
            <polygon id="Path" fill="#636363" points="63 63 72 63 72 72 63 72"></polygon>
            <polygon id="Path" fill="#636363" points="27 72 36 72 36 81 27 81"></polygon>
            <polygon id="Path" fill="#636363" points="72 72 81 72 81 81 72 81"></polygon>
            <polygon id="Path" fill="#636363" points="36 81 72 81 72 90 36 90"></polygon>
        </g>
    </g>
</svg>