<svg id="svg" version="1.1" width="400" height="318.51851851851853" viewBox="0 0 400 318.51851851851853" xmlns="http://www.w3.org/2000/svg" xmlns:xlink="http://www.w3.org/1999/xlink" ><g id="svgg"><path id="path0" d="M127.633 31.642 C 127.546 31.867,127.515 34.843,127.563 38.256 L 127.649 44.462 199.522 44.462 L 271.394 44.462 271.394 37.928 L 271.394 31.394 199.592 31.314 C 141.440 31.249,127.759 31.311,127.633 31.642 M127.637 57.131 C 127.553 57.350,127.522 68.861,127.567 82.709 L 127.649 107.888 135.850 107.973 L 144.051 108.059 144.137 114.507 L 144.223 120.956 151.945 121.042 L 159.668 121.127 159.754 127.257 L 159.841 133.386 167.968 133.546 L 176.096 133.705 176.182 140.159 L 176.268 146.614 184.074 146.614 L 191.880 146.614 191.796 159.283 L 191.713 171.952 184.064 172.112 L 176.414 172.271 176.255 178.327 L 176.096 184.382 167.968 184.542 L 159.841 184.701 159.754 191.150 L 159.668 197.598 151.946 197.684 L 144.223 197.769 144.064 203.825 L 143.904 209.880 135.777 210.040 L 127.649 210.199 127.649 235.538 L 127.649 260.876 135.777 260.876 L 143.904 260.876 144.064 254.821 L 144.223 248.765 151.946 248.680 L 159.668 248.594 159.754 242.146 L 159.841 235.697 168.048 235.612 L 176.255 235.527 176.255 242.066 L 176.255 248.606 184.064 248.606 L 191.873 248.606 191.873 242.072 L 191.873 235.538 199.681 235.538 L 207.490 235.538 207.490 242.072 L 207.490 248.606 215.618 248.606 L 223.745 248.606 223.745 242.072 L 223.745 235.538 215.624 235.538 L 207.504 235.538 207.417 229.402 L 207.331 223.267 199.602 223.182 L 191.873 223.096 191.873 216.562 L 191.873 210.029 199.602 210.114 L 207.331 210.199 207.417 216.653 L 207.503 223.108 215.590 223.108 C 222.670 223.108,223.701 223.170,223.870 223.612 C 223.977 223.889,224.064 226.683,224.064 229.821 L 224.064 235.527 231.793 235.612 L 239.522 235.697 239.608 242.146 L 239.694 248.595 247.736 248.680 L 255.777 248.765 255.936 254.821 L 256.096 260.876 263.825 260.962 L 271.554 261.047 271.554 235.549 L 271.554 210.051 263.825 209.966 L 256.096 209.880 255.936 203.825 L 255.777 197.769 247.649 197.610 L 239.522 197.450 239.436 191.002 L 239.349 184.553 231.627 184.468 L 223.904 184.382 223.818 178.247 L 223.731 172.112 215.611 172.112 L 207.490 172.112 207.490 159.363 L 207.490 146.614 215.611 146.614 L 223.732 146.614 223.818 140.159 L 223.904 133.705 231.554 133.546 L 239.203 133.386 239.363 127.331 L 239.522 121.275 247.649 121.116 L 255.777 120.956 255.863 114.508 L 255.949 108.059 263.672 107.974 L 271.394 107.888 271.394 82.390 L 271.394 56.892 199.592 56.812 C 142.317 56.748,127.758 56.812,127.637 57.131 M175.751 82.425 C 176.188 82.592,176.255 83.485,176.255 89.118 L 176.255 95.618 184.057 95.618 L 191.860 95.618 191.946 89.004 L 192.032 82.390 199.681 82.390 L 207.331 82.390 207.417 89.004 L 207.503 95.618 215.624 95.618 L 223.745 95.618 223.745 89.307 C 223.745 84.823,223.856 82.885,224.127 82.614 C 224.719 82.022,238.836 82.075,239.331 82.671 C 239.584 82.976,239.669 85.000,239.609 89.284 L 239.522 95.458 231.793 95.544 L 224.064 95.629 224.064 101.334 C 224.064 104.472,223.977 107.266,223.870 107.544 C 223.701 107.985,222.670 108.048,215.590 108.048 L 207.503 108.048 207.417 114.502 L 207.331 120.956 199.602 121.042 L 191.873 121.127 191.873 114.593 L 191.873 108.059 184.143 107.974 L 176.414 107.888 176.328 101.758 L 176.241 95.628 168.041 95.543 L 159.841 95.458 159.754 89.252 C 159.706 85.839,159.737 82.863,159.824 82.639 C 159.988 82.210,174.676 82.012,175.751 82.425 M191.873 101.838 L 191.873 108.059 199.602 107.974 L 207.331 107.888 207.417 101.753 L 207.504 95.618 199.688 95.618 L 191.873 95.618 191.873 101.838 M207.490 140.080 L 207.490 146.614 199.681 146.614 L 191.873 146.614 191.873 140.080 L 191.873 133.546 199.681 133.546 L 207.490 133.546 207.490 140.080 M207.417 191.155 L 207.503 197.610 199.688 197.610 L 191.873 197.610 191.873 191.070 L 191.873 184.530 199.602 184.616 L 207.331 184.701 207.417 191.155 M191.873 229.323 L 191.873 235.538 184.064 235.538 L 176.255 235.538 176.255 229.535 C 176.255 226.234,176.351 223.437,176.467 223.320 C 176.584 223.203,180.098 223.108,184.276 223.108 L 191.873 223.108 191.873 229.323 M159.754 254.900 L 159.841 260.876 167.968 260.876 L 176.096 260.876 176.182 254.900 L 176.269 248.924 167.968 248.924 L 159.667 248.924 159.754 254.900 M191.873 254.986 L 191.873 261.047 199.602 260.962 L 207.331 260.876 207.417 254.900 L 207.504 248.924 199.688 248.924 L 191.873 248.924 191.873 254.986 M224.064 254.980 L 224.064 261.036 231.713 261.036 L 239.363 261.036 239.363 254.980 L 239.363 248.924 231.713 248.924 L 224.064 248.924 224.064 254.980 M127.632 274.832 C 127.545 275.057,127.514 277.746,127.562 280.808 L 127.649 286.375 199.602 286.455 L 271.554 286.535 271.554 280.479 L 271.554 274.422 199.671 274.422 C 141.411 274.422,127.759 274.500,127.632 274.832 " stroke="none" fill="#fcfcfc" fill-rule="evenodd"></path><path id="path1" d="M95.057 37.849 L 95.139 57.211 103.347 57.296 L 111.554 57.381 111.554 89.408 L 111.554 121.434 119.363 121.434 L 127.171 121.434 127.171 127.649 L 127.171 133.865 135.458 133.865 L 143.745 133.865 143.745 140.398 L 143.745 146.932 151.554 146.932 L 159.363 146.932 159.363 159.363 L 159.363 171.793 151.554 171.793 L 143.745 171.793 143.745 178.008 L 143.745 184.223 135.458 184.223 L 127.171 184.223 127.171 190.757 L 127.171 197.291 119.363 197.291 L 111.554 197.291 111.554 229.004 L 111.554 260.717 103.267 260.717 L 94.980 260.717 94.980 280.478 L 94.980 300.239 199.522 300.239 L 304.064 300.239 304.064 280.478 L 304.064 260.717 296.255 260.717 L 288.446 260.717 288.446 229.004 L 288.446 197.291 280.159 197.291 L 271.873 197.291 271.873 190.757 L 271.873 184.223 264.064 184.223 L 256.255 184.223 256.255 178.008 L 256.255 171.793 248.127 171.793 L 240.000 171.793 240.000 159.363 L 240.000 146.932 248.127 146.932 L 256.255 146.932 256.255 140.398 L 256.255 133.865 264.064 133.865 L 271.873 133.865 271.873 127.649 L 271.873 121.434 280.159 121.434 L 288.446 121.434 288.446 89.402 L 288.446 57.371 296.255 57.371 L 304.064 57.371 304.064 37.928 L 304.064 18.486 199.519 18.486 L 94.975 18.486 95.057 37.849 M271.394 37.928 L 271.394 44.462 199.522 44.462 L 127.649 44.462 127.563 38.256 C 127.515 34.843,127.546 31.867,127.633 31.642 C 127.759 31.311,141.440 31.249,199.592 31.314 L 271.394 31.394 271.394 37.928 M271.394 82.390 L 271.394 107.888 263.672 107.974 L 255.949 108.059 255.863 114.508 L 255.777 120.956 247.649 121.116 L 239.522 121.275 239.363 127.331 L 239.203 133.386 231.554 133.546 L 223.904 133.705 223.818 140.159 L 223.732 146.614 215.611 146.614 L 207.490 146.614 207.490 159.363 L 207.490 172.112 215.611 172.112 L 223.731 172.112 223.818 178.247 L 223.904 184.382 231.627 184.468 L 239.349 184.553 239.436 191.002 L 239.522 197.450 247.649 197.610 L 255.777 197.769 255.936 203.825 L 256.096 209.880 263.825 209.966 L 271.554 210.051 271.554 235.549 L 271.554 261.047 263.825 260.962 L 256.096 260.876 255.936 254.821 L 255.777 248.765 247.736 248.680 L 239.694 248.595 239.608 242.146 L 239.522 235.697 231.793 235.612 L 224.064 235.527 224.064 229.821 C 224.064 226.683,223.977 223.889,223.870 223.612 C 223.701 223.170,222.670 223.108,215.590 223.108 L 207.503 223.108 207.417 216.653 L 207.331 210.199 199.602 210.114 L 191.873 210.029 191.873 216.562 L 191.873 223.096 199.602 223.182 L 207.331 223.267 207.417 229.402 L 207.504 235.538 215.624 235.538 L 223.745 235.538 223.745 242.072 L 223.745 248.606 215.618 248.606 L 207.490 248.606 207.490 242.072 L 207.490 235.538 199.681 235.538 L 191.873 235.538 191.873 242.072 L 191.873 248.606 184.064 248.606 L 176.255 248.606 176.255 242.066 L 176.255 235.527 168.048 235.612 L 159.841 235.697 159.754 242.146 L 159.668 248.594 151.946 248.680 L 144.223 248.765 144.064 254.821 L 143.904 260.876 135.777 260.876 L 127.649 260.876 127.649 235.538 L 127.649 210.199 135.777 210.040 L 143.904 209.880 144.064 203.825 L 144.223 197.769 151.946 197.684 L 159.668 197.598 159.754 191.150 L 159.841 184.701 167.968 184.542 L 176.096 184.382 176.255 178.327 L 176.414 172.271 184.064 172.112 L 191.713 171.952 191.796 159.283 L 191.880 146.614 184.074 146.614 L 176.268 146.614 176.182 140.159 L 176.096 133.705 167.968 133.546 L 159.841 133.386 159.754 127.257 L 159.668 121.127 151.945 121.042 L 144.223 120.956 144.137 114.507 L 144.051 108.059 135.850 107.973 L 127.649 107.888 127.567 82.709 C 127.522 68.861,127.553 57.350,127.637 57.131 C 127.758 56.812,142.317 56.748,199.592 56.812 L 271.394 56.892 271.394 82.390 M159.824 82.639 C 159.737 82.863,159.706 85.839,159.754 89.252 L 159.841 95.458 168.041 95.543 L 176.241 95.628 176.328 101.758 L 176.414 107.888 184.143 107.974 L 191.873 108.059 191.873 114.593 L 191.873 121.127 199.602 121.042 L 207.331 120.956 207.417 114.502 L 207.503 108.048 215.590 108.048 C 222.670 108.048,223.701 107.985,223.870 107.544 C 223.977 107.266,224.064 104.472,224.064 101.334 L 224.064 95.629 231.793 95.544 L 239.522 95.458 239.609 89.284 C 239.669 85.000,239.584 82.976,239.331 82.671 C 238.836 82.075,224.719 82.022,224.127 82.614 C 223.856 82.885,223.745 84.823,223.745 89.307 L 223.745 95.618 215.624 95.618 L 207.503 95.618 207.417 89.004 L 207.331 82.390 199.681 82.390 L 192.032 82.390 191.946 89.004 L 191.860 95.618 184.057 95.618 L 176.255 95.618 176.255 89.118 C 176.255 83.485,176.188 82.592,175.751 82.425 C 174.676 82.012,159.988 82.210,159.824 82.639 M207.417 101.753 L 207.331 107.888 199.602 107.974 L 191.873 108.059 191.873 101.838 L 191.873 95.618 199.688 95.618 L 207.504 95.618 207.417 101.753 M191.873 140.080 L 191.873 146.614 199.681 146.614 L 207.490 146.614 207.490 140.080 L 207.490 133.546 199.681 133.546 L 191.873 133.546 191.873 140.080 M191.873 191.070 L 191.873 197.610 199.688 197.610 L 207.503 197.610 207.417 191.155 L 207.331 184.701 199.602 184.616 L 191.873 184.530 191.873 191.070 M176.467 223.320 C 176.351 223.437,176.255 226.234,176.255 229.535 L 176.255 235.538 184.064 235.538 L 191.873 235.538 191.873 229.323 L 191.873 223.108 184.276 223.108 C 180.098 223.108,176.584 223.203,176.467 223.320 M176.182 254.900 L 176.096 260.876 167.968 260.876 L 159.841 260.876 159.754 254.900 L 159.667 248.924 167.968 248.924 L 176.269 248.924 176.182 254.900 M207.417 254.900 L 207.331 260.876 199.602 260.962 L 191.873 261.047 191.873 254.986 L 191.873 248.924 199.688 248.924 L 207.504 248.924 207.417 254.900 M239.363 254.980 L 239.363 261.036 231.713 261.036 L 224.064 261.036 224.064 254.980 L 224.064 248.924 231.713 248.924 L 239.363 248.924 239.363 254.980 M271.554 280.479 L 271.554 286.535 199.602 286.455 L 127.649 286.375 127.562 280.808 C 127.514 277.746,127.545 275.057,127.632 274.832 C 127.759 274.500,141.411 274.422,199.671 274.422 L 271.554 274.422 271.554 280.479 " stroke="none" fill="#0c0c0c" fill-rule="evenodd"></path></g></svg>