<?xml version="1.0" encoding="UTF-8"?>
<svg version="1.1" viewBox="0 0 30 22" xmlns="http://www.w3.org/2000/svg">
<title>back</title>
<desc>Created with Sketch.</desc>
<g fill="none" fill-rule="evenodd">
<g transform="translate(1 1)" stroke="#000">
<path d="m11.677 19.895h-0.99481c-0.78868 0-1.4288-0.56493-1.4288-1.2548 0-0.68491 0.64009-1.5411 1.4288-1.5411h0.99481c2.5604 0 3.3223-1.4208 3.3223-3.663 0-2.2397-2.0774-4.062-4.6378-4.062h-1.7888v2.1472c0 0.54243-0.48293 0.97738-1.0687 0.97738-0.26575 0-0.50293-0.084989-0.68867-0.22747l-6.2266-4.9019c-0.78297-0.61992-0.78297-1.6198 0-2.2397l6.2266-4.9019c0.18574-0.14248 0.42292-0.22747 0.68867-0.22747 0.5858 0 1.0687 0.43495 1.0687 0.97738v2.1472h1.7888c5.3208 0 9.6385 3.777 9.6385 8.4389 0 3.3743-1.578 6.2348-4.4733 7.553-1.0984 0.50006-2.3864 0.77817-3.8497 0.77817 0.64818 0 0.64818 0 0 0z" fill="#FFEA00"/>
<circle cx="23" cy="15" r="5" fill="#fff"/>
</g>
<text fill="#000000" font-family="VCROSDMono, VCR OSD Mono" font-size="8"><tspan x="22" y="19">B</tspan></text>
</g>
</svg>
