<?xml version="1.0" encoding="UTF-8"?>
<svg version="1.1" viewBox="0 0 34 56" xmlns="http://www.w3.org/2000/svg">
<title>hourglass</title>
<g fill="none" fill-rule="evenodd">
<g fill="white" fill-rule="nonzero">
<path d="m13.25 42.91v2.5h-2.5v-2.5h2.5zm2.5-2.5h-2.5v2.5h2.5v-2.5zm-5-27.5v2.5h2.5v-2.5h-2.5zm2.5 2.5v2.5h2.5v-2.5h-2.5zm20-15v2.5 2.5 2.5h-2.5v2.5 2.5 2.5 2.5 2.5h-2.5v2.5h-2.5v2.5h-2.5v2.5 2.5h2.5v2.5h2.5v2.5h2.5v2.5 2.5 2.5 2.5 2.5h2.5v2.5 2.5 2.5h-2.5-2.5-2.5-2.5-2.5-2.5-2.5-2.5-2.5-2.5-2.5-2.5-2.5v-2.5-2.5-2.5h2.5v-2.5-2.5-2.5-2.5-2.5h2.5v-2.5h2.5v-2.5h2.5v-2.5-2.5h-2.5v-2.5h-2.5v-2.5h-2.5v-2.5-2.5-2.5-2.5-2.5h-2.5v-2.5-2.5-2.5h2.5 2.5 2.5 2.5 2.5 2.5 2.5 2.5 2.5 2.5 2.5 2.5 2.5zm-2.5 50h-2.5-2.5-2.5-2.5-2.5-2.5-2.5-2.5-2.5-2.5-2.5v2.5h2.5 2.5 2.5 2.5 2.5 2.5 2.5 2.5 2.5 2.5 2.5v-2.5zm-2.5-42.5h-2.5-2.5-2.5-2.5-2.5-2.5-2.5-2.5-2.5v2.5 2.5 2.5 2.5h2.5v2.5h2.5v2.5h2.5v2.5h2.5v2.5 2.5h-2.5v2.5h-2.5v2.5h-2.5v2.5h-2.5v2.5 2.5 2.5 2.5h2.5v-2.5h2.5v2.5h2.5v-2.5h2.5v2.5h2.5v-2.5h2.5v2.5h2.5v-2.5h2.5v2.5h2.5v-2.5-2.5-2.5-2.5h-2.5v-2.5h-2.5v-2.5h-2.5v-2.5h-2.5v-2.5-2.5h2.5v-2.5h2.5v-2.5h2.5v-2.5h2.5v-2.5-2.5-2.5-2.5zm2.5-5h-2.5-2.5-2.5-2.5-2.5-2.5-2.5-2.5-2.5-2.5-2.5v2.5h2.5 2.5 2.5 2.5 2.5 2.5 2.5 2.5 2.5 2.5 2.5v-2.5zm-10 40v2.5h2.5v-2.5h-2.5zm-5 0v2.5h2.5v-2.5h-2.5zm5 0v-2.5h-2.5v2.5h2.5zm-2.5-5h-2.5v2.5h2.5v-2.5zm-2.5-2.5h2.5v-2.5h-2.5v2.5zm0-12.5v2.5h2.5v-2.5h-2.5zm0-2.5h2.5v-2.5h-2.5v2.5zm2.5-7.5h-2.5v2.5h2.5v-2.5zm2.5 2.5h2.5v-2.5h-2.5v2.5zm-2.5 2.5h2.5v-2.5h-2.5v2.5z"/>
</g>
</g>
</svg>
