<svg id="svg" version="1.1" width="400" height="318.51851851851853" viewBox="0 0 400 318.51851851851853" xmlns="http://www.w3.org/2000/svg" xmlns:xlink="http://www.w3.org/1999/xlink" ><g id="svgg"><path id="path0" d="M0.000 159.363 L 0.000 318.725 200.000 318.725 L 400.000 318.725 400.000 159.363 L 400.000 0.000 200.000 0.000 L 0.000 0.000 0.000 159.363 M303.668 37.843 L 303.750 56.722 296.018 56.807 L 288.287 56.892 288.127 88.924 L 287.968 120.956 279.841 121.116 L 271.713 121.275 271.554 127.331 L 271.394 133.386 263.665 133.472 L 255.936 133.557 255.936 140.085 L 255.936 146.614 247.841 146.614 L 239.745 146.614 239.634 147.997 C 239.572 148.759,239.561 154.493,239.609 160.741 L 239.697 172.101 247.737 172.186 L 255.777 172.271 255.936 178.327 L 256.096 184.382 263.825 184.468 L 271.554 184.553 271.554 191.076 L 271.554 197.599 279.761 197.684 L 287.968 197.769 288.049 229.397 L 288.131 261.025 295.858 261.110 L 303.586 261.195 303.586 280.478 L 303.586 299.761 199.681 299.761 L 95.777 299.761 95.695 280.398 L 95.613 261.036 103.741 261.036 L 111.869 261.036 111.951 229.402 L 112.032 197.769 119.754 197.684 L 127.477 197.598 127.563 191.150 L 127.649 184.701 135.777 184.542 L 143.904 184.382 144.064 178.327 L 144.223 172.271 151.956 172.186 L 159.689 172.100 159.605 159.437 L 159.522 146.773 151.873 146.614 L 144.223 146.454 144.137 140.005 L 144.051 133.557 135.850 133.472 L 127.649 133.386 127.563 127.257 L 127.476 121.127 119.754 121.042 L 112.032 120.956 111.873 88.924 L 111.713 56.892 103.665 56.807 L 95.618 56.722 95.618 37.976 C 95.618 27.666,95.713 19.134,95.830 19.017 C 95.948 18.900,142.740 18.840,199.815 18.884 L 303.586 18.964 303.668 37.843 M127.633 31.642 C 127.546 31.867,127.515 34.843,127.563 38.256 L 127.649 44.462 199.522 44.462 L 271.394 44.462 271.394 37.928 L 271.394 31.394 199.592 31.314 C 141.440 31.249,127.759 31.311,127.633 31.642 M127.637 57.131 C 127.553 57.350,127.522 68.861,127.567 82.709 L 127.649 107.888 135.850 107.973 L 144.051 108.059 144.137 114.507 L 144.223 120.956 151.945 121.042 L 159.668 121.127 159.754 127.257 L 159.841 133.386 167.968 133.546 L 176.096 133.705 176.182 140.159 L 176.268 146.614 184.074 146.614 L 191.880 146.614 191.796 159.283 L 191.713 171.952 183.991 172.038 L 176.269 172.123 176.182 178.253 L 176.096 184.382 167.888 184.468 L 159.681 184.553 159.681 191.075 L 159.681 197.598 151.952 197.684 L 144.223 197.769 144.064 203.825 L 143.904 209.880 135.777 210.040 L 127.649 210.199 127.649 235.538 L 127.649 260.876 135.850 260.962 L 144.050 261.047 144.137 254.906 L 144.223 248.765 151.946 248.680 L 159.668 248.594 159.754 242.146 L 159.841 235.697 168.048 235.612 L 176.255 235.527 176.255 242.061 L 176.255 248.594 183.984 248.680 L 191.713 248.765 191.800 254.906 L 191.886 261.047 199.608 260.962 L 207.331 260.876 207.417 254.741 L 207.504 248.606 215.624 248.606 L 223.745 248.606 223.745 242.072 L 223.745 235.538 215.618 235.538 L 207.490 235.538 207.490 229.323 L 207.490 223.108 215.394 223.108 C 221.117 223.108,223.404 223.213,223.681 223.490 C 223.951 223.760,224.064 225.592,224.064 229.700 L 224.064 235.527 231.793 235.612 L 239.522 235.697 239.608 241.803 C 239.720 249.679,240.593 248.924,231.372 248.924 L 224.064 248.924 224.064 254.986 L 224.064 261.047 231.746 260.962 L 239.429 260.876 239.475 254.821 L 239.522 248.765 247.649 248.765 L 255.777 248.765 255.936 254.821 L 256.096 260.876 263.825 260.962 L 271.554 261.047 271.554 235.549 L 271.554 210.051 263.825 209.966 L 256.096 209.880 255.936 203.825 L 255.777 197.769 247.649 197.610 L 239.522 197.450 239.436 191.002 L 239.349 184.553 231.627 184.468 L 223.904 184.382 223.818 178.247 L 223.731 172.112 215.611 172.112 L 207.490 172.112 207.490 159.363 L 207.490 146.614 215.611 146.614 L 223.732 146.614 223.818 140.159 L 223.904 133.705 231.385 133.619 C 235.499 133.572,238.967 133.429,239.092 133.301 C 239.217 133.173,239.347 130.701,239.382 127.809 C 239.416 124.916,239.513 122.227,239.597 121.833 L 239.750 121.116 247.843 121.116 L 255.936 121.116 255.936 114.587 L 255.936 108.059 263.665 107.974 L 271.394 107.888 271.394 82.390 L 271.394 56.892 199.592 56.812 C 142.317 56.748,127.758 56.812,127.637 57.131 M175.873 82.614 C 176.144 82.885,176.255 84.823,176.255 89.307 L 176.255 95.618 184.057 95.618 L 191.860 95.618 191.946 89.004 L 192.032 82.390 199.044 82.300 C 208.591 82.178,207.490 81.293,207.490 89.090 L 207.490 95.618 215.618 95.618 L 223.745 95.618 223.745 89.307 C 223.745 84.823,223.856 82.885,224.127 82.614 C 224.719 82.022,238.836 82.075,239.331 82.671 C 239.584 82.976,239.669 85.000,239.609 89.284 L 239.522 95.458 231.793 95.544 L 224.064 95.629 224.064 101.456 C 224.064 105.563,223.951 107.396,223.681 107.665 C 223.404 107.942,221.119 108.048,215.401 108.048 L 207.503 108.048 207.417 114.502 L 207.331 120.956 199.602 121.042 L 191.873 121.127 191.873 114.593 L 191.873 108.059 184.143 107.974 L 176.414 107.888 176.328 101.758 L 176.241 95.628 168.041 95.543 L 159.841 95.458 159.754 89.252 C 159.706 85.839,159.737 82.863,159.824 82.639 C 160.042 82.070,175.304 82.046,175.873 82.614 M191.873 101.833 L 191.873 108.048 199.681 108.048 L 207.490 108.048 207.490 101.833 L 207.490 95.618 199.681 95.618 L 191.873 95.618 191.873 101.833 M207.490 140.080 L 207.490 146.614 199.681 146.614 L 191.873 146.614 191.873 140.080 L 191.873 133.546 199.681 133.546 L 207.490 133.546 207.490 140.080 M207.417 191.155 L 207.503 197.610 199.688 197.610 L 191.873 197.610 191.873 191.070 L 191.873 184.530 199.602 184.616 L 207.331 184.701 207.417 191.155 M207.417 216.653 L 207.503 223.108 199.688 223.108 L 191.873 223.108 191.873 229.323 L 191.873 235.538 199.681 235.538 L 207.490 235.538 207.490 242.037 L 207.490 248.536 206.653 248.747 C 205.725 248.980,192.902 248.928,192.271 248.688 C 191.970 248.574,191.873 246.944,191.873 242.038 L 191.873 235.538 184.057 235.538 L 176.241 235.538 176.328 229.402 L 176.414 223.267 184.143 223.182 L 191.873 223.096 191.873 216.562 L 191.873 210.029 199.602 210.114 L 207.331 210.199 207.417 216.653 M159.681 254.985 L 159.681 261.047 167.888 260.962 L 176.096 260.876 176.182 254.900 L 176.269 248.924 167.975 248.924 L 159.681 248.924 159.681 254.985 M127.852 274.529 C 127.585 274.851,127.500 276.647,127.562 280.679 L 127.649 286.375 199.602 286.455 L 271.554 286.535 271.554 280.479 L 271.554 274.422 200.345 274.422 C 161.180 274.422,128.932 274.344,128.683 274.248 C 128.434 274.153,128.060 274.279,127.852 274.529 " stroke="none" fill="#fcfcfc" fill-rule="evenodd"></path><path id="path1" d="M95.830 19.017 C 95.713 19.134,95.618 27.666,95.618 37.976 L 95.618 56.722 103.665 56.807 L 111.713 56.892 111.873 88.924 L 112.032 120.956 119.754 121.042 L 127.476 121.127 127.563 127.257 L 127.649 133.386 135.850 133.472 L 144.051 133.557 144.137 140.005 L 144.223 146.454 151.873 146.614 L 159.522 146.773 159.605 159.437 L 159.689 172.100 151.956 172.186 L 144.223 172.271 144.064 178.327 L 143.904 184.382 135.777 184.542 L 127.649 184.701 127.563 191.150 L 127.477 197.598 119.754 197.684 L 112.032 197.769 111.951 229.402 L 111.869 261.036 103.741 261.036 L 95.613 261.036 95.695 280.398 L 95.777 299.761 199.681 299.761 L 303.586 299.761 303.586 280.478 L 303.586 261.195 295.858 261.110 L 288.131 261.025 288.049 229.397 L 287.968 197.769 279.761 197.684 L 271.554 197.599 271.554 191.076 L 271.554 184.553 263.825 184.468 L 256.096 184.382 255.936 178.327 L 255.777 172.271 247.737 172.186 L 239.697 172.101 239.609 160.741 C 239.561 154.493,239.572 148.759,239.634 147.997 L 239.745 146.614 247.841 146.614 L 255.936 146.614 255.936 140.085 L 255.936 133.557 263.665 133.472 L 271.394 133.386 271.554 127.331 L 271.713 121.275 279.841 121.116 L 287.968 120.956 288.127 88.924 L 288.287 56.892 296.018 56.807 L 303.750 56.722 303.668 37.843 L 303.586 18.964 199.815 18.884 C 142.740 18.840,95.948 18.900,95.830 19.017 M271.394 37.928 L 271.394 44.462 199.522 44.462 L 127.649 44.462 127.563 38.256 C 127.515 34.843,127.546 31.867,127.633 31.642 C 127.759 31.311,141.440 31.249,199.592 31.314 L 271.394 31.394 271.394 37.928 M271.394 82.390 L 271.394 107.888 263.665 107.974 L 255.936 108.059 255.936 114.587 L 255.936 121.116 247.843 121.116 L 239.750 121.116 239.597 121.833 C 239.513 122.227,239.416 124.916,239.382 127.809 C 239.347 130.701,239.217 133.173,239.092 133.301 C 238.967 133.429,235.499 133.572,231.385 133.619 L 223.904 133.705 223.818 140.159 L 223.732 146.614 215.611 146.614 L 207.490 146.614 207.490 159.363 L 207.490 172.112 215.611 172.112 L 223.731 172.112 223.818 178.247 L 223.904 184.382 231.627 184.468 L 239.349 184.553 239.436 191.002 L 239.522 197.450 247.649 197.610 L 255.777 197.769 255.936 203.825 L 256.096 209.880 263.825 209.966 L 271.554 210.051 271.554 235.549 L 271.554 261.047 263.825 260.962 L 256.096 260.876 255.936 254.821 L 255.777 248.765 247.649 248.765 L 239.522 248.765 239.475 254.821 L 239.429 260.876 231.746 260.962 L 224.064 261.047 224.064 254.986 L 224.064 248.924 231.372 248.924 C 240.593 248.924,239.720 249.679,239.608 241.803 L 239.522 235.697 231.793 235.612 L 224.064 235.527 224.064 229.700 C 224.064 225.592,223.951 223.760,223.681 223.490 C 223.404 223.213,221.117 223.108,215.394 223.108 L 207.490 223.108 207.490 229.323 L 207.490 235.538 215.618 235.538 L 223.745 235.538 223.745 242.072 L 223.745 248.606 215.624 248.606 L 207.504 248.606 207.417 254.741 L 207.331 260.876 199.608 260.962 L 191.886 261.047 191.800 254.906 L 191.713 248.765 183.984 248.680 L 176.255 248.594 176.255 242.061 L 176.255 235.527 168.048 235.612 L 159.841 235.697 159.754 242.146 L 159.668 248.594 151.946 248.680 L 144.223 248.765 144.137 254.906 L 144.050 261.047 135.850 260.962 L 127.649 260.876 127.649 235.538 L 127.649 210.199 135.777 210.040 L 143.904 209.880 144.064 203.825 L 144.223 197.769 151.952 197.684 L 159.681 197.598 159.681 191.075 L 159.681 184.553 167.888 184.468 L 176.096 184.382 176.182 178.253 L 176.269 172.123 183.991 172.038 L 191.713 171.952 191.796 159.283 L 191.880 146.614 184.074 146.614 L 176.268 146.614 176.182 140.159 L 176.096 133.705 167.968 133.546 L 159.841 133.386 159.754 127.257 L 159.668 121.127 151.945 121.042 L 144.223 120.956 144.137 114.507 L 144.051 108.059 135.850 107.973 L 127.649 107.888 127.567 82.709 C 127.522 68.861,127.553 57.350,127.637 57.131 C 127.758 56.812,142.317 56.748,199.592 56.812 L 271.394 56.892 271.394 82.390 M159.824 82.639 C 159.737 82.863,159.706 85.839,159.754 89.252 L 159.841 95.458 168.041 95.543 L 176.241 95.628 176.328 101.758 L 176.414 107.888 184.143 107.974 L 191.873 108.059 191.873 114.593 L 191.873 121.127 199.602 121.042 L 207.331 120.956 207.417 114.502 L 207.503 108.048 215.401 108.048 C 221.119 108.048,223.404 107.942,223.681 107.665 C 223.951 107.396,224.064 105.563,224.064 101.456 L 224.064 95.629 231.793 95.544 L 239.522 95.458 239.609 89.284 C 239.669 85.000,239.584 82.976,239.331 82.671 C 238.836 82.075,224.719 82.022,224.127 82.614 C 223.856 82.885,223.745 84.823,223.745 89.307 L 223.745 95.618 215.618 95.618 L 207.490 95.618 207.490 89.090 C 207.490 81.293,208.591 82.178,199.044 82.300 L 192.032 82.390 191.946 89.004 L 191.860 95.618 184.057 95.618 L 176.255 95.618 176.255 89.307 C 176.255 84.823,176.144 82.885,175.873 82.614 C 175.304 82.046,160.042 82.070,159.824 82.639 M207.490 101.833 L 207.490 108.048 199.681 108.048 L 191.873 108.048 191.873 101.833 L 191.873 95.618 199.681 95.618 L 207.490 95.618 207.490 101.833 M191.873 140.080 L 191.873 146.614 199.681 146.614 L 207.490 146.614 207.490 140.080 L 207.490 133.546 199.681 133.546 L 191.873 133.546 191.873 140.080 M191.873 191.070 L 191.873 197.610 199.688 197.610 L 207.503 197.610 207.417 191.155 L 207.331 184.701 199.602 184.616 L 191.873 184.530 191.873 191.070 M191.873 216.562 L 191.873 223.096 184.143 223.182 L 176.414 223.267 176.328 229.402 L 176.241 235.538 184.057 235.538 L 191.873 235.538 191.873 242.038 C 191.873 246.944,191.970 248.574,192.271 248.688 C 192.902 248.928,205.725 248.980,206.653 248.747 L 207.490 248.536 207.490 242.037 L 207.490 235.538 199.681 235.538 L 191.873 235.538 191.873 229.323 L 191.873 223.108 199.688 223.108 L 207.503 223.108 207.417 216.653 L 207.331 210.199 199.602 210.114 L 191.873 210.029 191.873 216.562 M176.182 254.900 L 176.096 260.876 167.888 260.962 L 159.681 261.047 159.681 254.985 L 159.681 248.924 167.975 248.924 L 176.269 248.924 176.182 254.900 M200.345 274.422 L 271.554 274.422 271.554 280.479 L 271.554 286.535 199.602 286.455 L 127.649 286.375 127.562 280.679 C 127.473 274.869,127.650 273.852,128.683 274.248 C 128.932 274.344,161.180 274.422,200.345 274.422 " stroke="none" fill="#040404" fill-rule="evenodd"></path></g></svg>