<?xml version="1.0" encoding="UTF-8"?>
<svg fill="white" viewBox="64 -65 897 897" xmlns="http://www.w3.org/2000/svg">
<g>
<path d="m717.5 589.5q-10.5 10.5-25.5 10.5t-26-10l-154-155-154 155q-11 10-26 10t-25.5-10.5-10.5-25.5 11-25l154-155-154-155q-11-10-11-25t10.5-25.5 25.5-10.5 26 10l154 155 154-155q11-10 26-10t25.5 10.5 10.5 25-11 25.5l-154 155 154 155q11 10 11 25t-10.5 25.5zm170.5 170.5v-753h-752v753h752zm0 72h-752q-30 0-51-21t-21-51v-753q0-29 21-50.5t51-21.5h753q29 0 50.5 21.5t21.5 50.5v753q0 30-21.5 51t-51.5 21z"/>
</g>
</svg>
