<?xml version="1.0" encoding="UTF-8"?>
<svg version="1.1" viewBox="0 0 62 50" xmlns="http://www.w3.org/2000/svg">
<title>pizza icon</title>
<g fill="none" fill-rule="evenodd">
<polygon points="23.664 36 24.091 38 26 38 30 36 36 34 36 32 30.982 31.127 30 32 29 32.759 26 34" fill="#F3DDC2"/>
<polygon points="23 10 20 14 18 16 16.702 18 16 20 14 22 12 24 10 26 10 28 8 32 6 34 4.8987 36 2 40 1.3187 40.593 1.3187 44.713 4.8987 44.713 6 44 10 43.371 11.204 46.777 12 48 14 48 14.847 42 16.702 40.593 20 42 22 42 22 34 26 34 26 32 38 32 38 33.553 38.711 34.529 40 34 40 30 42 30 44 28 47.05 26 50 26 52 24 52.672 22.529 52 19 26.995 8" fill="#F1DF81"/>
<polygon points="42 30 44 28 50 26 52 24 53.517 22 56 19 60 20 60 24 56.623 24.5 51 28.776 50 30 47.481 31.127 44 32 42 32" fill="#F3DDC2"/>
<polygon points="18 38 16 38 16 40 18.663 40" fill="#F3DDC2"/>
<polygon points="23 3 23 8 26 10 30 12 34 14 38 16 44 18 46 20 52 22 54 22 58 18 58 16 56 14 52 12 48 10 44 8 40 6 36 4 32 2 28 2 24.274 3" fill="#D29D7A"/>
<rect id="Rectangle" transform="translate(54 25.5) scale(-1 1) translate(-54 -25.5)" x="51" y="25" width="6" height="1" fill="#D7BA9B"/>
<rect id="Rectangle" transform="translate(51 27.5) scale(-1 1) translate(-51 -27.5)" x="48" y="27" width="6" height="1" fill="#D7BA9B"/>
<rect id="Rectangle" transform="translate(47 29.5) scale(-1 1) translate(-47 -29.5)" x="44" y="29" width="6" height="1" fill="#D7BA9B"/>
<rect id="Rectangle" transform="translate(44 31.5) scale(-1 1) translate(-44 -31.5)" x="41" y="31" width="6" height="1" fill="#D7BA9B"/>
<rect id="Rectangle" transform="translate(33 33.5) scale(-1 1) translate(-33 -33.5)" x="30" y="33" width="6" height="1" fill="#D7BA9B"/>
<rect id="Rectangle" transform="translate(27 35.5) scale(-1 1) translate(-27 -35.5)" x="24" y="35" width="6" height="1" fill="#D7BA9B"/>
<rect id="Rectangle" transform="translate(25 36.5) scale(-1 1) translate(-25 -36.5)" x="22" y="36" width="6" height="1" fill="#D7BA9B"/>
<rect id="Rectangle" transform="translate(57 23.5) scale(-1 1) translate(-57 -23.5)" x="54" y="23" width="6" height="1" fill="#D7BA9B"/>
<rect id="Rectangle" transform="translate(59 22) scale(-1 1) translate(-59 -22)" x="58" y="21" width="2" height="2" fill="#D7BA9B"/>
<rect id="Rectangle" transform="translate(59 22) scale(-1 1) translate(-59 -22)" x="58" y="21" width="2" height="2" fill="#D7BA9B"/>
<rect id="Rectangle" transform="translate(4 43) scale(-1 1) translate(-4 -43)" x="2" y="42" width="4" height="2" fill="#CE9734"/>
<rect id="Rectangle" transform="translate(13 47) scale(-1 1) translate(-13 -47)" x="11" y="46" width="4" height="2" fill="#CE9734"/>
<rect id="Rectangle" transform="translate(22 38) scale(-1 1) translate(-22 -38)" x="21" y="34" width="2" height="8" fill="#CE9734"/>
<rect id="Rectangle" transform="translate(24 14.873) scale(-1 1) translate(-24 -14.873)" x="20" y="13.873" width="8" height="2" fill="#CE9734"/>
<rect id="Rectangle" transform="translate(24 16) scale(-1 1) translate(-24 -16)" x="22" y="15" width="4" height="2" fill="#CE9734"/>
<rect id="Rectangle" transform="translate(7 40) scale(-1 1) translate(-7 -40)" x="5" y="39" width="4" height="2" fill="#CE9734"/>
<rect id="Rectangle" transform="translate(13.5 31.5) scale(-1 1) translate(-13.5 -31.5)" x="10" y="30" width="7" height="3" fill="#CE9734"/>
<rect id="Rectangle" transform="translate(24.5 26.5) scale(-1 1) translate(-24.5 -26.5)" x="21" y="23" width="7" height="7" fill="#CE9734"/>
<rect id="Rectangle" transform="translate(35.5 25) scale(-1 1) translate(-35.5 -25)" x="33" y="23" width="5" height="4" fill="#CE9734"/>
<rect id="Rectangle" transform="translate(39 33) scale(-1 1) translate(-39 -33)" x="37" y="32" width="4" height="2" fill="#CE9734"/>
<rect id="Rectangle" transform="translate(41 31) scale(-1 1) translate(-41 -31)" x="39" y="30" width="4" height="2" fill="#CE9734"/>
<rect id="Rectangle" transform="translate(42 29) scale(-1 1) translate(-42 -29)" x="40" y="28" width="4" height="2" fill="#CE9734"/>
<rect id="Rectangle" transform="translate(44 26.5) scale(-1 1) translate(-44 -26.5)" x="42" y="25" width="4" height="3" fill="#CE9734"/>
<rect id="Rectangle" transform="translate(48 25.5) scale(-1 1) translate(-48 -25.5)" x="46" y="24" width="4" height="3" fill="#CE9734"/>
<rect id="Rectangle" transform="translate(51 22.5) scale(-1 1) translate(-51 -22.5)" x="49" y="21" width="4" height="3" fill="#CE9734"/>
<rect id="Rectangle" transform="translate(13.5 44) scale(-1 1) translate(-13.5 -44)" x="13" y="40" width="1" height="8" fill="#CE9734"/>
<g transform="translate(23 2)" fill="#9B6551">
<rect id="Rectangle" y="4" width="3" height="2"/>
<rect id="Rectangle" x="3" y="6" width="3" height="2"/>
<rect id="Rectangle" x="6" y="8" width="3" height="2"/>
<rect id="Rectangle" x="9" y="9" width="3" height="2"/>
<rect id="Rectangle" x="15" y="12" width="4" height="2"/>
<rect id="Rectangle" x="11" y="10" width="4" height="2"/>
<rect id="Rectangle" x="19" y="14" width="4" height="2"/>
<rect id="Rectangle" x="23" y="16" width="4" height="2"/>
<rect id="Rectangle" x="27" y="17" width="4" height="2"/>
<rect id="Rectangle" x="27" y="18" width="4" height="2"/>
<rect id="Rectangle" x="31" y="13" width="4" height="2"/>
<rect id="Rectangle" x="29" y="11" width="4" height="2"/>
<rect id="Rectangle" x="25" y="10" width="4" height="2"/>
<rect id="Rectangle" x="21" y="8" width="4" height="2"/>
<rect id="Rectangle" x="17" y="6" width="4" height="2"/>
<rect id="Rectangle" x="19" y="7" width="4" height="2"/>
<rect id="Rectangle" x="13" y="4" width="4" height="2"/>
<rect id="Rectangle" x="10" y="3" width="4" height="2"/>
<rect id="Rectangle" x="9" y="2" width="4" height="2"/>
<rect id="Rectangle" x="6" width="4" height="2"/>
<rect id="Rectangle" x="2" width="4" height="2"/>
</g>
<polygon id="Path" points="28 0 32 0 32 2 28 2" fill="#000"/>
<polygon id="Path" points="21 3 23 3 23 8 21 8" fill="#000"/>
<polygon id="Path" points="32 2 36 2 36 4 32 4" fill="#000"/>
<polygon id="Path" points="23 1 28 1 28 3 23 3" fill="#000"/>
<polygon id="Path" points="36 4 40 4 40 6 36 6" fill="#000"/>
<polygon id="Path" points="22 8 26 8 26 10 30 10 30 12 28 12 28 14 26 14 26 16 22 16 22 14 20 14 20 10 22 10" fill="#B42B30"/>
<polygon id="Path" points="40 6 44 6 44 8 40 8" fill="#000"/>
<polygon id="Path" points="44 8 48 8 48 10 44 10" fill="#000"/>
<polygon id="Path" points="30 12 34 12 34 14 30 14" fill="#000"/>
<polygon id="Path" points="26 10 30 10 30 12 26 12" fill="#000"/>
<polygon id="Path" points="22 8 26 8 26 10 22 10" fill="#000"/>
<polygon id="Path" points="38 16 42 16 42 18 38 18" fill="#000"/>
<polygon id="Path" points="38 16 42 16 42 18 38 18" fill="#000"/>
<polygon id="Path" points="48 10 52 10 52 12 48 12" fill="#000"/>
<polygon id="Path" points="18 14 20 14 20 16 18 16" fill="#000"/>
<polygon id="Path" points="34 14 38 14 38 16 34 16" fill="#000"/>
<polygon id="Path" points="52 12 56 12 56 14 52 14" fill="#000"/>
<polygon id="Path" points="16 16 18 16 18 20 16 20" fill="#000"/>
<polygon id="Path" points="38 16 44 16 44 18 40 18 40 20 42 20 42 24 40 24 40 26 36 26 36 24 34 24 34 20 36 20 36 18 38 18" fill="#B52C31"/>
<polygon id="Path" points="56 14 60 14 60 16 56 16" fill="#000"/>
<polygon id="Path" points="44 18 46 18 46 20 44 20" fill="#000"/>
<polygon id="Path" points="54 18 60 18 60 20 56 20 56 22 54 22" fill="#000"/>
<polygon id="Path" points="14 20 16 20 16 22 14 22" fill="#000"/>
<polygon id="Path" points="46 20 52 20 52 22 46 22" fill="#000"/>
<polygon id="Path" points="38 16 44 16 44 18 38 18" fill="#000"/>
<polygon id="Path" points="60 20 62 20 62 24 60 24" fill="#000"/>
<polygon id="Path" points="12 22 14 22 14 24 12 24" fill="#000"/>
<polygon id="Path" points="10 24 12 24 12 26 10 26" fill="#000"/>
<polygon id="Path" points="22 22 26 22 26 24 28 24 28 28 26 28 26 30 22 30 22 28 20 28 20 24 22 24" fill="#B62D32"/>
<polygon id="Path" points="52 22 54 22 54 24 52 24" fill="#000"/>
<polygon id="Path" points="10 24 12 24 12 26 14 26 14 28 16 28 16 32 14 32 14 34 10 34 10 32 8 32 8 26 10 26" fill="#B62D32"/>
<polygon id="Path" points="50 24 52 24 52 26 50 26" fill="#000"/>
<polygon id="Path" points="54 24 60 24 60 26 56 26 56 28 52 28 52 26 54 26" fill="#000"/>
<polygon id="Path" points="44 26 50 26 50 28 44 28" fill="#000"/>
<polygon id="Path" points="42 28 44 28 44 30 42 30" fill="#000"/>
<polygon id="Path" points="50 28 52 28 52 30 50 30" fill="#000"/>
<polygon id="Path" points="30 30 36 30 36 32 30 32" fill="#000"/>
<polygon id="Path" points="40 30 42 30 42 32 44 32 44 34 42 34 42 36 38 36 38 34 40 34" fill="#000"/>
<polygon id="Path" points="44 30 50 30 50 32 44 32" fill="#000"/>
<polygon id="Path" points="6 32 8 32 8 34 6 34" fill="#000"/>
<polygon id="Path" points="10 24 12 24 12 26 10 26" fill="#000"/>
<polygon id="Path" points="26 32 30 32 30 34 26 34" fill="#000"/>
<polygon id="Path" points="36 32 38 32 38 34 36 34" fill="#000"/>
<polygon id="Path" points="4 34 6 34 6 36 8 36 8 40 2 40 2 36 4 36" fill="#B52B31"/>
<polygon id="Path" points="22 34 26 34 26 36 24 36 24 38 26 38 26 40 24 40 24 42 22 42" fill="#000"/>
<polygon id="Path" points="30 34 36 34 36 36 30 36" fill="#000"/>
<path d="m14 36v12h2v-6h4v-6h-6zm4 4h-2v-2h2v2z" fill="#000" fill-rule="nonzero"/>
<polygon id="Path" points="26 36 30 36 30 38 26 38" fill="#000"/>
<polygon id="Path" points="0 40 2 40 2 44 6 44 6 46 0 46" fill="#000"/>
<polygon id="Path" points="6 42 12 42 12 48 10 48 10 44 6 44" fill="#000"/>
<polygon id="Path" points="20 42 22 42 22 44 20 44" fill="#000"/>
<polygon id="a" points="58 16 60 16 60 18 58 18" fill="#000"/>
<polygon points="12 48 14 48 14 50 12 50" fill="#000"/>
<rect id="Rectangle" x="40" y="21" width="1" height="2" fill="#FFF3F7"/>
<rect id="Rectangle" x="25" y="24" width="1" height="3" fill="#FFF3F7"/>
<rect id="Rectangle" x="9" y="28" width="1" height="2" fill="#FFF3F7"/>
<rect id="Rectangle" x="3" y="37" width="1" height="2" fill="#FFF3F7"/>
<rect id="Rectangle" transform="translate(4.5 38.5) scale(-1 1) translate(-4.5 -38.5)" x="3" y="38" width="3" height="1" fill="#FFF3F7"/>
<rect id="Rectangle" transform="translate(11 27.5) scale(-1 1) translate(-11 -27.5)" x="10" y="27" width="2" height="1" fill="#FFF3F7"/>
<rect id="Rectangle" transform="translate(13 32.5) scale(-1 1) translate(-13 -32.5)" x="12" y="32" width="2" height="1" fill="#FFF3F7"/>
<rect id="Rectangle" transform="translate(24 23.5) scale(-1 1) translate(-24 -23.5)" x="23" y="23" width="2" height="1" fill="#FFF3F7"/>
<rect id="Rectangle" transform="translate(38 24.5) scale(-1 1) translate(-38 -24.5)" x="37" y="24" width="2" height="1" fill="#FFF3F7"/>
<rect id="b" transform="translate(24 14.5) scale(-1 1) translate(-24 -14.5)" x="23" y="14" width="2" height="1" fill="#FFF3F7"/>
<rect transform="translate(23.5 11.5) scale(-1 1) translate(-23.5 -11.5)" x="22" y="11" width="3" height="1" fill="#FFF3F7"/>
</g>
</svg>
