<?xml version="1.0" encoding="UTF-8"?>
<svg fill="white" viewBox="64 -65 897 897" xmlns="http://www.w3.org/2000/svg">
<g>
<path d="m888 760v-753h-752v753h752zm0 72h-752q-30 0-51-21t-21-51v-753q0-29 21-50.5t51-21.5h753q29 0 50.5 21.5t21.5 50.5v753q0 30-21.5 51t-51.5 21zm-156-412h-184v183q0 15-10.5 25.5t-25.5 10.5q-14 0-25-10.5t-11-25.5v-183h-184q-15 0-25.5-11t-10.5-25q0-15 10.5-25.5t25.5-10.5h184v-183q0-15 11-25.5t25-10.5q15 0 25.5 10.5t10.5 25.5v183h184q15 0 25.5 10.5t10.5 25.5q0 14-10.5 25t-25.5 11z"/>
</g>
</svg>
