<?xml version="1.0" encoding="UTF-8"?>
<svg width="384px" height="216px" viewBox="0 0 384 216" version="1.1" xmlns="http://www.w3.org/2000/svg" xmlns:xlink="http://www.w3.org/1999/xlink">
    <!-- Generator: Sketch 52.6 (67491) - http://www.bohemiancoding.com/sketch -->
    <title>clouds-d5</title>
    <desc>Created with Sketch.</desc>
    <g id="Page-1" stroke="none" stroke-width="1" fill="none" fill-rule="evenodd">
        <g id="clouds-d5" transform="translate(0.000000, 47.000000)">
            <g id="Group" fill="#A4D5F3">
                <polygon id="Path" points="370 0 381 0 381 1 382 1 382 2 383 2 383 3 384 3 384 21 383 21 383 23 379 23 379 24 377 24 377 25 376 25 376 26 374 26 374 27 370 27 370 28 366 28 366 29 371 29 371 30 380 30 380 31 383 31 383 30 384 30 384 49 381 49 381 50 374 50 374 49 372 49 372 48 368 48 368 47 365 47 365 48 362 48 362 49 350 49 350 48 348 48 348 47 347 47 347 43 348 43 348 42 350 42 350 41 351 41 351 40 353 40 353 38 354 38 354 37 356 37 356 35 358 35 358 34 360 34 360 35 361 35 361 31 359 31 359 30 357 30 357 29 355 29 355 26 354 26 354 27 353 27 353 29 351 29 351 30 350 30 350 31 352 31 352 32 353 32 353 33 351 33 351 34 349 34 349 35 348 35 348 36 347 36 347 37 346 37 346 38 344 38 344 37 341 37 341 38 343 38 343 39 337 39 337 40 327 40 327 41 328 41 328 42 326 42 326 45 325 45 325 46 324 46 324 48 323 48 323 49 322 49 322 51 321 51 321 52 328 52 328 53 331 53 331 54 333 54 333 56 334 56 334 58 335 58 335 61 336 61 336 65 339 65 339 66 341 66 341 67 342 67 342 68 344 68 344 70 345 70 345 71 346 71 346 72 347 72 347 74 348 74 348 76 349 76 349 78 350 78 350 81 349 81 349 80 348 80 348 79 347 79 347 78 346 78 346 77 342 77 342 76 332 76 332 78 333 78 333 81 332 81 332 80 331 80 331 79 330 79 330 78 329 78 329 77 325 77 325 76 321 76 321 75 316 75 316 76 305 76 305 73 306 73 306 72 307 72 307 71 308 71 308 70 306 70 306 69 305 69 305 68 304 68 304 69 303 69 303 68 302 68 302 64 301 64 301 65 297 65 297 66 292 66 292 67 288 67 288 68 285 68 285 66 286 66 286 64 279 64 279 63 280 63 280 62 283 62 283 61 285 61 285 59 287 59 287 58 285 58 285 57 284 57 284 58 281 58 281 59 280 59 280 60 279 60 279 59 278 59 278 61 277 61 277 62 273 62 273 61 270 61 270 62 268 62 268 61 267 61 267 60 265 60 265 59 264 59 264 60 262 60 262 59 260 59 260 61 263 61 263 62 264 62 264 63 260 63 260 64 256 64 256 65 253 65 253 64 252 64 252 65 250 65 250 64 249 64 249 63 248 63 248 62 247 62 247 61 246 61 246 59 245 59 245 60 243 60 243 61 239 61 239 62 237 62 237 64 238 64 238 65 240 65 240 67 241 67 241 68 243 68 243 70 244 70 244 73 245 73 245 74 246 74 246 75 247 75 247 76 248 76 248 75 249 75 249 76 252 76 252 77 255 77 255 78 254 78 254 79 252 79 252 80 250 80 250 81 248 81 248 82 247 82 247 83 245 83 245 84 241 84 241 83 240 83 240 84 236 84 236 85 233 85 233 84 224 84 224 83 219 83 219 84 217 84 217 85 216 85 216 86 215 86 215 87 213 87 213 88 214 88 214 89 215 89 215 90 217 90 217 91 209 91 209 92 195 92 195 91 197 91 197 90 202 90 202 88 204 88 204 89 205 89 205 88 206 88 206 87 207 87 207 86 208 86 208 82 209 82 209 81 210 81 210 79 212 79 212 77 211 77 211 76 210 76 210 74 209 74 209 72 211 72 211 70 212 70 212 69 213 69 213 67 212 67 212 66 213 66 213 65 216 65 216 64 217 64 217 62 216 62 216 63 215 63 215 62 209 62 209 61 207 61 207 62 200 62 200 61 201 61 201 60 200 60 200 56 198 56 198 53 201 53 201 52 207 52 207 51 218 51 218 52 230 52 230 50 233 50 233 48 234 48 234 47 238 47 238 46 242 46 242 45 246 45 246 44 247 44 247 43 248 43 248 42 249 42 249 41 250 41 250 40 254 40 254 39 255 39 255 38 257 38 257 37 259 37 259 38 264 38 264 39 267 39 267 40 270 40 270 41 271 41 271 42 272 42 272 43 273 43 273 46 274 46 274 47 273 47 273 49 274 49 274 50 271 50 271 49 269 49 269 50 266 50 266 51 261 51 261 52 255 52 255 53 253 53 253 54 262 54 262 53 269 53 269 52 270 52 270 53 271 53 271 54 272 54 272 55 275 55 275 56 279 56 279 55 278 55 278 54 276 54 276 53 275 53 275 52 276 52 276 51 278 51 278 50 281 50 281 49 282 49 282 48 284 48 284 49 285 49 285 50 288 50 288 49 290 49 290 50 291 50 291 49 298 49 298 50 299 50 299 51 300 51 300 50 303 50 303 49 306 49 306 48 307 48 307 47 308 47 308 46 311 46 311 41 312 41 312 39 313 39 313 38 314 38 314 37 315 37 315 36 317 36 317 35 321 35 321 32 322 32 322 30 323 30 323 29 324 29 324 27 325 27 325 25 327 25 327 23 329 23 329 22 331 22 331 21 332 21 332 20 342 20 342 19 346 19 346 20 348 20 348 21 349 21 349 19 350 19 350 17 353 17 353 18 356 18 356 17 355 17 355 16 354 16 354 12 355 12 355 11 357 11 357 10 361 10 361 6 362 6 362 5 363 5 363 4 364 4 364 3 365 3 365 2 367 2 367 1 370 1"></polygon>
                <polygon id="Path" points="0 3 4 3 4 4 6 4 6 5 7 5 7 6 9 6 9 7 10 7 10 10 9 10 9 11 8 11 8 12 10 12 10 13 11 13 11 15 13 15 13 16 14 16 14 20 15 20 15 22 14 22 14 23 16 23 16 24 15 24 15 25 18 25 18 24 22 24 22 25 26 25 26 28 28 28 28 32 27 32 27 33 28 33 28 32 30 32 30 31 33 31 33 32 34 32 34 31 35 31 35 30 39 30 39 31 40 31 40 32 42 32 42 33 41 33 41 34 44 34 44 35 46 35 46 36 49 36 49 37 52 37 52 38 54 38 54 39 55 39 55 40 56 40 56 41 58 41 58 42 64 42 64 41 66 41 66 40 68 40 68 39 70 39 70 38 71 38 71 37 72 37 72 38 74 38 74 36 75 36 75 34 76 34 76 32 77 32 77 31 81 31 81 30 83 30 83 29 86 29 86 28 85 28 85 24 86 24 86 23 87 23 87 22 88 22 88 21 89 21 89 20 95 20 95 21 97 21 97 20 99 20 99 19 102 19 102 20 104 20 104 21 105 21 105 24 104 24 104 22 102 22 102 21 100 21 100 22 97 22 97 23 93 23 93 24 91 24 91 26 92 26 92 30 90 30 90 29 89 29 89 31 88 31 88 32 87 32 87 33 88 33 88 35 90 35 90 36 91 36 91 37 92 37 92 38 88 38 88 37 81 37 81 38 77 38 77 40 76 40 76 41 75 41 75 43 74 43 74 44 72 44 72 45 71 45 71 47 72 47 72 48 76 48 76 49 77 49 77 50 71 50 71 49 67 49 67 50 66 50 66 51 65 51 65 52 64 52 64 55 63 55 63 61 64 61 64 62 66 62 66 61 70 61 70 62 73 62 73 63 75 63 75 64 76 64 76 66 77 66 77 70 82 70 82 71 89 71 89 72 92 72 92 73 91 73 91 74 70 74 70 75 57 75 57 76 54 76 54 77 50 77 50 78 47 78 47 77 48 77 48 76 52 76 52 75 50 75 50 74 49 74 49 73 54 73 54 72 60 72 60 71 62 71 62 68 61 68 61 66 60 66 60 64 59 64 59 62 58 62 58 61 57 61 57 60 56 60 56 59 55 59 55 58 53 58 53 57 51 57 51 56 49 56 49 55 47 55 47 54 43 54 43 55 42 55 42 56 38 56 38 55 35 55 35 56 22 56 22 57 21 57 21 55 20 55 20 56 17 56 17 57 12 57 12 58 9 58 9 56 8 56 8 57 6 57 6 56 5 56 5 53 6 53 6 52 7 52 7 51 8 51 8 50 12 50 12 49 29 49 29 48 30 48 30 47 27 47 27 46 25 46 25 45 19 45 19 44 13 44 13 45 10 45 10 46 7 46 7 47 4 47 4 48 1 48 1 49 0 49 0 28 2 28 2 27 5 27 5 26 7 26 7 25 3 25 3 24 2 24 2 23 1 23 1 22 0 22"></polygon>
            </g>
            <path d="M100,21 L102,21 L102,22 L104,22 L104,24 L105,24 L105,25 L104,25 L104,27 L105,27 L105,29 L106,29 L106,30 L107,30 L107,31 L108,31 L108,33 L109,33 L109,34 L110,34 L110,36 L109,36 L109,37 L107,37 L107,38 L106,38 L106,39 L103,39 L103,40 L101,40 L101,41 L100,41 L100,39 L101,39 L101,38 L103,38 L103,35 L104,35 L104,34 L102,34 L102,35 L101,35 L101,37 L99,37 L99,38 L98,38 L98,39 L97,39 L97,43 L96,43 L96,45 L93,45 L93,46 L87,46 L87,47 L81,47 L81,48 L82,48 L82,49 L81,49 L81,50 L82,50 L82,51 L83,51 L83,50 L85,50 L85,51 L92,51 L92,50 L97,50 L97,49 L98,49 L98,53 L99,53 L99,56 L101,56 L101,57 L108,57 L108,58 L111,58 L111,59 L115,59 L115,60 L114,60 L114,61 L108,61 L108,62 L106,62 L106,63 L105,63 L105,65 L104,65 L104,68 L105,68 L105,69 L106,69 L106,70 L112,70 L112,71 L113,71 L113,73 L114,73 L114,74 L115,74 L115,75 L118,75 L118,76 L123,76 L123,75 L124,75 L124,74 L128,74 L128,73 L130,73 L130,72 L127,72 L127,73 L121,73 L121,72 L124,72 L124,71 L129,71 L129,70 L127,70 L127,68 L128,68 L128,67 L130,67 L130,66 L133,66 L133,65 L136,65 L136,64 L138,64 L138,65 L137,65 L137,66 L135,66 L135,67 L134,67 L134,68 L136,68 L136,69 L135,69 L135,70 L134,70 L134,71 L132,71 L132,72 L134,72 L134,71 L135,71 L135,72 L138,72 L138,71 L139,71 L139,70 L140,70 L140,66 L141,66 L141,65 L142,65 L142,64 L145,64 L145,63 L149,63 L149,62 L150,62 L150,60 L152,60 L152,59 L153,59 L153,61 L154,61 L154,62 L155,62 L155,63 L156,63 L156,65 L157,65 L157,69 L158,69 L158,72 L159,72 L159,73 L165,73 L165,72 L169,72 L169,71 L170,71 L170,70 L172,70 L172,65 L173,65 L173,64 L174,64 L174,63 L176,63 L176,62 L178,62 L178,61 L180,61 L180,62 L179,62 L179,63 L182,63 L182,62 L183,62 L183,61 L180,61 L180,60 L181,60 L181,59 L184,59 L184,60 L189,60 L189,58 L188,58 L188,59 L187,59 L187,54 L189,54 L189,53 L190,53 L190,52 L193,52 L193,51 L194,51 L194,52 L197,52 L197,53 L198,53 L198,56 L200,56 L200,60 L201,60 L201,61 L200,61 L200,62 L207,62 L207,61 L209,61 L209,62 L215,62 L215,63 L216,63 L216,62 L217,62 L217,64 L216,64 L216,65 L213,65 L213,66 L212,66 L212,67 L213,67 L213,69 L212,69 L212,70 L211,70 L211,72 L209,72 L209,74 L210,74 L210,76 L211,76 L211,77 L212,77 L212,79 L210,79 L210,81 L209,81 L209,82 L208,82 L208,86 L207,86 L207,87 L206,87 L206,88 L202,88 L202,90 L197,90 L197,91 L195,91 L195,92 L209,92 L209,91 L217,91 L217,90 L215,90 L215,89 L214,89 L214,88 L213,88 L213,87 L215,87 L215,86 L216,86 L216,85 L217,85 L217,84 L219,84 L219,83 L224,83 L224,84 L233,84 L233,85 L236,85 L236,84 L245,84 L245,83 L247,83 L247,82 L248,82 L248,81 L250,81 L250,80 L252,80 L252,79 L254,79 L254,78 L255,78 L255,77 L252,77 L252,76 L249,76 L249,75 L248,75 L248,76 L247,76 L247,75 L246,75 L246,74 L245,74 L245,73 L244,73 L244,70 L243,70 L243,68 L241,68 L241,67 L240,67 L240,65 L243,65 L243,64 L242,64 L242,62 L241,62 L241,63 L239,63 L239,64 L240,64 L240,65 L238,65 L238,64 L237,64 L237,62 L239,62 L239,61 L243,61 L243,60 L245,60 L245,59 L246,59 L246,61 L247,61 L247,62 L248,62 L248,63 L249,63 L249,64 L250,64 L250,65 L252,65 L252,64 L253,64 L253,65 L256,65 L256,64 L260,64 L260,63 L264,63 L264,62 L263,62 L263,61 L260,61 L260,59 L262,59 L262,60 L267,60 L267,61 L268,61 L268,62 L270,62 L270,61 L273,61 L273,62 L277,62 L277,61 L278,61 L278,59 L279,59 L279,60 L280,60 L280,59 L281,59 L281,58 L284,58 L284,57 L285,57 L285,58 L287,58 L287,59 L285,59 L285,61 L283,61 L283,62 L280,62 L280,63 L279,63 L279,64 L286,64 L286,66 L285,66 L285,68 L288,68 L288,67 L292,67 L292,66 L297,66 L297,65 L301,65 L301,64 L302,64 L302,68 L303,68 L303,69 L304,69 L304,68 L305,68 L305,69 L306,69 L306,70 L308,70 L308,71 L307,71 L307,72 L306,72 L306,73 L305,73 L305,76 L316,76 L316,75 L321,75 L321,76 L325,76 L325,77 L329,77 L329,78 L330,78 L330,79 L331,79 L331,80 L332,80 L332,81 L333,81 L333,78 L332,78 L332,76 L342,76 L342,77 L346,77 L346,78 L347,78 L347,79 L348,79 L348,80 L349,80 L349,81 L350,81 L350,78 L349,78 L349,76 L348,76 L348,74 L347,74 L347,72 L346,72 L346,71 L345,71 L345,70 L344,70 L344,68 L342,68 L342,67 L341,67 L341,66 L339,66 L339,65 L336,65 L336,61 L335,61 L335,58 L334,58 L334,56 L333,56 L333,54 L331,54 L331,53 L328,53 L328,52 L321,52 L321,51 L322,51 L322,49 L323,49 L323,48 L324,48 L324,46 L325,46 L325,45 L326,45 L326,42 L328,42 L328,41 L327,41 L327,40 L337,40 L337,39 L343,39 L343,38 L341,38 L341,37 L344,37 L344,38 L346,38 L346,37 L347,37 L347,36 L348,36 L348,35 L349,35 L349,34 L351,34 L351,33 L353,33 L353,32 L352,32 L352,31 L350,31 L350,30 L351,30 L351,29 L353,29 L353,27 L354,27 L354,26 L355,26 L355,29 L357,29 L357,30 L359,30 L359,31 L361,31 L361,35 L360,35 L360,34 L358,34 L358,35 L356,35 L356,37 L354,37 L354,38 L353,38 L353,40 L351,40 L351,41 L350,41 L350,42 L348,42 L348,43 L347,43 L347,47 L348,47 L348,48 L350,48 L350,49 L362,49 L362,48 L365,48 L365,47 L368,47 L368,48 L372,48 L372,49 L374,49 L374,50 L381,50 L381,49 L384,49 L384,169 L207,169 L207,168 L206,168 L206,169 L0,169 L0,49 L1,49 L1,48 L4,48 L4,47 L7,47 L7,46 L10,46 L10,45 L13,45 L13,44 L19,44 L19,45 L25,45 L25,46 L27,46 L27,47 L30,47 L30,48 L29,48 L29,49 L12,49 L12,50 L8,50 L8,51 L7,51 L7,52 L6,52 L6,53 L5,53 L5,56 L6,56 L6,57 L8,57 L8,56 L9,56 L9,58 L12,58 L12,57 L17,57 L17,56 L20,56 L20,55 L21,55 L21,57 L22,57 L22,56 L35,56 L35,55 L38,55 L38,56 L42,56 L42,55 L43,55 L43,54 L47,54 L47,55 L49,55 L49,56 L51,56 L51,57 L53,57 L53,58 L55,58 L55,59 L56,59 L56,60 L57,60 L57,61 L58,61 L58,62 L59,62 L59,64 L60,64 L60,66 L61,66 L61,68 L62,68 L62,71 L60,71 L60,72 L54,72 L54,73 L49,73 L49,74 L50,74 L50,75 L52,75 L52,76 L48,76 L48,77 L47,77 L47,78 L50,78 L50,77 L54,77 L54,76 L57,76 L57,75 L70,75 L70,74 L91,74 L91,73 L92,73 L92,72 L89,72 L89,71 L82,71 L82,70 L77,70 L77,66 L76,66 L76,64 L75,64 L75,63 L73,63 L73,62 L70,62 L70,61 L66,61 L66,62 L64,62 L64,61 L63,61 L63,55 L64,55 L64,52 L65,52 L65,51 L66,51 L66,50 L67,50 L67,49 L71,49 L71,50 L77,50 L77,49 L76,49 L76,48 L72,48 L72,47 L71,47 L71,45 L72,45 L72,44 L74,44 L74,43 L75,43 L75,41 L76,41 L76,40 L77,40 L77,38 L81,38 L81,37 L88,37 L88,38 L92,38 L92,37 L91,37 L91,36 L90,36 L90,35 L88,35 L88,33 L87,33 L87,32 L88,32 L88,31 L89,31 L89,29 L90,29 L90,30 L92,30 L92,26 L91,26 L91,24 L93,24 L93,23 L97,23 L97,22 L100,22 L100,21 Z M383,21 L384,21 L384,30 L383,30 L383,31 L380,31 L380,30 L371,30 L371,29 L366,29 L366,28 L370,28 L370,27 L374,27 L374,26 L376,26 L376,25 L377,25 L377,24 L379,24 L379,23 L383,23 L383,21 Z M0,22 L1,22 L1,23 L2,23 L2,24 L3,24 L3,25 L7,25 L7,26 L5,26 L5,27 L2,27 L2,28 L0,28 L0,22 Z" id="Shape" fill="#71C1FC" fill-rule="nonzero"></path>
            <polygon id="Path" fill="#A5D5F3" points="362 22 363 22 363 23 362 23"></polygon>
            <polygon id="Path" fill="#FFFFFF" points="27 32 28 32 28 33 27 33"></polygon>
            <polygon id="Path" fill="#A5D5F3" points="362 32 363 32 363 33 362 33"></polygon>
            <polygon id="Path" fill="#A4D5F3" points="102 34 104 34 104 35 103 35 103 38 101 38 101 39 100 39 100 41 101 41 101 40 103 40 103 39 107 39 107 38 110 38 110 37 113 37 113 38 116 38 116 39 117 39 117 40 120 40 120 41 121 41 121 42 123 42 123 43 125 43 125 44 126 44 126 46 127 46 127 47 128 47 128 49 129 49 129 50 128 50 128 53 127 53 127 54 126 54 126 55 125 55 125 56 127 56 127 55 129 55 129 54 134 54 134 55 136 55 136 56 138 56 138 57 140 57 140 56 138 56 138 54 139 54 139 53 141 53 141 52 143 52 143 53 145 53 145 54 146 54 146 55 151 55 151 56 155 56 155 55 156 55 156 53 157 53 157 52 158 52 158 50 159 50 159 49 160 49 160 48 162 48 162 47 164 47 164 46 167 46 167 45 170 45 170 44 173 44 173 45 177 45 177 46 179 46 179 45 181 45 181 46 189 46 189 47 190 47 190 48 193 48 193 49 194 49 194 50 196 50 196 51 197 51 197 52 194 52 194 51 193 51 193 52 190 52 190 53 189 53 189 54 187 54 187 59 188 59 188 58 189 58 189 60 184 60 184 59 181 59 181 60 180 60 180 61 178 61 178 62 176 62 176 63 174 63 174 64 173 64 173 65 172 65 172 70 170 70 170 71 169 71 169 72 165 72 165 73 159 73 159 72 158 72 158 69 157 69 157 65 156 65 156 63 155 63 155 62 154 62 154 61 153 61 153 59 152 59 152 60 150 60 150 62 149 62 149 63 145 63 145 64 142 64 142 65 141 65 141 66 140 66 140 70 139 70 139 71 138 71 138 72 135 72 135 71 134 71 134 70 135 70 135 69 136 69 136 68 134 68 134 67 135 67 135 66 137 66 137 65 138 65 138 64 136 64 136 65 133 65 133 66 130 66 130 67 128 67 128 68 127 68 127 70 129 70 129 71 124 71 124 72 121 72 121 73 127 73 127 72 130 72 130 73 128 73 128 74 124 74 124 75 123 75 123 76 118 76 118 75 115 75 115 74 114 74 114 73 113 73 113 71 112 71 112 70 106 70 106 69 105 69 105 68 104 68 104 65 105 65 105 63 106 63 106 62 108 62 108 61 114 61 114 60 115 60 115 59 111 59 111 58 108 58 108 57 101 57 101 56 99 56 99 53 98 53 98 49 97 49 97 50 92 50 92 51 85 51 85 50 83 50 83 51 82 51 82 50 81 50 81 49 82 49 82 48 81 48 81 47 87 47 87 46 93 46 93 45 96 45 96 43 97 43 97 39 98 39 98 38 99 38 99 37 101 37 101 35 102 35"></polygon>
            <polygon id="Path" fill="#70C1FC" points="107 35 108 35 108 36 107 36"></polygon>
            <polygon id="Path" fill="#FFFFFF" points="106 38 107 38 107 39 106 39"></polygon>
            <path d="M117,39 L118,39 L118,40 L117,40 L117,39 Z M120,40 L121,40 L121,41 L120,41 L120,40 Z" id="Shape" fill="#71C1FC" fill-rule="nonzero"></path>
            <polygon id="Path" fill="#70C1FC" points="344 40 345 40 345 41 344 41"></polygon>
            <polygon id="Path" fill="#71C1FC" points="121 41 123 41 123 42 121 42"></polygon>
            <polygon id="Path" fill="#A5D5F3" points="361 41 362 41 362 42 361 42"></polygon>
            <g id="Group" transform="translate(123.000000, 42.000000)" fill="#71C1FC">
                <polygon id="Path" points="0 0 2 0 2 1 0 1"></polygon>
                <path d="M2,1 L3,1 L3,2 L2,2 L2,1 Z M3,3 L4,3 L4,4 L3,4 L3,3 Z" id="Shape" fill-rule="nonzero"></path>
                <path d="M4,4 L5,4 L5,5 L4,5 L4,4 Z M151,4 L152,4 L152,5 L154,5 L154,6 L155,6 L155,7 L156,7 L156,6 L159,6 L159,7 L158,7 L158,8 L155,8 L155,9 L153,9 L153,10 L152,10 L152,11 L153,11 L153,12 L155,12 L155,13 L156,13 L156,14 L152,14 L152,13 L149,13 L149,12 L148,12 L148,11 L147,11 L147,10 L146,10 L146,11 L139,11 L139,12 L130,12 L130,11 L132,11 L132,10 L138,10 L138,9 L143,9 L143,8 L146,8 L146,7 L148,7 L148,8 L151,8 L151,7 L150,7 L150,5 L151,5 L151,4 Z" id="Shape" fill-rule="nonzero"></path>
            </g>
            <polygon id="Path" fill="#A5D5F3" points="51 48 52 48 52 49 51 49"></polygon>
            <polygon id="Path" fill="#71C1FC" points="128 48 129 48 129 49 128 49"></polygon>
            <polygon id="Path" fill="#A4D5F3" points="274 48 275 48 275 49 274 49"></polygon>
            <path d="M299,48 L300,48 L300,49 L299,49 L299,48 Z M194,49 L195,49 L195,50 L194,50 L194,49 Z" id="Shape" fill="#FEFFFF" fill-rule="nonzero"></path>
            <polygon id="Path" fill="#71C1FC" points="128 50 130 50 130 54 129 54 129 55 127 55 127 56 125 56 125 55 126 55 126 54 127 54 127 53 128 53"></polygon>
            <path d="M12,52 L13,52 L13,53 L12,53 L12,52 Z M38,54 L39,54 L39,55 L38,55 L38,54 Z" id="Shape" fill="#A5D5F3" fill-rule="nonzero"></path>
            <polygon id="Path" fill="#71C1FC" points="138 56 140 56 140 57 138 57"></polygon>
            <polygon id="Path" fill="#70C1FC" points="15 59 16 59 16 60 15 60"></polygon>
            <polygon id="Path" fill="#71C1FC" points="116 59 122 59 122 60 119 60 119 61 117 61 117 60 116 60"></polygon>
            <polygon id="Path" fill="#A5D5F3" points="264 59 265 59 265 60 264 60"></polygon>
            <polygon id="Path" fill="#70C1FC" points="104 60 105 60 105 61 104 61"></polygon>
            <polygon id="Path" fill="#A4D5F3" points="360 60 371 60 371 61 373 61 373 62 374 62 374 63 379 63 379 64 378 64 378 65 377 65 377 66 372 66 372 67 366 67 366 65 365 65 365 64 364 64 364 63 363 63 363 62 359 62 359 61 360 61"></polygon>
            <path d="M180,61 L183,61 L183,62 L182,62 L182,63 L179,63 L179,62 L180,62 L180,61 Z M241,62 L242,62 L242,64 L243,64 L243,65 L240,65 L240,64 L239,64 L239,63 L241,63 L241,62 Z" id="Shape" fill="#A4D5F3" fill-rule="nonzero"></path>
            <polygon id="Path" fill="#A4D5F3" points="132 71 134 71 134 72 132 72"></polygon>
            <polygon id="Path" fill="#71C1FC" points="233 83 234 83 234 84 233 84"></polygon>
            <polygon id="Path" fill="#A5D5F3" points="240 83 241 83 241 84 240 84"></polygon>
            <polygon id="Path" fill="#A5D5F3" points="204 88 205 88 205 89 204 89"></polygon>
            <g id="Group" transform="translate(4.000000, 89.000000)" fill="#70C1FC" fill-rule="nonzero">
                <path d="M164,0 L165,0 L165,1 L164,1 L164,0 Z M171,0 L172,0 L172,1 L171,1 L171,0 Z M81,1 L82,1 L82,2 L81,2 L81,1 Z M355,2 L356,2 L356,3 L355,3 L355,2 Z M207,6 L208,6 L208,7 L207,7 L207,6 Z M166,7 L167,7 L167,8 L166,8 L166,7 Z M174,10 L175,10 L175,11 L174,11 L174,10 Z" id="Shape"></path>
                <path d="M175,11 L176,11 L176,12 L175,12 L175,11 Z M113,13 L114,13 L114,14 L113,14 L113,13 Z M177,14 L178,14 L178,15 L177,15 L177,14 Z M345,14 L346,14 L346,15 L345,15 L345,14 Z M221,21 L222,21 L222,22 L221,22 L221,21 Z M207,22 L208,22 L208,23 L207,23 L207,22 Z M128,25 L129,25 L129,26 L128,26 L128,25 Z M329,25 L330,25 L330,26 L329,26 L329,25 Z M7,26 L8,26 L8,27 L7,27 L7,26 Z M169,28 L170,28 L170,29 L169,29 L169,28 Z M330,32 L331,32 L331,33 L330,33 L330,32 Z M189,35 L190,35 L190,36 L189,36 L189,35 Z M0,37 L1,37 L1,38 L0,38 L0,37 Z M116,37 L117,37 L117,38 L116,38 L116,37 Z M250,37 L251,37 L251,38 L250,38 L250,37 Z M210,39 L211,39 L211,40 L210,40 L210,39 Z M175,41 L176,41 L176,42 L175,42 L175,41 Z M229,44 L230,44 L230,45 L229,45 L229,44 Z M264,45 L265,45 L265,46 L264,46 L264,45 Z M213,46 L214,46 L214,47 L213,47 L213,46 Z M182,47 L183,47 L183,48 L182,48 L182,47 Z M214,48 L215,48 L215,49 L214,49 L214,48 Z M298,48 L299,48 L299,49 L298,49 L298,48 Z M355,49 L356,49 L356,50 L355,50 L355,49 Z M358,49 L359,49 L359,50 L358,50 L358,49 Z M210,55 L211,55 L211,56 L210,56 L210,55 Z M219,55 L220,55 L220,56 L219,56 L219,55 Z M119,56 L120,56 L120,57 L119,57 L119,56 Z M163,56 L164,56 L164,57 L163,57 L163,56 Z M115,60 L116,60 L116,61 L115,61 L115,60 Z M150,61 L151,61 L151,62 L150,62 L150,61 Z M21,62 L22,62 L22,63 L21,63 L21,62 Z M200,63 L201,63 L201,64 L200,64 L200,63 Z M113,66 L114,66 L114,67 L113,67 L113,66 Z M299,67 L300,67 L300,68 L299,68 L299,67 Z M155,69 L156,69 L156,70 L155,70 L155,69 Z M50,74 L51,74 L51,75 L50,75 L50,74 Z M28,77 L29,77 L29,78 L28,78 L28,77 Z M217,77 L218,77 L218,78 L217,78 L217,77 Z M354,78 L355,78 L355,79 L354,79 L354,78 Z M202,79 L203,79 L203,80 L202,80 L202,79 Z" id="Shape"></path>
            </g>
        </g>
    </g>
</svg>